<?xml version="1.0" encoding="UTF-8"?>
<!DOCTYPE svg PUBLIC "-//W3C//DTD SVG 1.1//EN" "http://www.w3.org/Graphics/SVG/1.1/DTD/svg11.dtd">
<!-- Creator: CorelDRAW 2020 (64-Bit) -->
<svg xmlns="http://www.w3.org/2000/svg" xml:space="preserve" width="18.515mm" height="18.515mm" version="1.1" style="shape-rendering:geometricPrecision; text-rendering:geometricPrecision; image-rendering:optimizeQuality; fill-rule:evenodd; clip-rule:evenodd"
viewBox="0 0 26.06 26.06"
 xmlns:xlink="http://www.w3.org/1999/xlink"
 xmlns:xodm="http://www.corel.com/coreldraw/odm/2003">
 <defs>
  <style type="text/css">
   <![CDATA[
    .fil0 {fill:#FEFEFE}
   ]]>
  </style>
 </defs>
 <g id="Слой_x0020_1">
  <metadata id="CorelCorpID_0Corel-Layer"/>
  <g id="_2291200964912">
   <path class="fil0" d="M7.15 10.53c0,-0.19 0.02,-0.51 0.05,-0.67 0.15,-1.06 0.41,-1.8 1,-2.67 0.27,-0.39 0.68,-0.85 1.05,-1.16 0.86,-0.73 1.93,-1.22 3.07,-1.35 0.13,-0.01 0.2,-0.03 0.34,-0.03 0.16,0 0.22,-0.02 0.35,-0.03 0.14,-0.01 0.17,0.03 0.32,0.03 0.32,0 0.71,0.06 0.99,0.13 0.44,0.1 0.72,0.2 1.1,0.36 0.88,0.37 1.67,1.04 2.26,1.78 0.27,0.33 0.51,0.78 0.7,1.16 0.5,1.01 0.63,2.26 0.44,3.37 -0.18,1.05 -0.61,2.18 -1.07,3.1 -0.12,0.23 -0.23,0.49 -0.36,0.71 -0.13,0.22 -0.25,0.44 -0.37,0.66l-0.8 1.3c-0.82,1.23 -1.25,1.8 -2.21,3.03l-0.59 0.71c-0.1,0.12 -0.27,0.35 -0.38,0.42 -0.25,-0.16 -1.99,-2.43 -2.1,-2.58 -0.08,-0.11 -0.15,-0.2 -0.22,-0.31 -0.07,-0.1 -0.14,-0.19 -0.21,-0.29l-1.81 -2.9c-0.13,-0.21 -0.24,-0.46 -0.35,-0.69 -0.12,-0.24 -0.24,-0.47 -0.34,-0.72 -0.33,-0.82 -0.6,-1.49 -0.75,-2.39 -0.02,-0.13 -0.05,-0.33 -0.06,-0.47 -0.02,-0.14 -0.03,-0.37 -0.03,-0.5zm18.91 2.05l0 0.86c-0.02,0.51 -0.06,1.01 -0.13,1.51 -0.3,2.13 -1.25,4.39 -2.58,6.06l-0.63 0.75c-0.22,0.26 -0.22,0.25 -0.47,0.49 -1.67,1.67 -3.7,2.85 -6.01,3.43 -0.79,0.2 -1.9,0.38 -2.76,0.38 -1.9,0 -2.5,-0.07 -4.3,-0.56 -1.33,-0.37 -3.07,-1.3 -4.13,-2.14l-0.85 -0.72c-0.13,-0.12 -0.26,-0.26 -0.39,-0.39 -0.78,-0.78 -1.35,-1.5 -1.93,-2.43 -0.89,-1.43 -1.51,-3.19 -1.76,-4.89 -0.1,-0.69 -0.12,-1.07 -0.13,-1.56l0 -0.78c0,-1.16 0.34,-2.91 0.76,-3.98 0.35,-0.92 0.75,-1.82 1.3,-2.63l1.28 -1.67c0.34,-0.4 0.9,-0.93 1.29,-1.26 0.08,-0.07 0.14,-0.11 0.22,-0.18 0.38,-0.31 0.73,-0.56 1.14,-0.83 0.57,-0.37 1.43,-0.82 2.07,-1.07 0.19,-0.08 0.37,-0.15 0.55,-0.22 0.37,-0.14 0.8,-0.26 1.2,-0.37 1.43,-0.35 2.2,-0.38 3.66,-0.38 2.32,0 5.19,0.98 7.07,2.37l0.89 0.68c0.05,0.04 0.06,0.06 0.11,0.1l0.31 0.27c0.4,0.36 1.15,1.18 1.51,1.65 1.08,1.41 1.87,3.01 2.3,4.74 0.11,0.43 0.19,0.84 0.26,1.31 0.07,0.48 0.11,0.96 0.12,1.45z"/>
   <path class="fil0" d="M10.93 9.64c0,0.5 -0.02,0.69 0.22,1.16 0.21,0.42 0.61,0.79 1.05,0.97 0.74,0.31 1.7,0.18 2.28,-0.4 0.34,-0.34 0.66,-0.83 0.66,-1.36 0,-0.56 -0.02,-0.93 -0.38,-1.43 -0.32,-0.44 -0.93,-0.86 -1.58,-0.86 -0.69,0 -1.16,0.13 -1.62,0.59 -0.17,0.17 -0.29,0.33 -0.41,0.55 -0.1,0.19 -0.21,0.49 -0.21,0.77z"/>
  </g>
 </g>
</svg>
