<?xml version="1.0" encoding="UTF-8"?>
<!DOCTYPE svg PUBLIC "-//W3C//DTD SVG 1.1//EN" "http://www.w3.org/Graphics/SVG/1.1/DTD/svg11.dtd">
<!-- Creator: CorelDRAW 2020 (64-Bit) -->
<svg xmlns="http://www.w3.org/2000/svg" xml:space="preserve" width="19.2141mm" height="13.5187mm" version="1.1" style="shape-rendering:geometricPrecision; text-rendering:geometricPrecision; image-rendering:optimizeQuality; fill-rule:evenodd; clip-rule:evenodd"
viewBox="0 0 35.21 24.78"
 xmlns:xlink="http://www.w3.org/1999/xlink"
 xmlns:xodm="http://www.corel.com/coreldraw/odm/2003">
 <defs>
  <style type="text/css">
   <![CDATA[
    .fil0 {fill:#FEFEFE}
   ]]>
  </style>
 </defs>
 <g id="Слой_x0020_1">
  <metadata id="CorelCorpID_0Corel-Layer"/>
  <path class="fil0" d="M1.43 0l32.56 0 -13.62 13.51c-1.01,1.05 -1.93,1.76 -2.68,1.76 -0.86,-0.01 -1.63,-0.75 -2.66,-1.76l-13.6 -13.51zm-1.43 1.24l11.12 11.17 -11.12 11.17 0 -22.34zm35.21 0.05l0 22.39 -11.12 -11.33 11.12 -11.07zm-33.93 23.49l32.82 0c-3.77,-3.72 -7.53,-7.43 -11.3,-11.15 -1.81,2.07 -3.59,3.7 -5.12,3.68 -1.54,-0.02 -2.86,-1.38 -5.15,-3.68l-11.25 11.15z"/>
 </g>
</svg>
