<?xml version="1.0" encoding="UTF-8"?>
<!DOCTYPE svg PUBLIC "-//W3C//DTD SVG 1.1//EN" "http://www.w3.org/Graphics/SVG/1.1/DTD/svg11.dtd">
<!-- Creator: CorelDRAW 2020 (64-Bit) -->
<svg xmlns="http://www.w3.org/2000/svg" xml:space="preserve" width="18mm" height="18.0188mm" version="1.1" style="shape-rendering:geometricPrecision; text-rendering:geometricPrecision; image-rendering:optimizeQuality; fill-rule:evenodd; clip-rule:evenodd"
viewBox="0 0 30.48 30.51"
 xmlns:xlink="http://www.w3.org/1999/xlink"
 xmlns:xodm="http://www.corel.com/coreldraw/odm/2003">
 <defs>
  <style type="text/css">
   <![CDATA[
    .fil0 {fill:#FEFEFE}
   ]]>
  </style>
 </defs>
 <g id="Слой_x0020_1">
  <metadata id="CorelCorpID_0Corel-Layer"/>
  <path class="fil0" d="M-0 14.76c0,0.96 0.02,1.78 0.15,2.71 0.07,0.48 0.19,0.91 0.26,1.39 0.01,0.09 -0,0.01 0.01,0.07l0.03 0.12c0.02,0.07 0,0 0.03,0.07 0.11,0.3 0.21,0.75 0.33,1.09 0.26,0.73 0.55,1.42 0.9,2.11 0.06,0.12 0.11,0.18 0.16,0.29 0.3,0.6 0.75,1.16 0.94,1.51 0.03,0.06 -0.01,-0 0.03,0.05l0.15 0.19c0.03,0.06 -0.01,-0 0.03,0.05l0.32 0.39c0.07,0.09 0.15,0.17 0.22,0.26 0.22,0.28 0.46,0.57 0.72,0.81l0.22 0.23c0.36,0.39 0.78,0.7 1.18,1.05 0.26,0.23 0.55,0.42 0.82,0.62 0.35,0.26 0.75,0.52 1.14,0.73l1.21 0.63c0.22,0.09 0.42,0.19 0.65,0.28l1.01 0.38c0,0 0.01,0 0.02,0.01l0.12 0.03c0.3,0.08 0.6,0.2 0.9,0.25l0.52 0.12c0.05,0.01 0.14,0.03 0.19,0.04 0.28,0.05 0.54,0.07 0.82,0.14 0.17,0.04 0.4,0.04 0.56,0.07 0.16,0.04 0.01,0 0.18,0.01 0.12,0 0.07,0.03 0.18,0.04 0.03,0 0.12,-0.01 0.2,-0.01 0.15,0.01 0.26,0.03 0.45,0.03 0.51,0 1.1,0.03 1.6,-0.03 0.16,-0.02 0.22,0.01 0.37,-0.02l0.67 -0.07c0.01,-0 0.03,0 0.04,-0 0.01,-0 0.01,-0 0.02,-0l1.57 -0.31c1.28,-0.32 1.63,-0.51 2.74,-0.96 0.41,-0.17 0.82,-0.42 1.21,-0.63 0.2,-0.11 0.38,-0.23 0.58,-0.35 0.69,-0.41 1.22,-0.9 1.84,-1.37 0.36,-0.28 1.05,-1.01 1.39,-1.38 0.06,-0.06 0.06,-0.07 0.11,-0.13l1.3 -1.71 0.52 -0.86c0.88,-1.64 1.5,-3.35 1.76,-5.21 0.33,-2.37 0.12,-4.95 -0.66,-7.17 -0.02,-0.06 -0.05,-0.12 -0.06,-0.18 -0.08,-0.24 -0.16,-0.44 -0.26,-0.67 -0.48,-1.22 -0.94,-1.92 -1.64,-2.99 -0.3,-0.45 -0.67,-0.85 -1,-1.28 -0.34,-0.44 -1.17,-1.24 -1.64,-1.61 -0.51,-0.4 -1.02,-0.81 -1.57,-1.17 -0.38,-0.24 -0.78,-0.49 -1.18,-0.69 -1.99,-1 -4.24,-1.72 -6.6,-1.72 -1.91,0 -3.13,0.09 -4.9,0.63 -0.24,0.07 -0.47,0.13 -0.7,0.23 -0.23,0.09 -0.45,0.16 -0.67,0.26 -0.75,0.33 -1.1,0.5 -1.85,0.91 -0.21,0.12 -0.38,0.23 -0.58,0.35 -0.66,0.4 -1.25,0.89 -1.84,1.38 -0.44,0.36 -1.02,0.94 -1.38,1.38l-1.39 1.83c-0.89,1.39 -1.55,2.92 -1.97,4.53 -0.23,0.88 -0.44,2.15 -0.44,3.25zm10.89 -7.88c-0.39,0.05 -0.52,0.16 -0.77,0.35 -0.63,0.5 -1.25,1.02 -1.72,1.7 -0.66,0.97 -0.97,2.21 -0.87,3.62 0.21,2.8 2.42,5.56 4.03,7.32 1.76,1.93 4.69,4.17 7.57,3.77 1.83,-0.26 2.58,-1.03 3.65,-2.04 0.2,-0.19 0.35,-0.36 0.42,-0.71 0.09,-0.48 -0.49,-1.15 -0.81,-1.43 -0.58,-0.51 -1.71,-1.71 -2.72,-1.85 -1.28,-0.17 -1.97,1.45 -2.84,1.68 -1.1,0.3 -2.45,-1.11 -2.9,-1.56 -0.58,-0.58 -1.6,-1.81 -1.97,-2.57 -0.97,-1.96 0.04,-2.16 0.91,-2.93 0.34,-0.31 0.85,-0.71 0.87,-1.42 0.02,-0.97 -0.96,-2.31 -1.5,-3.07 -0.21,-0.3 -0.78,-0.95 -1.35,-0.87z"/>
 </g>
</svg>
