<?xml version="1.0" encoding="UTF-8"?>
<!DOCTYPE svg PUBLIC "-//W3C//DTD SVG 1.1//EN" "http://www.w3.org/Graphics/SVG/1.1/DTD/svg11.dtd">
<!-- Creator: CorelDRAW 2020 (64-Bit) -->
<svg xmlns="http://www.w3.org/2000/svg" xml:space="preserve" width="55.7857mm" height="53.4498mm" version="1.1" style="shape-rendering:geometricPrecision; text-rendering:geometricPrecision; image-rendering:optimizeQuality; fill-rule:evenodd; clip-rule:evenodd"
viewBox="0 0 477.64 457.64"
 xmlns:xlink="http://www.w3.org/1999/xlink"
 xmlns:xodm="http://www.corel.com/coreldraw/odm/2003">
 <defs>
  <style type="text/css">
   <![CDATA[
    .fil0 {fill:#EA5E20}
   ]]>
  </style>
 </defs>
 <g id="Слой_x0020_1">
  <metadata id="CorelCorpID_0Corel-Layer"/>
  <path class="fil0" d="M162.11 9.51l-23.16 6.89 -27.76 12.77c-4.48,2.29 -8.59,4.35 -13.04,6.93 -35.45,20.61 -69.77,53.16 -85.35,91.65 -2.9,7.16 -5.38,12.87 -7.05,20.26l-4.04 18.23 -1.7 18.62c3.78,97.02 80.98,172.17 177.67,186.49l20.48 4.51 2.39 -0.41 41.33 2.87c2.06,2.09 3.29,5.59 5.1,8.75 2.04,3.58 4.19,6.07 6.04,9.27 1.71,1.96 3.62,3.4 4.57,5.62 2.82,1.96 4.96,4.36 7.65,6.84 1.27,1.17 2.04,2.08 3.39,3.22 2.64,2.23 2.09,0.49 3.76,4.03 2.18,0.44 2.78,-0.21 3.32,2.14 3.82,1.61 6.87,4.13 10.69,6.54 7.98,5.03 26.07,13.99 34.67,16.85l27.08 9.1c4.31,1.7 0.08,0.89 3.7,1l28.98 5.01 15.74 0.95c0.77,-2.38 -1.49,-1.62 -3.75,-6.56 -1.34,-0.41 -0.89,0.68 -1.38,-1.66 -4.2,-2.64 -11.89,-12.32 -14.01,-17.79 -1.3,-0.57 -0.1,1.2 -1.41,-1.37 -1.07,-2.1 -0.5,-0.43 -0.82,-2.88 -6.98,-4.89 -18.4,-43.7 -11.52,-52.33 -1.21,-32.14 89.12,-71.15 109.1,-147.93l2.07 -5.21c-1.35,-8.69 10.61,-39.08 -6.61,-85.61 -3.18,-8.6 -6.98,-15.01 -9.97,-22.83 -2.51,-2.22 -20.65,-39.83 -63.88,-67.98l-27.23 -16.83c-2.78,-0.25 -5.84,-1.82 -8.21,-3.3 -7.02,-2.28 -14.37,-6.18 -22.1,-8.9 -4.83,-1.7 -19.81,-5.04 -22.75,-7.82 -4.51,0.16 -8.92,-1.31 -13.35,-2.39 -25.06,-4.24 -43.93,-6.62 -70.76,-6.22 -12.15,0.18 -23.64,1.44 -35.38,3.15 -11.54,1.68 -21.94,4.78 -32.5,6.31zm-23.02 189.45l198.97 -0.02 0.03 -20.01 -198.97 0.02 -0.03 20.01zm0.04 -60.18c10.12,1.21 156.56,0.14 183.21,0.23 18.4,0.07 15.74,1.91 15.76,-10.02 0.02,-14.4 3.14,-9.86 -41.45,-10.01l-104.69 -0.02c-14.87,0.03 -38.9,-1.44 -52.62,0.24l-0.2 19.59zm-0.03 107.27l0.1 12.78c63.66,0.87 134.59,0.2 198.87,0.06l-0 -20c-65.12,0.21 -134.45,-0.85 -198.87,0.11l-0.1 7.06z"/>
 </g>
</svg>
