<?xml version="1.0" encoding="UTF-8"?>
<!DOCTYPE svg PUBLIC "-//W3C//DTD SVG 1.1//EN" "http://www.w3.org/Graphics/SVG/1.1/DTD/svg11.dtd">
<!-- Creator: CorelDRAW 2020 (64-Bit) -->
<svg xmlns="http://www.w3.org/2000/svg" xml:space="preserve" width="268.436mm" height="163.696mm" version="1.1" style="shape-rendering:geometricPrecision; text-rendering:geometricPrecision; image-rendering:optimizeQuality; fill-rule:evenodd; clip-rule:evenodd"
viewBox="0 0 11465.2 6991.63"
 xmlns:xlink="http://www.w3.org/1999/xlink"
 xmlns:xodm="http://www.corel.com/coreldraw/odm/2003">
 <defs>
  <style type="text/css">
   <![CDATA[
    .fil1 {fill:#31285C}
    .fil0 {fill:#31285C;fill-rule:nonzero}
   ]]>
  </style>
 </defs>
 <g id="Слой_x0020_1">
  <metadata id="CorelCorpID_0Corel-Layer"/>
  <g id="_2723027963280">
   <path class="fil0" d="M632.22 6029.22l-278.18 0 0 -606.93 -75.86 0 0 606.93 -278.18 0 0 -1264.44 278.18 0 0 503.97 75.86 0 0 -503.97 278.18 0 0 1264.44zm648.18 0l-221.88 0 0 -39.74c-18.96,36.13 -72.85,54.19 -161.36,54.19 -136.98,0 -205.62,-53.59 -205.62,-160.76l0 -205.62c0,-45.76 16.55,-85.8 49.97,-120.12 33.11,-34.02 99.95,-76.77 200.5,-127.95 58.1,-29.51 87.31,-52.99 87.31,-70.45l0 -151.73c0,-33.42 -14.45,-50.28 -43.36,-50.28 -33.11,0 -49.37,40.94 -49.37,122.53 0,14.76 0.6,36.43 2.4,65.33 2.41,28.9 3.61,50.58 3.61,65.34l-242.05 0 0 -204.72c0,-138.19 99.95,-207.44 299.55,-207.44 186.96,0 280.29,71.96 280.29,216.16l0 815.27zm-251.08 -191.18l0 -264.03c-57.81,14.15 -86.71,40.04 -86.71,77.67l0 186.35c0,31.01 15.06,46.66 45.16,46.66 27.7,0 41.55,-15.65 41.55,-46.66zm1399.62 462.13l-207.73 0 0 -270.95 -682.8 0 0 270.95 -195.08 0 0 -451.59 108.38 0c120.42,-115.3 180.64,-249.58 180.64,-403.12l0 -440.45 588.87 0 0 843.57 207.73 0 0 451.59zm-458.82 -451.59l0 -662.93 -97.54 0 0 142.1c0,125.84 -7.22,213.45 -21.68,262.52 -14.45,49.37 -52.99,135.17 -115.91,258.31l235.12 0zm1113.01 -252.89l-335.98 0 0 237.23c0,34.62 14.15,51.78 42.75,51.78 28,0 42.15,-17.16 42.15,-51.78l0 -204.72 251.08 0 0 208.03c0,138.18 -98.14,207.43 -294.74,207.43 -194.78,0 -292.33,-71.95 -292.33,-216.16l0 -613.55c0,-144.21 97.54,-216.16 292.33,-216.16 196.6,0 294.74,69.24 294.74,207.44l0 390.47zm-251.08 -153.54l0 -235.12c0,-33.42 -14.15,-50.28 -42.15,-50.28 -28.6,0 -42.75,16.86 -42.75,50.28l0 235.12 84.9 0zm289.02 -437.14l261.02 0c24.69,28.9 37.63,100.25 38.84,214.66 0.6,97.84 16.26,146.61 46.97,146.61l21.67 0 0 -361.27 251.08 0 0 361.27 21.68 0c31.91,0 48.17,-48.47 48.77,-145.71 0.6,-114.4 13.85,-186.05 39.44,-215.56l249.57 0c-24.99,19.27 -39.44,75.27 -43.35,167.69 -6.62,155.95 -33.72,251.38 -81.59,286.01 -47.57,34.62 -102.96,52.08 -165.58,52.08l-68.94 0c207.73,40.04 311.6,122.53 311.6,247.77 0,157.45 15.96,247.77 47.87,270.65l-249.57 0c-24.39,-28.9 -37.63,-99.95 -39.44,-213.15 -1.2,-97.54 -17.46,-146.32 -48.77,-146.32l-21.68 0 0 359.47 -251.08 0 0 -359.47 -21.67 0c-30.11,0 -45.77,48.77 -46.97,146.32 -1.21,113.2 -14.15,184.25 -38.84,213.15l-261.02 0c33.11,-28.9 49.68,-118.92 49.68,-270.65 0,-65.33 23.78,-116.51 71.65,-153.84 47.87,-37.33 130.36,-68.64 247.17,-93.93 -127.34,0 -213.15,-24.99 -257.4,-74.66 -43.96,-49.68 -65.94,-134.87 -65.94,-255.6 0,-94.53 -15.05,-153.24 -45.15,-175.52zm1647.09 1024.2l-278.17 0 0 -487.71 -72.25 0 0 487.71 -278.18 0 0 -1024.2 278.18 0 0 382.95 72.25 0 0 -382.95 278.17 0 0 1024.2zm1020.29 0l-278.18 0 0 -1024.2 278.18 0 0 1024.2zm-962.79 0l0 -1024.2 270.96 0 0 316.11c137.28,0 231.81,13.25 283.6,39.74 51.78,26.5 77.67,87.91 77.67,184.25l0 260.12c0,85.2 -25.89,143.91 -77.67,175.82 -52.09,32.21 -146.91,48.17 -284.5,48.17l-270.05 0zm361.27 -247.77l0 -212.55c0,-44.86 -30.1,-67.13 -90.31,-67.13l0 346.82c60.21,0 90.31,-22.28 90.31,-67.14zm659.32 247.77l0 -1024.2 231.22 0 0 531.07 230.61 -531.07 244.46 0 0 1024.2 -231.21 0 0 -469.35 -189.37 469.35 -285.71 0zm603.33 -1311.41c-14.15,139.69 -99.05,209.54 -254.7,209.54 -157.45,0 -242.35,-69.85 -254.7,-209.54l137.29 0c11.13,60.21 50.28,90.32 117.41,90.32 67.74,0 106.88,-30.11 117.42,-90.32l137.28 0zm1118.12 1311.41l-269.14 0 0 -861.63 -97.54 0 0 861.63 -260.12 0 -1.81 -1024.2 628.61 0 0 1024.2zm644.57 0l-221.88 0 0 -39.74c-18.96,36.13 -72.85,54.19 -161.36,54.19 -136.98,0 -205.62,-53.59 -205.62,-160.76l0 -205.62c0,-45.76 16.55,-85.8 49.98,-120.12 33.11,-34.02 99.95,-76.77 200.5,-127.95 58.1,-29.51 87.31,-52.99 87.31,-70.45l0 -151.73c0,-33.42 -14.45,-50.28 -43.36,-50.28 -33.11,0 -49.37,40.94 -49.37,122.53 0,14.76 0.6,36.43 2.4,65.33 2.41,28.9 3.62,50.58 3.62,65.34l-242.05 0 0 -204.72c0,-138.19 99.95,-207.44 299.55,-207.44 186.96,0 280.28,71.96 280.28,216.16l0 815.27zm-251.08 -191.18l0 -264.03c-57.81,14.15 -86.71,40.04 -86.71,77.67l0 186.35c0,31.01 15.06,46.66 45.15,46.66 27.7,0 41.55,-15.65 41.55,-46.66zm559.66 167.69l0 240.24 -251.08 0 0 -1240.96 189.97 0 21.37 41.25c41.25,-32.21 90.02,-48.47 146.32,-48.47 57.2,0 109.88,14.45 158.36,43.36 48.47,28.6 72.85,70.14 72.85,124.33l0 736.09c0,43.05 -17.76,77.37 -52.98,103.26 -35.22,25.89 -78.28,38.84 -128.56,38.84 -70.14,0 -122.23,-12.65 -156.25,-37.93zm86.7 -167.69l0 -634.63c0,-31 -14.15,-46.66 -42.75,-46.66 -29.2,0 -43.96,15.65 -43.96,46.66l0 636.44c0,29.81 14.76,44.86 43.96,44.86 28.6,0 42.75,-15.65 42.75,-46.66zm890.53 -670.45l-155.34 0 0 861.63 -278.18 0 0 -861.63 -155.34 0 0 -162.57 588.87 0 0 162.57zm679.49 861.63l-278.18 0 0 -487.71 -72.25 0 0 487.71 -278.18 0 0 -1024.2 278.18 0 0 382.95 72.25 0 0 -382.95 278.18 0 0 1024.2zm642.76 -433.53l-335.98 0 0 237.23c0,34.62 14.15,51.78 42.75,51.78 28,0 42.15,-17.16 42.15,-51.78l0 -204.72 251.08 0 0 208.03c0,138.18 -98.14,207.43 -294.74,207.43 -194.78,0 -292.32,-71.95 -292.32,-216.16l0 -613.55c0,-144.21 97.54,-216.16 292.32,-216.16 196.6,0 294.74,69.24 294.74,207.44l0 390.47zm-251.08 -153.54l0 -235.12c0,-33.42 -14.15,-50.28 -42.15,-50.28 -28.6,0 -42.75,16.86 -42.75,50.28l0 235.12 84.9 0zm558.16 563.58l0 240.24 -251.08 0 0 -1240.96 189.97 0 21.37 41.25c41.25,-32.21 90.02,-48.47 146.32,-48.47 57.2,0 109.88,14.45 158.36,43.36 48.47,28.6 72.85,70.14 72.85,124.33l0 736.09c0,43.05 -17.76,77.37 -52.98,103.26 -35.22,25.89 -78.28,38.84 -128.56,38.84 -70.14,0 -122.23,-12.65 -156.25,-37.93zm86.7 -167.69l0 -634.63c0,-31 -14.15,-46.66 -42.75,-46.66 -29.2,0 -43.96,15.65 -43.96,46.66l0 636.44c0,29.81 14.76,44.86 43.96,44.86 28.6,0 42.75,-15.65 42.75,-46.66z"/>
   <path class="fil1" d="M5821.85 257.8c20,19.75 32.43,47.22 32.43,77.57 0,39.06 -20.54,73.33 -51.42,92.58 96.62,10.62 130.54,31.16 186.4,69.57 15.79,-30.4 89.26,-166.89 105.13,-183 151.74,-2.07 339.67,-12.22 452.87,54.16 87.46,51.28 196.81,159.5 198.62,306.37 3.28,265.68 -202.72,398.9 -248.92,518.9 -20.53,53.3 -45.18,129.63 -71.47,178.14l-1345.59 -0.5c-27.61,-56.88 -51.07,-122.12 -73.73,-182.24 -30.86,-81.89 -115.44,-146.35 -158.5,-225.24 -125.24,-229.52 -137.03,-449.99 115.34,-597.44 114.1,-66.67 300.56,-52.2 447.82,-52.2 16.58,17.03 90.44,153.19 105.42,183.37 54.32,-37.17 104.25,-60.14 169.19,-71.31 -29.63,-19.51 -49.2,-53.03 -49.2,-91.16 0,-22 6.88,-44.56 19.71,-62.53 5.54,-7.88 12.07,-15 19.46,-21.18l1.2 -1.19c18.21,-18.01 43.12,-37.75 46.65,-111.53 -3.36,0.29 -6.39,0.57 -9.19,0.87l-0.03 0.01 -1.36 0.14 0 -0.03c-30.34,2.58 -58.09,17.19 -80.47,28.4 -16.19,-40.1 -15.82,-59.43 -0.4,-97.48 45.1,23.5 69.23,31.42 80.81,29.47 26.37,-7.97 -15.66,-90.16 -15.97,-91.65 42.12,-12.75 58.03,-10.34 93.61,0.06 -8.9,38.58 -39.36,85.51 -17.28,90.99l1 0.21 0.55 0.09 0.04 0 1.15 0.14 0.64 0.06 0.63 0.03 0.68 0 0.69 0 0.05 0 1.4 -0.05 0.74 -0.06 0.1 -0.02 1.46 -0.13 0.83 -0.11 0.26 -0.06 1.29 -0.19 0.15 -0.03 0.9 -0.16 0.9 -0.17 0.85 -0.18 0.1 -0.02 0.94 -0.21 0.99 -0.24 0.15 -0.04 0.34 -0.09 1.55 -0.4 1.05 -0.27 0.79 -0.22 0.29 -0.09 1.1 -0.32 1.14 -0.35 0.14 -0.03 1.02 -0.33 1.17 -0.38 0.47 -0.16 1.96 -0.67 1.28 -0.43 1.27 -0.47 0.16 -0.05 1.17 -0.44 1.33 -0.5 1.36 -0.53 0.15 -0.03 1.26 -0.5 1.43 -0.57 1.43 -0.58 0.14 -0.06 1.35 -0.55 1.5 -0.62 1.53 -0.66 0.12 -0.03 1.45 -0.64 1.59 -0.69 1.62 -0.7 0.12 -0.05 1.53 -0.69 3.38 -1.53 0.1 -0.06 1.64 -0.76 1.78 -0.81 0.67 -0.32 2.37 -1.12 4.34 -2.08 0.05 -0.04 5.81 -2.87 0.03 -0.01 6.12 -3.07 0.01 -0.02 2.09 -1.09 2.15 -1.11 2.17 -1.12c15.44,38.04 15.78,57.36 -0.4,97.48l-1.06 -0.53 -0.09 -0.06 -1 -0.5 -0.16 -0.06 -0.93 -0.49 -0.24 -0.12 -0.84 -0.43 -0.32 -0.18 -0.78 -0.4 -0.41 -0.21 -0.71 -0.34 -0.5 -0.26 -0.6 -0.33 -0.59 -0.29 -0.55 -0.28 -0.68 -0.34 -0.44 -0.22 -0.76 -0.4 -0.38 -0.19 -0.86 -0.43 -0.29 -0.16 -0.96 -0.47 -0.21 -0.1 -1.03 -0.54 -0.12 -0.05 -1.14 -0.59 -0.03 -0.02 -1.17 -0.59 -0.05 -0.01 -1.14 -0.56 -0.14 -0.07 -1.05 -0.52 -0.22 -0.12 -0.97 -0.47 -0.32 -0.15 -0.88 -0.44 -0.41 -0.21 -0.79 -0.38 -0.5 -0.26 -0.72 -0.32 -0.59 -0.29 -0.62 -0.29 -0.71 -0.32 -0.53 -0.24 -0.79 -0.38 -0.44 -0.21 -0.88 -0.4 -0.36 -0.17 -0.99 -0.45 -0.26 -0.12 -1.08 -0.48 -0.18 -0.07 -1.19 -0.53 -0.06 -0.02 -1.28 -0.55 -0.02 -0.02 -2.54 -1.07 -0.21 -0.09 -1.08 -0.43 -0.29 -0.13 -1 -0.4 -0.4 -0.16 -0.9 -0.34 -0.49 -0.21 -0.79 -0.31 -0.61 -0.22 -0.7 -0.26 -0.71 -0.28 -0.62 -0.22 -0.8 -0.28 -0.51 -0.18 -1.33 -0.47 -1 -0.34 -0.32 -0.1 -1.11 -0.38 -0.24 -0.07 -1.21 -0.38 -0.13 -0.06 -1.32 -0.4 -0.02 -0.02 -1.36 -0.4 -0.07 -0.01 -1.29 -0.38 -0.15 -0.03 -1.21 -0.33 -2.72 -0.7 -0.48 -0.12 -0.9 -0.21 -1.38 -0.31 -0.68 -0.16 -0.69 -0.15 -0.8 -0.16 -0.61 -0.12 -0.89 -0.18 -0.48 -0.09 -1.02 -0.19 -0.4 -0.05 -1.11 -0.21 -0.29 -0.03 -1.23 -0.18 -0.17 -0.03 -1.33 -0.18 -0.09 -0.01 -1.41 -0.18 -0.02 0 -1.4 -0.13 -0.13 -0.02 -1.29 -0.12 -0.23 -0.02 -1.19 -0.09 -1.43 -0.08 -0.45 -0.03 -0.99 -0.03 -1.44 -0.06c-2.28,-0.05 -4.57,0 -6.88,0.14 -0.83,50.34 21.81,84.4 55.86,118.1zm-603.99 1706.21l0 933.59c0,51.08 76.64,142.31 112.13,175.58 94.9,88.99 221.16,146.17 351.3,154.78 91.21,6.02 189.13,-12.56 275.26,-41.99 85.59,-29.23 281.64,-126.31 306.73,-221.48 0.52,-2.02 0.93,-4.23 0.93,-6.33l0 -994.14 -1046.34 0zm-79.21 -79.21l0 1012.8c0,78.61 82.88,182.46 137.15,233.35 108.27,101.51 251.84,166.27 400.25,176.04 101.61,6.71 210.12,-13.28 306.11,-46.08 115.2,-39.37 323.81,-147.74 357.69,-276.21 2.28,-8.65 3.55,-17.61 3.55,-26.55l0 -1073.35 -1204.76 0zm-132.03 -132.03l0 1144.83c0,120.39 94.76,250.79 178.85,329.67 130.57,122.43 302.99,199.67 481.9,211.47 119.04,7.86 244.99,-14.44 357.46,-52.88 163.21,-55.77 395.27,-187.8 442.7,-367.49 5.17,-19.68 7.91,-39.87 7.91,-60.22l0 -1205.38 -1468.82 0zm-198.03 -193.12l0 525.58c20.8,-0.64 34.18,5.13 53.15,22.4 15.06,13.71 30.19,31.42 28.07,53.26 -2.98,30.75 -17.29,54.48 -46.53,66.03 -0.93,0.37 -1.87,0.72 -2.81,1.05 29.32,9.3 58.87,31.34 66.1,62.18 8.18,34.87 -16.1,63.51 -42.81,82.25l-0.95 0.66 -1.12 0.29c-8.79,2.31 -17.73,4.6 -26.78,5.65 -7.91,0.92 -16.3,1.02 -24.6,0.92 6.34,9.22 10.41,20.45 12.7,30.78 3.82,17.27 5.43,49.1 -10.51,61.23 -1.27,0.97 -2.58,1.9 -3.91,2.81l0 422.86c0,179.34 114.84,355.43 241.45,474.15 163.97,153.78 379.63,249.77 604.29,264.6 145.19,9.59 297.28,-16.17 434.55,-63.1 231.71,-79.16 503.73,-252.68 570.14,-504.35 9.55,-36.2 14.47,-73.31 14.47,-110.75l0 -515.32c-3.21,-5.74 -5.43,-12.53 -6.41,-20.49l-0.02 -0.13 -0.01 -0.14c-1.05,-13.03 0.29,-26.98 4.37,-39.89 -15.18,7.18 -32.67,8.94 -49.6,4.39 -21.74,-5.83 -39.38,-21.12 -47.85,-42.03 -10.76,-26.55 -4.82,-55.82 7,-80.94 -5.72,-19.09 -5.76,-40.75 -4.85,-60.4l0.01 -0.27 0.03 -0.27c5.75,-43.64 28.95,-80.86 59.54,-111.56 11.57,-11.61 24.08,-22.17 37.18,-32.02l0.61 -0.46 0 -500.26c-11.79,-1.12 -25.98,-1.11 -35.12,-1l-0.24 4.27 -6.88 -0.88c-5.43,-0.69 -10.84,-1.63 -16.17,-2.88 -17.08,0.51 -34.16,1.22 -51.24,1.74 -17.51,0.54 -35.07,0.91 -52.59,0.6 -15.18,-0.27 -30.82,-0.99 -45.83,-3.34l-2.42 -0.38 -1.49 -1.8 -1390.25 0 -0.41 0.57 -57.26 0.11 -205.01 4.26zm-39.63 535.67l0 -398.67 -0.71 0.37c-12.87,6.64 -26.13,18.31 -36.65,28.2 -14.84,13.95 -28.83,29.12 -42.19,44.47 -20.56,23.62 -40.51,48.59 -58.77,74.04l-54.37 86.68c-0.65,1.48 -1.04,3.02 -1.25,4.63 -0.62,4.82 0.26,10.33 0.6,15.19 0.5,6.98 0.19,13.48 -2.72,19.98 -8.4,18.76 -36.52,28.21 -57,33.49 2.11,3.9 4.45,7.74 6.74,11.38 5.36,8.5 11.16,16.77 17.11,24.86 14.8,20.07 31.01,39.5 48.01,57.75 18.88,20.27 77.2,79.4 108.78,72.85 11.43,-6.81 21.33,-14.8 29.41,-25.47 6.1,-8.06 10.47,-16.89 16,-25.26 7.58,-11.44 16.4,-18.99 27,-24.48zm0 -563.24l0 -16.97 44.39 0c-14.4,-23.3 -16.97,-44.93 -17,-75.84 -16.06,-0.66 -33.15,2.01 -46.08,11.9 -10.33,7.9 -16.46,19.43 -17.19,32.4 -0.98,17.41 8.01,34.02 22.94,42.97 4.13,2.47 8.47,4.28 12.95,5.53zm118.6 -16.97l36.07 0c7.93,-4.92 13.74,-13.08 17.95,-21.73 7.49,-20.88 8.44,-48.37 -6.47,-66.36 -11.37,-13.7 -28.47,-17.17 -45.5,-15.48 -17.61,1.75 -39.18,7.77 -45.42,26.56 -6.12,18.44 4.64,40.78 16.14,54.86 6.83,8.37 16.49,16.98 27.24,22.14zm104.91 0l6.78 0c11.02,-0.59 21.65,-4.04 31.01,-10.88 12.57,-9.17 21.14,-23.33 23.44,-38.73 2.53,-16.95 -2.82,-33.19 -14.72,-45.41 -11.12,-5.91 -27.57,-12.42 -39.19,-4.64 -22.28,14.92 -18.76,71.72 -15.19,98.79 2.63,0.44 5.25,0.73 7.87,0.86zm97.97 0l1338.29 0 -6.27 -7.57 -0.19 -1.97c-1.17,-12.31 -0.41,-24.96 1.7,-37.12 4.14,-23.99 15.74,-55.57 35.71,-70.87 19.22,-14.73 41.71,-23.51 64.26,-10.43 7.2,4.18 13.24,9.87 18.9,15.91 2.47,2.64 5.29,6.01 8.15,8.89 24.21,-20.95 55.62,-37.77 86.8,-20.71 9.59,5.24 17.41,12.67 24.69,20.71 1.73,1.92 8.4,9.87 11.19,11.99 11.34,0.55 22.29,-0.22 33.62,-0.9 10.14,-0.6 20.6,-1.02 30.53,1.52 11.69,3 20.65,9.61 28.36,18.76 8.35,9.9 13.29,22.75 17.39,34.89 4.04,11.95 8.66,29.6 16.31,39.52 27.37,35.49 93.01,61.08 138.09,61.21 16.57,-22.3 23.65,-61.27 28.92,-90.34 -2.48,0.42 -4.95,0.91 -7.43,1.5 -3.55,0.85 -7.13,1.89 -10.77,2.24 -5.88,0.56 -11.19,-0.86 -16.67,-2.89l-2.9 -1.07 -0.98 -2.93c-2.34,-6.96 3.18,-21.94 5.57,-28.64 5.02,-14.09 10.92,-28.04 16.79,-41.81 4.66,-10.9 9.41,-21.76 14.1,-32.65 3.41,-7.9 6.94,-15.94 9.93,-24 31.35,-84.47 61.7,-172.35 108.54,-249.69 13.87,-22.89 32.36,-40.89 52.46,-58.24 18.33,-15.83 37.87,-30.98 53.95,-49.17 5.36,-6.06 10.31,-12.46 14.67,-19.28l0.09 -0.28 0.23 -0.31 0.17 -0.35 0.26 -0.25c1.02,-1.67 2.07,-3.33 3.14,-4.97l0.23 -0.35c29.6,-49.31 64.38,-75.2 123.18,-77.22l3.64 -0.12 1.99 3.06c7.53,11.57 13.03,23.13 16.77,36.4 1.47,5.21 3.12,14.38 5.99,18.8 2.99,4.62 9.2,6.73 14.21,8.15 14.15,3.99 31.67,5.56 46.28,7 30.42,2.99 71.76,8.23 99.34,22.38 16.16,8.3 24.01,17.32 33.13,32.5 8.18,13.64 13.88,21.44 28.36,29.31 58.31,31.69 131.77,33.25 196.23,42.55l4.89 0.71 0.59 4.91c5.8,47.72 -18.03,102.81 -45.81,141.67 17.95,10.3 36.47,20.22 55.43,28.46 12.42,5.4 25.94,10.54 39.26,13.18 12.16,2.41 27.45,3.47 36.59,-6.64 14.07,-15.56 10.77,-49.6 23.3,-69.27l5.79 -9.08 5.29 9.37c29.15,51.63 26.52,128.04 -39.37,148.18 -11.92,3.64 -24.09,4.98 -36.52,4.34 -48.99,-2.48 -92.88,-33.25 -141.77,-39.53 -6.65,30.32 -20.4,64.31 -36.43,89.98 -9.25,14.8 -18.05,14.36 -33.34,8.39 -12.04,-4.7 -20.08,-6.82 -31.94,-6.06 7.3,81.77 65.28,148.95 123.01,202.62l96 78.28c8.81,6.23 17.87,11.75 27.13,17.26 7.87,4.69 15.79,9.39 23.01,15.04 19.19,15 29.09,34.46 37.07,57.07l2.76 7.82 -31.87 2.96c7.79,6.64 16.81,12.33 25.26,17.19 15.45,8.88 31.74,16.52 47.73,24.38 31.53,15.47 75.91,37.02 90.27,71.22 3.6,8.58 5.22,17.61 4.95,26.9l-0.18 6.21 -6.21 0.06c-13.14,0.12 -26.3,-0.06 -39.43,0.13 -1.85,0.03 -7.33,0.08 -11.32,0.48 2.68,3.05 6.73,6.94 8.06,8.23 9.15,8.92 18.35,17.68 27.3,26.82 81.1,82.89 171.72,155.74 253.62,237.82 19.29,19.33 38.34,39.19 56.13,59.94 11.22,13.1 22.21,26.82 31.67,41.26 6.02,9.2 11.37,18.7 15.67,28.83 3.04,7.13 5.36,14.34 7.88,21.65 5.91,17.23 12.86,28.85 24.46,43.05 5.86,7.19 11.69,13.18 20.6,16.24 4.46,1.54 9.19,2.55 13.72,3.95 7.18,2.22 13.82,5.15 20.38,8.81 19.81,11.04 43.47,55.46 52.86,75.65 9.72,20.88 35.61,81.74 13.43,101.02 -3.92,3.41 -8.74,4.99 -13.88,5.24l-0.74 0.03 -24.45 -4.39c-4.86,-0.67 -9.75,-1.37 -14.62,-1.87 -0.49,-0.05 -1.18,-0.13 -1.91,-0.2 -0.41,2.35 -1.3,4.33 -3.38,6.83l-0.16 0.2 -0.17 0.18c-4.27,4.4 -7.5,9.46 -9.64,15.21 -9.37,25.18 3.95,59.51 14.48,82.5 8.08,17.63 17.46,34.49 26.38,51.69 5.05,9.75 14.39,27.28 14.43,38.3l0.02 4.51 -4.23 1.57c-13,4.82 -25.17,10.29 -38.6,14.17l-28.27 8.18c4.11,4.78 8.73,9.09 14.27,12.16 12.02,6.66 31.76,8.5 45.27,10.35l6.52 0.9 -1.02 6.5c-2.95,18.84 -13.21,39.76 -22.81,56.09 -10.37,17.64 -27.22,42.03 -43.35,54.9 -25.54,23.82 -65.9,22.23 -97.62,33.2 -9.77,3.38 -20.76,9.26 -23.37,20.16 -6.3,26.29 35.57,66.25 55.16,79.32 23.85,15.92 50.54,37.16 54.11,67.7 2.49,21.29 -6.46,46.24 -11.99,66.71 -8.98,33.22 -13.13,63.28 -11.05,97.86 2.91,48.31 -74.01,114.82 -107.67,142.86 -40.06,33.36 -82.82,64.11 -126.09,93.17 -18.01,12.1 -36.04,24.17 -54.02,36.31 -10.4,7.02 -20.84,14.05 -31.05,21.35 -5.98,4.27 -16.16,11.15 -20.01,17.64 -1.36,2.29 -2.5,4.82 -3.74,7.19 -2.28,4.37 -4.83,8.53 -7.6,12.62 -11.66,17.21 -26.78,34.08 -41.03,49.49 7.15,15.03 15.48,28.51 23.88,42.94 6.63,11.39 12.39,22.66 17.05,35.02 6.3,16.7 10.31,34.22 13.22,51.81 5.36,32.49 6.75,64.77 6.99,97.63 0.19,25.4 -0.17,50.77 0.62,76.15 1.79,-0.92 3.53,-1.88 5.18,-2.78 6.97,-3.85 13.81,-7.99 20.66,-12.06 21.76,-12.94 43.52,-25.34 66.07,-36.89 83.01,-42.51 172.47,-73.45 262.42,-97.48 14.71,-3.93 29.74,-6.76 44.35,-10.8 7.71,-2.14 17.89,-5.32 23.27,-11.62 10,-11.72 3.79,-37.75 0.56,-50.86l-2.94 -11.95 11.51 4.36c43.85,16.62 70.85,50.21 61.71,98.91 -1.21,6.46 -2.91,13 -5.78,18.94 -0.87,1.8 -2.93,4.89 -3.46,6.59 -0.92,2.9 7.28,21.08 8.47,23.82 9.4,21.76 16.45,34.96 17.2,59.73 2.35,77.73 -82.8,136.22 -146.76,161.77l-15.65 6.25 7.46 -15.12c16,-32.41 49.6,-69.02 39.15,-107.71 -1.18,-4.37 -3.18,-8.27 -6.21,-11.65 -8.07,-9 -22.17,-12.67 -33.64,-14.65 -17.01,-2.93 -35.02,-3.42 -52.26,-4.43 -27.2,-1.59 -53.96,1.23 -80.28,8.25 -40.61,10.82 -77.98,30.91 -112.66,54.29 -38.77,26.13 -75.02,56.69 -110.52,87.07 -39.14,33.49 -77.86,67.36 -118.6,98.91 -43.25,33.51 -88.47,64.2 -137.16,89.31 -107.36,64.49 -244.95,90.26 -369.02,83.04 -48.84,-2.84 -97.59,-10.79 -144.57,-24.5 -69.29,-20.22 -134.31,-48.34 -197.92,-82.25 -40.21,-21.44 -79.35,-44.79 -118.15,-68.66 -14.52,-8.94 -28.1,-19.94 -41.62,-30.32 -12.76,-9.79 -27.24,-20.77 -42.19,-28.01 -4.14,31.5 -18.04,60.3 -45.3,78.59 -44.22,29.66 -102.93,19.33 -146.99,-4.89l-8.76 -4.81 7.98 -6.01c12.56,-9.45 26.25,-14.34 41.02,-19.05 10.01,-3.19 22.86,-6.82 30.89,-13.8 7.53,-6.54 10.16,-15.45 10.87,-25.14 1.37,-18.56 -4.25,-41.5 -9.33,-59.2 -4.25,-14.82 -10.97,-29.16 -18.74,-42.44 -14.8,-25.28 -38.75,-55.01 -62.66,-72.29 -15.41,-11.14 -30.56,-23.08 -45.68,-34.63 -24.33,-18.58 -48.7,-37.1 -73.28,-55.36 -25.18,-18.71 -50.64,-37.37 -76.67,-54.89 -9.63,-6.48 -19.45,-12.93 -29.51,-18.73 -2.61,-1.51 -6.16,-3.55 -9.69,-5.29 -2.19,112.64 -54.41,184.9 -172.61,196.32l-10.9 1.05 4.34 -10.05c4.35,-10.07 10.1,-18.66 17.88,-26.38 6.02,-5.97 12.69,-10.77 19.25,-16.06 6.93,-5.59 12.66,-11.14 17.09,-18.97 6.22,-10.99 8.66,-24.29 9.7,-36.73 2.52,-30.19 -3.41,-60.33 -16.72,-87.51 -42.1,-86 -150.95,-135.99 -243.64,-111.47 -50.19,13.27 -102.33,41.14 -125.49,90.04 -14.98,31.63 -15.44,70.77 7.42,98.87 21.21,26.07 54.07,32.01 85.74,25.52 36.73,-7.53 56.49,-29.77 76.57,-59.4l15.6 -23.02 2.21 16.87c5.7,43.51 3.96,94.27 -28.92,127.4 -31.49,31.73 -81.68,37.35 -124.81,36.08 5.3,32.29 2.69,64.26 -6.81,95.79 -9.79,32.51 -26.3,62.71 -45.61,90.49 -23.23,33.4 -50.66,63.61 -78.69,93 -12.22,12.81 -24.61,25.49 -36.68,38.44 -9.69,10.4 -19.51,21.21 -27.98,32.63l-2.74 3.69 -4.39 -1.38c-52.8,-16.54 -118.3,-109.64 -152.12,-153.64 -22.94,-29.84 -44.58,-60.74 -58.52,-95.96 -15.22,-38.47 -19.12,-77.38 -10.67,-117.45 -95.32,3.81 -172.07,-22.96 -184.5,-131.01l-4.31 -37.52 16.54 33.95c8.03,16.48 18.55,28.7 35.98,35.66 25.69,10.27 58.23,8.83 83.53,-1.87 31.34,-13.25 50.02,-38.92 54.07,-72.62 1.03,-32.74 -7.91,-64 -30.29,-88.48 -24.39,-26.69 -59.85,-40.66 -94.96,-46.02 -39.98,-6.11 -82.7,-1.77 -121.17,10.4 -42.93,13.59 -84,38.06 -112.15,73.73 -35.3,44.74 -43.38,98.33 -30.92,153.2 10.82,47.67 26.45,63.85 68.07,87.25l9.57 5.38 -40.13 24.72 -1.12 0.23c-88.92,18.27 -166.75,-61.41 -190.33,-140.98 -24.11,3.86 -40.51,20.58 -58.8,35.78 -18.43,15.32 -37.3,29.92 -56.01,44.88 -21.2,16.96 -44.1,31.63 -65.13,48.64 -14.76,11.94 -27.69,24.74 -38.96,40.08 -29.76,40.49 -98.6,164.52 -36.43,202.54 17.7,10.82 40.89,-4.09 57.86,-10.52l9.23 -3.5 -0.5 9.87c-0.32,6.5 -1.99,12.73 -5.05,18.49 -14.43,27.22 -54.18,35.77 -82.29,36.69 -16.93,0.56 -35.06,-1.23 -51.29,-6.22 -63.82,-19.63 -65.6,-57.7 -80.68,-111.18 -27.92,22.47 -61.06,42.02 -92.15,58.78 -42.98,23.19 -87.91,43.66 -133.22,61.86 -31.32,12.58 -63.12,24.14 -95.28,34.4 -29.34,9.36 -59.21,17.74 -89.35,24.19 -182.22,39.01 -338.67,22.59 -501.99,-66.92 -32.88,-18.02 -64.83,-38.29 -96.57,-58.25 -35.5,-22.32 -70.98,-44.68 -107.38,-65.52 -59.34,-33.98 -126.97,-67.82 -194.55,-80.74 -29.85,-5.71 -61.24,-7.03 -91.51,-4.63 -89.94,7.15 -197.5,52.06 -178.84,160.88 2.4,14 6.06,34.71 17.78,44.3 5.39,4.41 12.83,7.51 19.16,10.34 11.11,4.98 21.5,10.06 31.9,16.47l9.02 5.56 -9.07 5.48c-21.85,13.2 -52.59,6.59 -74.89,-2.08 -17.21,-6.69 -36.18,-17.14 -49.98,-29.51 -54.61,-48.95 -59.95,-118.15 -47.64,-186.43 1.69,-9.38 3.93,-21.33 0.84,-30.65 -1.27,-3.83 -2.79,-7.43 -3.93,-11.34 -2,-6.91 -3.05,-14.09 -3.68,-21.25 -4.31,-48.51 20.48,-89.45 68.43,-101.2l13.03 -3.19 -5.63 12.18c-13.53,29.29 -8.38,46.54 11.63,68.74 20.56,1.48 45.81,-2.85 65.78,-6.23 29.73,-5.04 59.25,-10.9 89.18,-14.75 22.7,-2.93 45.83,-4.82 68.73,-4.01 52.04,1.84 102.04,9.2 152.58,21.59 17.85,4.38 35.56,9.29 53.18,14.51 -2.16,-10.57 -5.3,-20.72 -9.13,-30.98 -7.59,-20.37 -16.44,-39.58 -22.77,-60.52 -9.08,-30.02 -12.69,-60.28 -13.04,-91.6 -0.68,-63.34 11.12,-135.14 48.32,-188.03 -0.04,-4.07 0.36,-8.38 0.64,-12.35 0.43,-5.97 0.84,-11.94 0.83,-17.93 -0.01,-6.64 -0.5,-14.56 -2.99,-20.77 -2.48,-6.18 -5.57,-11.87 -8.5,-17.82 -5.51,-11.19 -8.2,-20.83 -9.43,-33.31 -2.18,-22.07 4.77,-41.32 13.56,-61.09 5.13,-11.52 14.64,-29.76 12.84,-42.57 -2.05,-14.61 -18.7,-23.59 -30.72,-28.98 -14.44,-6.48 -30.41,-11.15 -45.72,-15.04 -23.88,-6.07 -48.34,-10.65 -72.64,-14.67 -34.91,-5.78 -86.58,-17.98 -109.37,-48.07 -5.92,-7.82 -9.58,-16.37 -11.18,-26.02 -0.52,-3.12 -0.79,-6.22 -1.03,-9.38 -0.07,-0.95 -0.15,-2.94 -0.41,-4.01 -8.94,-11.69 -19.99,-19.51 -32.24,-27.38 -10.72,-6.88 -22.94,-14.07 -30.2,-24.84 -9.49,-14.08 -7.91,-30.68 -3.24,-46.09 -37.47,-16.47 -53.13,-41 -67.14,-80.07l-1.2 -3.35 2.19 -2.81c1.64,-2.11 4.05,-5.86 5.92,-7.65 0.93,-0.89 1.99,-1.56 3.05,-2.28 2.05,-1.38 4.05,-2.84 6.04,-4.33 0.6,-0.45 1.22,-0.93 1.86,-1.38 -11.21,-11.08 -21.1,-24.73 -28.56,-38.03 -11.81,-21.04 -19.52,-44.6 -20.48,-68.81l-0.32 -7.98 71.77 12.39c0.29,-14.86 -0.18,-29.47 -0.8,-44.4 -0.52,-12.51 -1.06,-25.35 0.94,-37.77 3.4,-21.09 14.15,-38.15 27.17,-54.67l1.87 -2.37 3.02 -0.09c21.47,-0.64 42.98,-0.29 64.45,-0.33 43.85,-0.08 111.69,-0.12 145.95,-31.57 6.79,-6.24 12.14,-13.5 16.13,-21.73 -7.08,-10 -16.21,-22 -27.04,-27.03 -7.18,-3.34 -15.37,-4.05 -23.18,-4.19 -13.37,-0.23 -27.33,1.01 -40.68,1.9 -20.85,1.39 -44.73,2.08 -65.27,-2.32 -14.13,-3.02 -26.9,-8.6 -36.73,-19.49 -10.68,-11.83 -15.98,-27.93 -20.27,-42.98 -5.86,-20.54 -10.66,-40.84 -17.63,-61.13 -3.27,-9.52 -6.52,-15.23 -11.8,-23.52 -4.99,-7.82 -7.72,-14.69 -9.98,-23.73 -2.27,-9.08 -2.92,-19.97 -3.49,-29.33 -0.52,-8.43 -0.81,-16.9 -1.44,-25.31l-0.59 -7.72 7.71 0.8c7.15,0.75 14.41,2.31 21.43,3.83 8.09,1.75 16.15,3.6 24.28,5.15 14.06,2.68 39.51,6.95 51.76,-2.6 7.81,-6.09 8.97,-16.87 8.53,-26.08 -0.23,-4.81 -1.49,-9.26 -4.4,-13.16 -6.06,-8.11 -18.09,-12.02 -27.51,-14.29 -14.51,-3.51 -30.02,-4.97 -44.83,-6.86 -13.36,-1.71 -27.07,-3.67 -40.01,-7.45 -94.34,-27.61 -147.32,-94.75 -148.42,-194.27 -0.52,-46.44 12.55,-98.6 35.47,-139.03 10.8,-19.06 24.08,-34.3 37.08,-51.62 4.08,-5.44 11.39,-14.82 11.79,-21.97 0.23,-4.19 -0.71,-9.46 -0.98,-13.76 -0.62,-9.8 0.14,-19.53 1.53,-29.24 4.15,-28.92 14.13,-51.93 35.79,-71.84 11.82,-10.87 25.52,-19.61 38.61,-28.84 14.9,-10.5 32.57,-22.77 43.52,-37.62 4.19,-5.67 7.8,-11.87 11.43,-17.91 5.78,-9.61 11.68,-19.04 17.96,-28.35l4.15 -6.14 5.52 4.95c7.11,6.37 12.83,13.62 17.08,22.19 5.07,10.2 7.59,21.3 9.31,32.49 1.7,11.09 2.72,22.36 3.89,33.55 27.07,-4.51 55.47,-19.52 77.55,-34.31 31.7,-21.24 60.9,-48.69 84.57,-78.58 35.77,-45.18 65.31,-104.69 59.44,-163.84 -8.64,2.62 -16.66,6.29 -24.73,10.72 -13.87,7.62 -26.73,16.26 -41.1,23.12 -19.84,9.47 -40.06,14.77 -61.89,17.28 -56.02,6.44 -104.9,-13.01 -149.13,-45.97 -25.75,-19.19 -50.96,-39.19 -76.86,-58.14 -18.54,-13.57 -37.7,-26.57 -58.66,-36.15 -37.44,-17.1 -77.76,-21.04 -118.46,-22.25l-14 -0.42 9.4 -10.38c32.72,-36.13 95.64,-47.64 144,-52.83 -11.56,-44.33 -21.36,-89.08 -35.95,-132.58 -7.09,-21.13 -16.52,-39.01 -30.12,-56.6 -9.25,-11.96 -20.74,-23.66 -28,-36.89 -1.81,-3.31 -3.37,-6.75 -4.63,-10.31l-2.52 -7.17 7.49 -1.33c55.77,-9.93 114.06,8.77 155.13,47.42 4.6,4.34 8.98,8.91 13.1,13.7l-4.09 -43.17 12.18 10.55c19.42,16.8 38.59,32.27 61.25,44.63 28.69,15.63 59.23,24.33 91.58,28.43l0.37 0.05 0.36 0.09c48.4,11.85 105.85,24.72 145.35,56.62 36.01,29.08 52.32,69.44 59.68,114.15 5.33,32.37 16.35,61.45 29.1,91.44 11.31,26.58 23.74,53.57 29.57,82 10.46,50.97 -4.19,94.06 -32.1,136.79 -21.44,32.82 -49.19,63.03 -77.18,90.33 -42.04,41 -88.24,78.81 -134.75,114.59 -7.28,5.6 -14.59,10.26 -22.45,14.94 -10.65,6.34 -19.68,12.39 -29.26,20.38 -49.44,41.19 -156.96,122.29 -174.07,184.42 -6.56,23.82 -1.28,46.79 12.35,67.01 10.84,16.08 27.9,31.32 45.56,39.53 46.63,21.71 97.28,10.81 143.69,-5.43 77.27,-27.03 153.83,-83.75 209.82,-142.78 29.62,-31.22 54.66,-66.31 81.2,-100.09 12.73,-16.2 25.91,-31.93 38.27,-48.45 10.21,-13.65 23.62,-32.2 30.38,-48.73 -5.71,-4.07 -11.24,-6.5 -18.05,-9.53 -8.64,-3.84 -15.29,-7.73 -22.18,-14.37l-5.06 -4.88 5.28 -4.63c11.85,-10.39 24.5,-19.14 37.71,-27.69 11.18,-7.23 22.66,-14.29 33.05,-22.62 10.46,-8.38 19.12,-17.65 26.13,-29.12 14.17,-23.17 20.5,-51.55 23.97,-78.2 4.13,-31.64 4.77,-64.02 5.9,-95.89 3,-84.38 6.94,-185.11 95.56,-223.39l-22.02 -40.43 10.85 -0.03c54.93,-0.15 106.85,-19.45 147.19,-56.94 39.97,-37.15 64.77,-73.39 23.64,-120.39 -31.41,-3.14 -57.83,-0.55 -88.29,8.31 -14.43,4.19 -28.63,9.24 -42.94,13.81 -9.42,3 -19.59,3.31 -27.39,-3.63 -11.08,-9.85 -11.02,-27.76 -11.87,-41.36 -0.23,-3.79 -0.5,-7.59 -0.66,-11.38 -0.78,-18.5 2.4,-36.23 6.46,-54.08 -11.68,1.38 -23.31,5.13 -34.13,9.2 -15.79,5.93 -31.12,12.98 -46.96,18.8 -42.28,15.53 -79.61,18.31 -119,-8.32 -18.92,-12.79 -34.28,-38.24 -42.55,-59.1 -16.5,-41.56 -17.26,-95.68 36.58,-106.54l10.61 -2.14 -3.15 10.35c-5.78,19.03 -11.43,47.84 4.98,63.5 22.77,21.72 76.84,10.01 103.48,2.52 22.51,-6.33 45.79,-15.01 67.02,-25.37 -5.54,-11.32 -11.31,-22.77 -15.68,-34.48 -4.29,-11.51 -7.49,-24.31 -4.57,-36.54 5.56,-23.28 31.23,-34.66 51.78,-41.38 42.26,-13.82 94.4,-35.57 127.65,-65.04 3.16,-2.8 6.5,-5.39 10,-7.76 21.22,-14.39 47.12,-20.11 72.29,-22.49 27.86,-2.62 56.42,-1.47 84.36,-0.53 18.55,0.62 37.18,1.26 55.74,0.82 9.1,-11.19 18.95,-24.08 23,-37.85 5.75,-19.53 -0.82,-39.94 -8.63,-57.91l-5.13 -11.8 12.53 2.93c92.59,21.66 102.3,23.67 113.84,118.23 31.88,14.08 63.43,29.74 89.13,53.71 18.11,16.89 33.67,37.5 48.98,56.92 30.46,38.62 82.42,98.56 138.68,81.54l8.5 -2.57 -0.16 8.87c-0.82,45.24 -35.33,45.97 -62.93,67.63 12.03,31.62 27.62,62.39 41.34,93.31 9.9,22.3 19.28,45.11 26.14,68.55l1.31 4.47 -42.88 29.71 30.93 132.15c30.46,-3.74 48.48,-21.25 74.2,-36.95 7.91,-4.83 15.92,-8.8 24.1,-13.07 4.48,-2.34 9.87,-5.19 13.24,-9.04 6.21,-7.11 6.09,-19.97 5.82,-28.78 -0.69,-21.57 0.88,-46.67 10.69,-66.32 6.97,-13.98 17.46,-23.91 31.97,-29.7 8.53,-3.4 17.64,-5.07 26.74,-5.95 9.45,-0.92 18.9,-0.98 28.36,-1.4 7.09,-0.31 15.36,-0.79 22.12,-3.06 4.78,-1.61 9.02,-4.03 13.24,-6.77 9.64,-6.26 17.09,-11.88 28.43,-15.26 16.79,-5 35.35,-2.8 52.13,1.07 9.92,2.29 19.13,5.67 27.77,11.1 4.13,2.59 8.53,6.4 12.73,8.67 2.84,0.72 5.87,1.41 8.78,1.41 6.69,0.01 15.85,-4.47 21.79,-7.21 33.71,-15.56 64.76,-5.19 87.52,22.83 22.51,27.72 26.81,67.64 17.05,102.46zm1387.54 0l34.24 0 -5.51 -81.07c-14.99,-0.14 -29.06,5.31 -37.63,18.54 -9.22,14.21 -8.81,32.67 -1.53,47.6 2.75,5.63 6.3,10.59 10.43,14.93zm92.19 0l56.31 0c0.09,-5.84 0.23,-11.67 0.56,-17.49 0.91,-16.64 3.65,-31.85 8.68,-47.76 1.59,-5.04 1.86,-10.38 -1.06,-15 -3.99,-6.31 -12.39,-9.16 -19.44,-9.97 -9.96,-1.14 -20.6,1.07 -29.4,5.82 -28.09,15.15 -28.27,47.46 -19.9,74.58 1.09,3.54 2.53,6.81 4.27,9.82zm104.6 0l38.34 0 0 36.04c5.99,3.57 11.31,8.09 16.18,13.33 12.74,-20.95 24.38,-47.88 21.03,-71.9 -2,-14.38 -10.03,-27.82 -24.83,-31.58 -12.32,-3.13 -24.47,1.9 -33.08,10.77 -10.95,11.28 -15.91,27.53 -17.64,43.34zm38.34 307.77l0 208.56c6.82,-4.12 13.74,-8.07 20.83,-11.69 28.57,-14.61 57.35,-22.03 88.89,-27.22 38.13,-6.27 76.47,-12.19 113.97,-21.69 -1.61,-1.93 -3.27,-3.82 -4.96,-5.71 -6.88,-7.65 -13.51,-14.9 -19.81,-23.09 -13.03,-16.97 -10.95,-20.81 -26.64,-27.73l-4.24 48.96 -7.43 -1.96c-34.96,-9.26 -56.86,-29.27 -75.49,-59.33 -7.03,-11.34 -13.08,-23.24 -20.04,-34.61 -5.55,-9.06 -12.13,-18.45 -20.84,-24.74 -8.62,-6.22 -18.23,-8.53 -28.78,-8.34l-2.51 0.05 -12.95 -11.46zm0 645.58l0 489.7c-9.99,460.17 -597.54,748.36 -1061.4,717.73 -25.76,-1.7 -51.21,-4.44 -76.31,-8.09 22.39,10.84 43.83,23.68 64.24,38.05 29.42,20.71 56.28,44.3 81.73,69.69 8.48,8.47 16.73,17.12 25.1,25.69 2.22,2.27 6.14,6.5 9.52,9.45 34.44,-27.59 66.48,-58.28 101.7,-84.74 31.88,-23.95 64.58,-42.44 102.64,-54.79 48.98,-15.89 101.12,-19.89 152.34,-18.4l0.13 0c278.1,13.81 519.91,291.92 806.32,161.58 70.87,-32.25 100.09,-104.14 91.71,-178.62 -3.28,-29.15 -12.63,-59.17 -28.48,-83.99 -13.03,-20.4 -31.78,-39.06 -55.64,-45.8 -2.34,-0.66 -4.7,-1.2 -7.09,-1.61 -5.04,61.21 -70.83,99.71 -127.13,105.02 -8,0.76 -16.05,0.73 -24.03,-0.04 -54.65,-5.26 -103.05,-44.12 -127.04,-92.44 -28.84,-58.07 -20.14,-121.09 19.39,-171.85l0.12 -0.15c6.25,-7.55 13.26,-14.72 21.5,-20.11 5.24,-3.43 10.34,-5.56 15.92,-8.21 11.4,-5.42 17.15,-13.33 23.53,-24.07 6.71,-11.3 13.88,-23.34 21.84,-33.81 3.32,-4.37 6.35,-7.59 10.31,-11.31 5.17,-4.86 8.81,-11.21 12.32,-17.32 12.39,-21.56 27.29,-46.59 49.03,-59.89 12.36,-7.56 26.33,-11.37 40.4,-14.25 20.45,-4.2 41.55,-6.97 62.17,-10.34 57.26,-9.38 114.38,-25.64 164.45,-55.65 32.26,-19.33 62.08,-45.94 64.99,-85.77 2.73,-37.44 -18.94,-79.42 -34.79,-112.36 -3.79,-7.88 -7.57,-15.78 -11.18,-23.75 -3.81,-8.39 -7.32,-16.82 -10.78,-25.34 -0.55,-1.35 -2,-5.2 -3.14,-7.43 -0.41,0.15 -0.81,0.32 -1.1,0.43 -2.19,0.84 -4.36,1.67 -6.59,2.4 -8.01,2.63 -16.3,4.07 -24.69,4.81l-6.8 0.61 -0.23 -6.83c-0.44,-13.25 -0.87,-26.68 -2.02,-39.89 -0.64,-7.39 -1.59,-14.59 -3.33,-21.81 -1.52,-6.3 -3.52,-12.51 -5.45,-18.69 -3.16,-10.13 -6.21,-20.26 -9.06,-30.48 -21.13,-75.79 10.81,-149.45 60.88,-205.57 11.56,-12.96 23.28,-26.08 36.29,-37.62 10.49,-9.3 21.69,-17.32 33.4,-24.87 -1.88,-2.69 -3.75,-5.39 -5.57,-8.1 -0.83,-1.23 -1.65,-2.58 -2.52,-3.78 -0.66,-0.9 -1.47,-1.8 -2.19,-2.65 -2.67,-3.15 -5.32,-6.32 -7.96,-9.49 -15.06,-18.15 -25.78,-38.18 -36.1,-59.24 -9.02,-18.41 -17.74,-37.63 -29.8,-54.29 -13.11,-18.11 -28.74,-30.86 -49.46,-39.47 -29.77,-12.36 -65.7,-14.29 -97.51,-13.21 -32.92,1.11 -86.01,7.64 -92.67,48.33 -1.85,11.29 0.04,23.17 3.1,34.09 1.26,4.5 2.76,8.9 4.3,13.31 0.95,2.72 2.47,6.6 2.66,9.25 2.17,21.19 -0.43,43.81 -15.56,60 -4.67,5 -10.03,8.88 -15.94,12.28 -3.13,1.79 -7.59,3.76 -10.38,5.84 -14.96,11.16 -42.53,17.66 -60.83,19.12 -9.93,0.79 -19.93,0.5 -29.26,-1.25zm-1299.22 1162.02c-235.55,-75.38 -427.88,-231.89 -539.43,-407.06l-33.02 4.8c-0.69,4.99 -0.85,10.15 0.85,14.88 1.2,3.34 3.17,6.64 4.91,9.73 2.97,5.3 5.69,10.55 8.1,16.14 2.28,5.28 4.42,10.69 6.1,16.19 0.43,1.43 0.87,3.51 1.38,5.02 1.23,0.72 3.05,1.5 4.16,2.08 4.65,2.4 9.17,5.06 13.61,7.83 6.51,4.07 12.86,8.44 18.71,13.43 22.29,19.02 30.94,42.33 22.93,71.43l-0.95 3.46 -3.44 1.02c-14.56,4.33 -27.84,4.6 -42.75,2.45 -8.99,-1.29 -20.15,-4.1 -29.12,-3.1 -4.86,0.54 -9,2.18 -12.96,4.96 -0.47,0.54 -1.11,1.37 -1.12,1.83 -0.03,2.24 9.64,13.59 11.25,15.71 10.57,13.97 17.31,28.53 21.51,45.57 11.32,45.91 12.06,95.1 -7.41,138.97 -15.75,35.49 -43.22,63.48 -78.65,79.44 -29.12,13.12 -61.66,17.14 -93.16,12.13 -34.5,-5.48 -65.96,-21.34 -91.86,-44.64 -27.01,-24.31 -44.84,-58.89 -50.22,-94.73 -3.04,-20.25 -2.53,-48.35 9.46,-67.21 -37.64,-1.73 -65.63,8.64 -89.71,40.92 -36.11,48.42 -53.18,106.94 -41.79,166.89 16.59,87.31 86.45,149.81 168.08,177.57 52.55,17.87 109.07,21.81 164.06,16.16 71.37,-7.34 141.07,-30.66 205.35,-61.98 31.48,-15.34 62.01,-32.77 92.29,-50.34 31.97,-18.57 63.77,-37.41 96.26,-55.06 67.3,-36.55 137.29,-67.68 213.44,-79.96 17.75,-2.86 35.48,-4.38 53.16,-4.55zm-593.49 -507.28c-33.54,-75.53 -51.62,-152.27 -51.44,-225.6l0 -405.67c-49.58,12.2 -110.32,-0.93 -133.64,-45.79 -9.86,-18.96 -10.83,-43.65 -10.8,-64.64 0.02,-15.28 0.85,-30.83 -0.03,-46.06 -0.53,-9.33 -1.94,-22.63 -7.96,-30.21 -18.25,-23.01 -88.42,-42.77 -117.61,-52.42 -22.94,-7.59 -58.72,-17.87 -83.03,-11.67 -14.71,3.76 -21.81,12.23 -31.67,22.77 -3.49,3.73 -7.06,7.33 -11.07,10.49l-8 6.31 -11.07 -47.64 -96.38 -1.84c-41.44,58.09 -137.1,109.14 -202.37,133.81 -14.57,5.51 -28.8,9.48 -43.81,13.4 -7.56,1.98 -17.17,4.3 -23.6,8.88 -0.88,0.63 -1.71,1.31 -2.49,2.02l31.47 12.82c27.13,3.71 54.37,6.53 81.74,7.47 17.12,0.59 34.15,0.21 51.25,0.55 22.85,0.45 43.74,3.19 66.1,8.05 16.92,3.67 33.7,8.2 50.32,13.03 23.86,6.93 47.55,14.56 71.11,22.42 11.98,4 25.59,4.42 38.13,4.78 18.8,0.53 39.23,0.62 56.14,9.94 9.81,5.41 18.24,12.55 25.13,21.38 44.87,57.46 13.43,171.48 9.97,239.38l-0.48 9.45 -66.96 -30.15c-1.86,4.92 -3.35,10.12 -4.73,15 -2.95,10.43 -5.65,20.94 -8.64,31.37 -9.29,32.46 -20.83,63.25 -35.37,93.76 -19.08,40.03 -53.24,81.66 -57.12,126.76 18.85,18.7 40.51,33.38 60.72,50.46 20.03,16.93 38.77,36.18 57.65,54.41 21.7,20.95 43.95,41.5 68.15,59.55 46.2,34.46 98.99,58.83 157.94,50.56 12.1,-1.7 21.71,-6.44 29.93,-15.5 8.81,-9.71 14.79,-22.75 21.15,-34.15 2.9,-5.19 5.96,-10.29 9.46,-15.1 17.05,-23.39 39.72,-31.11 68.13,-30.24 12.87,0.39 25.78,1.7 34.94,11.67 4.06,4.42 6.42,8.33 11.51,11.97 2.21,1.58 4.69,2.99 7.33,4.24zm858.52 -606.86l0 261.01 0 30.11c0,21.51 5.33,37.91 16.17,48.75 10.85,11.07 26.85,16.61 48.13,16.61 31.58,0 60.46,-7.18 87.08,-21.33 26.64,-14.12 46.92,-34.61 61.06,-61.65 14.12,-26.83 21.32,-56.96 21.32,-89.93 0,-37.89 -8,-71.9 -23.76,-102.01 -15.99,-30.14 -39.34,-51.44 -70.48,-63.72 -31.16,-12.29 -77.66,-18.25 -139.52,-17.83zm0 -46.72c57.36,0 99.76,-6.33 127.01,-19.25 27.27,-12.69 48.15,-30.73 62.71,-54.1 14.54,-23.13 21.89,-52.84 21.89,-88.9 0,-36.06 -7.14,-65.55 -21.49,-88.52 -14.33,-23.12 -34.82,-40.52 -61.67,-52.62 -26.63,-12.09 -69.45,-17.83 -128.45,-17.42l0 320.8zm218.79 16.21c77.66,18.01 132.34,39.93 163.7,65.55 45.06,36.45 67.62,83.78 67.62,141.98 0,61.24 -24.59,112.04 -73.98,152.19 -60.43,48.55 -148.31,72.72 -263.44,72.72l-413.84 0 0 -20.9c37.71,0 63.29,-3.47 76.62,-10.64 13.52,-6.95 22.94,-16.18 28.28,-27.46 5.5,-11.24 8.17,-39.13 8.17,-83.59l0 -529.78c0,-44.46 -2.67,-72.29 -8.17,-83.78 -5.34,-11.47 -14.98,-20.69 -28.47,-27.66 -13.74,-6.74 -39.13,-10.26 -76.43,-10.26l0 -20.88 390.49 0c93.42,0 159.39,8.4 198.29,25 38.92,16.57 69.47,41.37 92,74.35 22.33,33.01 33.6,68.22 33.6,105.3 0,39.33 -14.35,74.19 -43.03,104.9 -28.69,30.53 -79.07,54.91 -151.4,72.95zm-2229.15 1204.12c3.95,2.66 7.97,5.22 11.98,7.62 3.12,1.86 14.48,8.31 19.45,9.01 1.14,-5.33 1.41,-12.12 1.44,-17.26 0.01,-2.69 -0.17,-10.18 -1.05,-15.25 -7.62,6.76 -20.44,12.21 -31.83,15.88zm-176.73 41.48c3,3.72 6.1,7.35 9.23,10.81 2.43,2.7 11.39,12.22 15.94,14.34 2.66,-4.76 4.91,-11.16 6.46,-16.07 0.8,-2.56 2.83,-9.77 3.49,-14.87 -9.3,4.23 -23.14,5.64 -35.12,5.78zm283.58 -201.67c4.69,-0.82 9.37,-1.76 13.92,-2.82 3.53,-0.82 16.2,-4.04 20.27,-6.99 -2.87,-4.64 -7.38,-9.71 -10.93,-13.44 -1.85,-1.95 -7.18,-7.22 -11.32,-10.27 -0.81,10.17 -6.27,22.98 -11.94,33.53zm4726.25 538.23c11.16,-10.71 21.6,-23.39 26.84,-37.31 4.58,-12.18 4.66,-23.8 1.07,-36.21 -3.35,-11.6 -9.35,-22.27 -14.74,-33 -5.27,-10.52 -10.52,-22.03 -10.4,-34.04 0.07,-6.96 1.2,-12.67 3.48,-19.2 1.49,-4.27 3.08,-8.29 4.14,-12.71 0.73,-3.08 1.22,-6.21 1.52,-9.36 -1.09,0.68 -2.18,1.41 -3.3,2.18 -5.39,3.75 -10.16,7.17 -16.06,10.2 -10.01,5.15 -21.21,8.72 -32.05,11.65 -24.64,6.65 -49.05,14.08 -73.54,21.24 -80.1,23.44 -155.93,58.25 -229.93,96.45 -29.6,15.28 -58.87,31.18 -88.48,46.42 -11.78,6.06 -23.65,12.04 -35.7,17.55 -9.57,4.38 -19.46,8.6 -29.49,11.82l-12.16 3.9 4.07 -12.11c2.87,-8.54 6.47,-16.64 10.13,-24.86 9.82,-22.06 14.7,-38.03 15.47,-62.62 2.52,-79.27 -13.99,-178.41 -60.63,-244.49l-65.89 30.67c1.22,3.24 2.62,6.4 4.17,9.5 9.34,18.69 24.04,35.74 35.5,53.34 16.19,24.86 26.12,49.39 30.5,78.89 16.6,111.83 -47.8,230.15 -134.73,296.97 -15.21,11.7 -30.35,23.53 -45.91,34.77 -25.94,18.75 -52.18,34.71 -80.91,48.87 -66.98,33.03 -148.77,53.73 -222.97,60.2 -84.56,7.38 -181.45,-1.95 -251.83,-53.74 -11.15,-8.2 -21.53,-17.41 -30.94,-27.57 -18.7,-20.19 -31.14,-43.24 -30.26,-71.34 0.85,-27.22 14.25,-55.32 25.52,-80.98 -15.47,3.96 -30.58,10.56 -40.04,23.89 -6.5,9.15 -10.17,20.69 -13.3,31.36 -4.53,15.39 -8.52,30.52 -14.11,45.62l-1.35 3.66 -3.87 0.5c-55.17,7.21 -110.78,-25.2 -149.66,-61.66 -17.38,-16.3 -36.16,-34.9 -44.87,-57.54 -10.11,-26.29 -5.37,-55.64 2.14,-82.43 -17.28,9.67 -33.24,31.23 -43.29,45.42l-2.24 3.16 -3.84 -0.49c-72.16,-9.11 -178.74,-106.58 -233.98,-154.08 -21.98,-18.9 -55.33,-33.71 -62.08,-64.75l-2.46 -11.3 10.91 3.83c23.85,8.37 47.49,17.33 71.33,25.69 14.96,5.25 30.19,10.24 45.86,12.86 19.02,3.17 37.99,2.58 57.13,1.05 33.96,-2.7 68.38,-7.72 102.16,-12.18 30.73,-4.06 62.21,-8.58 93.14,-10.5 20.58,-1.28 40.84,-1.14 61.07,3.29 17.28,3.79 33.41,10.45 49.27,18.15 17.61,8.55 34.93,18.17 52.11,27.77 -3.53,-11.99 -8.66,-23.57 -16.39,-33.36 -8.08,-10.23 -17.89,-17.11 -29.3,-23.18 -11.62,-6.18 -23.79,-11.13 -35.25,-17.69 -13.77,-7.89 -25.12,-17.29 -34.57,-30.15l-0.59 -0.79 -0.32 -0.94c-3.83,-11.16 7.06,-32.46 12.01,-42.31 10.17,-20.21 21.82,-39.93 32.84,-59.7 7.83,-14.05 15.59,-28.25 22.51,-42.78 5.21,-10.95 10.8,-23.58 13.4,-35.45 6.24,-28.39 12.66,-63.37 9.74,-92.56 -1.71,-17.08 -6.36,-29.4 -15.34,-43.84 -5.38,-8.66 -11.15,-16.88 -16.05,-25.86 -5.41,-9.93 -9.46,-20.08 -12.48,-30.82 -2.02,0.69 -4.04,1.39 -6.05,2.11 -18.77,6.63 -35.28,12.61 -54.26,15.72 7.3,8.82 14.99,17.38 22.37,26.12 10.88,12.88 21.14,26.11 29.58,40.75 22.29,38.63 26.83,79.34 19.93,123.04 -42.68,270.25 -354.69,241.41 -545.35,163.08 -20.75,-8.53 -41.35,-17.41 -61.9,-26.41 -56,-24.51 -111.85,-50.01 -169.4,-70.71 -54.46,-19.58 -111.13,-35.01 -169.11,-38.67 -77.78,-4.91 -148.51,12.15 -216.15,50.85 -11.48,6.57 -22.59,14.64 -33.05,22.73 -12.74,9.86 -25.07,20.34 -37.03,31.13 -14.06,12.68 -27.78,25.91 -40.78,39.68 -9.57,10.14 -19.83,21.43 -27.7,32.96l-4.16 6.09 -5.49 -4.92c-55.25,-49.59 -105.13,-107.89 -167.88,-148.42 -71.37,-46.09 -171.66,-58.37 -254.23,-42.47 -40.18,7.73 -78.21,20.27 -115.28,37.54 -33.41,15.56 -64.82,34.35 -96.02,53.87 -33.13,20.73 -65.83,41.91 -100.27,60.45 -38.49,20.71 -77.89,37.36 -120.04,49.12 -60.45,16.87 -123.38,28.42 -186.2,30.37 -49.76,1.54 -100.54,-2.99 -148.43,-17.09 -75.24,-22.16 -141.31,-68.11 -173.37,-141.62 -14.62,-33.52 -20.61,-69.66 -19.02,-106.12 1.76,-40.26 12.66,-79.62 29.44,-116.13 23.21,-50.49 66.04,-84.66 119.92,-97.3 18.92,-4.44 39.56,-6.21 58.97,-3.96 -2.97,-3.61 -5.33,-7.64 -7,-12.37 -2.69,-7.61 -3.41,-16.28 -5.05,-24.22 -2.27,-10.99 -5.98,-20.99 -10.92,-30.91 -81.22,5.48 -168.73,74.01 -193.46,150.99 -21.89,68.12 -21.31,131.49 -5.06,200.44 2.63,11.17 5.59,22.24 8.58,33.32 2.49,9.23 5.04,18.51 7.07,27.84 2.75,12.62 5.84,29.95 -2.29,41.24 -0.99,1.37 -2.12,2.63 -3.37,3.76 -5.86,5.28 -24.3,8.8 -32.16,10.72 -17.13,4.17 -33.87,8.91 -49.98,16.19 -40.55,18.32 -65.09,47.5 -72.83,89.71 13.55,-8.35 26.59,-17.32 40.21,-25.64 36.14,-22.08 68.86,-30.68 110.94,-35.11 37.34,-3.94 68.26,-2.25 103.69,10.39 12.54,4.48 24.8,9.79 37.15,14.76 14.65,5.89 29.31,11.17 44.52,15.51 35.33,10.08 71.54,18.62 108.07,22.97 28.47,3.39 56.4,3.96 84.98,1.77 26.81,-2.06 53.42,-6.34 79.9,-10.91 32.17,-5.56 64.21,-11.4 96.48,-16.34 0.17,-0.09 0.34,-0.18 0.51,-0.27 3.81,-1.84 6.12,-0.19 9.41,1.08l2.99 0.93 1.1 2.98c11.77,31.84 -2.61,34.06 -26.06,49.84 -20.13,13.53 -39.46,28.53 -58.42,43.65 -21.04,16.78 -41.77,33.96 -62.7,50.89 -26.08,21.09 -52.59,42.02 -80.31,60.92 -24.03,16.38 -50.54,32.4 -77.94,42.42l-7.94 2.9 -0.72 -8.42c-3.22,-37.59 -21.01,-59.01 -53.24,-71.68 8.22,83.77 -31.93,152.53 -101.13,199.56 -28.03,19.05 -60.59,34.25 -93.37,43 -19.23,5.14 -50.51,10.93 -69.77,3.79l-5.29 -1.96 1.23 -5.51c2.96,-13.28 6.75,-27.57 7.33,-41.19 0.85,-19.84 -6.09,-37.41 -14.94,-54.83 -12.82,-25.22 -27.34,-44.72 -52.48,-55.76 3.21,17.04 6.83,34.07 9.4,51.16 2.52,16.73 3.91,33.96 0.42,50.65 -4.55,21.73 -16.64,38.82 -32.35,54.06 -8.04,7.79 -16.71,14.91 -25.9,21.3 -33.55,23.36 -72.9,36.54 -113.04,42.86 -42.34,6.67 -86.34,5.94 -128.8,0.67 -72.58,-9.01 -154.69,-33.44 -217.9,-70.84 -86.49,-51.18 -159.02,-130.76 -200.49,-222.4 -14.5,-32.05 -28.43,-66.39 -35.99,-100.84 -5.77,-26.31 -7.56,-52.28 -2.84,-78.91 8.53,-48.16 38.47,-93.93 65.22,-133.96l2.96 -4.43 4.92 2.07c30.85,12.96 44.25,41.24 66.17,64.2 54.73,57.33 86.92,64.09 163.54,47.13 90.02,-19.92 130.47,-132.25 83.74,-208.93 -10.4,-17.07 -22.91,-32.13 -39.1,-44.01 -31.81,-23.33 -74.17,-30.78 -113.03,-34.59 1.51,10.93 3.08,21.85 4.51,32.79 1.49,11.37 2.87,22.88 3.44,34.34 0.79,16.12 0.29,36.39 -11.29,49 -2.81,3.06 -6.13,5.52 -9.84,7.41 -7.87,4 -16.19,6.12 -25.04,5.99 -18.52,-0.26 -36.61,-10.48 -52.17,-19.65 -17.83,-10.5 -34.68,-21.01 -53.59,-29.15 -0.64,3.79 -0.97,7.87 -1.25,11 -0.78,8.86 -1.28,17.74 -2.14,26.6 -1.46,15.11 -4.28,38.22 -16.11,48.98 -11.05,10.05 -26.42,13.5 -40.9,14.73 -10.75,0.91 -21.38,0.59 -32.14,0.64 -2.65,0.01 -13.25,0.09 -15.79,1.6 -41.6,83.3 -57.1,171.38 -21.37,259.58 11.44,28.23 26.85,53.49 44.32,78.31 6.61,9.4 13.48,18.63 19.99,28.09 4.61,6.69 9.87,14.56 12.69,22.19l2.29 6.21 -6.25 2.14c-18.19,6.23 -61.44,-9.76 -79.28,-16.13 -11.16,-3.98 -22.25,-8.15 -33.38,-12.19 -8.76,-3.18 -17.74,-6.46 -26.72,-8.99 -49.54,-13.98 -102.12,-21.23 -153.31,-25.98 -45.31,-4.21 -84.36,2.44 -127.77,14.29 -28.81,7.86 -64.42,20.2 -94.36,15.11 -19.07,-3.24 -34.36,-12.89 -47.32,-25.91 0.29,2.7 0.7,5.41 1.23,8.14 1.29,6.63 3.28,13 4.91,19.53 2.17,8.66 3.21,16.59 2.62,25.55 -0.93,14.34 -3.98,29.11 -6.3,43.31 -2.62,16.11 -4.79,32.45 -4.51,48.81 0.56,33.51 11.68,59.46 36.67,78.99 -5.67,-48.98 -0.12,-99.85 31.47,-139.79 18.09,-22.88 42.2,-39.08 68.82,-50.49 87.93,-37.7 172.31,-39.48 262.78,-8.89 71.66,24.23 137.65,60.56 202.13,99.62 62.15,37.64 123.13,78.06 187.77,111.35 96.17,49.53 199.05,71.69 307,67.54 94.46,-3.63 187.04,-27.12 274.62,-61.93 72.61,-28.86 141.3,-65.32 208,-105.83 22.93,-13.93 45.5,-28.37 68.29,-42.51 7.75,-4.81 15.56,-9.61 23.53,-14.03 5.05,-2.8 11.01,-6.02 16.55,-7.68l7.53 -2.25 0.75 7.82c1.93,20.06 2.27,40.19 4.15,60.2 1.44,15.22 3.98,31.57 11.53,45.09 10.28,18.38 28.52,28.14 47.93,33.99 -1.04,-1.47 -2.1,-2.93 -3.17,-4.4 -3.62,-4.96 -7.3,-9.91 -10.38,-15.22 -10.1,-17.37 -11.01,-36.25 -10.38,-55.9 2.42,-76.44 56.71,-151.24 117.35,-193.99 15.6,-11 30.8,-24.26 45.27,-36.72 19.53,-16.84 38.82,-33.94 58.35,-50.78 23.06,-19.87 46.67,-39.91 71.31,-57.8 14.32,-10.39 38.68,-27.32 56.41,-29.88l4.34 -0.62 2.19 3.8c11.22,19.54 18.52,39.47 25.6,60.73 5.47,16.42 10.93,34.05 20.12,48.81 15.71,25.22 40.87,36.8 68.25,43.32 -1.53,-1.8 -3.15,-3.59 -4.86,-5.42 -9.52,-10.22 -15.89,-18.19 -22.24,-30.89 -16.71,-33.4 -22.81,-69.55 -16.64,-106.47 12.9,-77.17 75.35,-140.56 141.98,-176.4 35.29,-18.98 74.74,-32.1 114.69,-36.14 67.35,-6.8 134.4,14.19 183.21,61.67 37.99,36.95 65.36,92.79 52.44,146.58 -6.53,27.16 -22.56,49.25 -45,65.59 -21.66,15.76 -47.77,25.22 -74.27,30.64 22.28,6.24 45.12,10.43 68.33,8.53 19.17,-1.57 38.98,-6.34 57.94,-9.79l9.4 -1.71 -1.92 9.37c-21.68,105.8 -37.9,115.57 24.73,211.76 33.61,51.62 75.73,109.8 126.98,145.56 37.33,-28.89 67.03,-67.03 95.64,-104.16 65.99,-85.63 94.82,-136.48 52.85,-244.22l-4.28 -10.99 11.56 2.3c21.68,4.32 43.49,9.51 65.45,12.11 18.55,2.2 38.5,2.62 56.34,-3.65 13,-4.57 23.38,-12.18 31.88,-22.11 -6.53,1.35 -13.03,2.81 -19.56,4.23 -10.66,2.33 -21.37,4.54 -32.24,5.6 -26.63,2.61 -49.24,-2.66 -73.44,-13.81 -44.63,-20.56 -59.82,-53.24 -63.36,-101.37 -2.1,-28.57 3.65,-56.13 18.18,-80.91 25.1,-42.79 71.15,-69.07 117.81,-82.02 52.48,-14.57 110.87,-14.14 163.36,0.15 76.11,20.71 138.35,69.73 166.67,144.69 8.84,23.41 16.67,47.92 14.39,73.25 -1.26,13.92 -5.38,28.38 -9.73,42.31 20.98,-16.52 32.55,-42.75 40.76,-67.95 4.98,-15.29 10.7,-35.89 8.88,-52.16 -1.08,-9.68 -4.47,-15.37 -9.17,-23.55 -4.49,-7.82 -7.4,-14.54 -8.32,-23.66l-0.67 -6.63 6.65 -0.47c23.39,-1.64 51.77,11.91 71.73,23 29,16.13 56.88,36.29 83.25,56.39 21.99,16.76 43.48,34.14 64.98,51.53 16.76,13.56 33.67,27.55 51.13,40.19l0.21 0.16 0.2 0.17c63.23,54.22 129.73,119.54 136.05,207.91 1.38,19.34 0.85,39.59 -12.27,55.11 -2.53,2.99 -5.4,5.77 -8.41,8.43 18.22,-2.07 36.86,-7.54 48.54,-21.48 18.69,-22.3 17.22,-65.27 16.17,-92.59l-0.45 -11.69 10.14 5.85c63.04,36.38 119.63,83.4 179.8,124.21 74.32,50.41 156.05,89.78 242.74,113.65 81.43,22.42 166.75,30.78 250.9,22.57 166.92,-16.29 313.18,-94.84 428.72,-214.95l0.3 -0.31 0.33 -0.26c19.84,-15.83 39.79,-31.53 59.95,-46.94 23.32,-17.82 46.94,-35.27 71.01,-52.06 33.85,-23.6 69.04,-46.35 105.56,-65.61 29.78,-15.71 64.16,-31.17 97.45,-37.15 48.77,-8.76 124.83,-17.37 164.62,19.51 18.67,17.3 25.63,40.88 26.54,65.24zm-3872.94 -611.74c1.82,10.06 0.71,20.01 -5.57,29.22 -5.22,7.65 -12.77,13.14 -20.08,18.61 -5.3,3.97 -11.16,8.35 -15.08,13.75 -4.63,6.39 -5.61,13.14 -4.39,20.84 2.23,14.1 11.7,30 19.53,41.65 12.9,19.21 31.86,34.75 53.14,43.8 27.28,11.59 56.34,11.94 84.63,3.77 50.92,-14.72 78.29,-54.71 83.37,-106.05 2.08,-20.95 0.26,-43.38 -5.55,-63.64 -3.54,-12.32 -10.68,-30.25 -21.2,-38.35l-7.75 -5.45c-11.36,-7.71 -13.74,-10.88 -23.95,-13.35 3.91,21.25 13.48,42.69 11.96,63.75 -1.65,22.97 -16.43,38.62 -34.84,50.79l-2.84 1.87 -3.15 -1.27c-9.2,-3.73 -18.89,-8.46 -26.38,-15.09 -4.83,-4.27 -7.72,-8.48 -11.26,-13.71 -3.33,-4.93 -6.12,-8.06 -11.24,-11.28 -9.54,-6 -25.19,-9.11 -36.16,-12.02 -7.85,-2.08 -15.8,-4.42 -23.2,-7.82zm2201.32 -90.97c-6.06,8.03 -11.78,19.63 -8.58,28.21 0.06,0.14 0.15,0.37 0.25,0.59 2.89,-0.73 8.79,-6.4 10.44,-8.11 2.97,-3.05 5.96,-6.52 8.69,-10.04l-10.8 -10.65zm897.74 215.49c-8.86,8.45 -18.23,21.69 -15.82,32.9 0.07,0.34 0.29,1.19 0.53,1.58 3.14,0.59 12.5,-6.09 14.76,-7.82 4.21,-3.24 8.53,-7 12.48,-10.85l-11.95 -15.82zm-812.16 -124.51l0.47 0.86c0.08,0.13 0.19,0.29 0.3,0.45 2.71,-1.24 7.48,-7.89 8.8,-9.87 2.37,-3.55 4.68,-7.5 6.72,-11.46l-12.55 -8.5c-4.34,8.69 -7.77,20.62 -3.76,28.47l0.03 0.06zm-154.47 -148.94c2.96,-0.07 9.96,-4.36 11.95,-5.68 3.57,-2.36 7.22,-5.1 10.63,-7.94l-8.26 -12.71c-7.64,6.54 -15.71,16.64 -14.43,25.71 0.02,0.15 0.06,0.39 0.11,0.62zm-2411.73 976.16c53.74,-9.18 103.86,-41.92 143.57,-77.84 12.16,-11 21.33,-23.94 27.07,-39.33 15.18,-40.64 3.53,-93.14 -6.49,-133.84l-2.19 -8.89 9.11 0.92c37.12,3.75 63.95,15.66 90.25,41.95 14.42,14.41 26.8,30.39 41.64,44.43 13.27,-9.41 26.83,-18.54 40.2,-27.8 20.72,-14.34 41.34,-28.83 61.62,-43.79 20.58,-15.18 41.18,-30.95 60.37,-47.87 6.98,-6.15 16.11,-14.42 23.8,-22.97 -6.97,1.38 -13.74,2.23 -17.55,2.75 -22.88,3.12 -46.25,4.92 -69.29,6.34 -19.57,1.2 -39.19,2.08 -58.79,2.51 -13.31,0.29 -27.55,0.64 -40.83,-0.34 -58.52,-4.35 -112.2,-31.39 -166.81,-50.3 -75.01,-25.96 -151.35,-25.46 -218.89,19.17 -20.62,13.63 -38.7,30.2 -55.03,48.69 -5.41,6.12 -10.53,12.42 -15.71,18.72 -2.53,3.07 -6.97,8.84 -10.54,10.53l-5.76 2.74 -2.81 -5.72c-25.82,-52.47 -3.66,-119.72 29.28,-163.94 30.92,-41.52 72.96,-66.85 122.65,-78.81 -19.34,-100.87 -47.34,-214.14 7.62,-308.77 37.67,-64.86 105.09,-139.35 181.2,-155.97 5.62,-1.23 11.37,-2.05 16.91,-3.6 1.38,-0.38 2.73,-0.75 4.07,-1.08 -47.04,-30.68 -100.2,-28.09 -154.25,-17.62 -24.85,4.81 -49.72,11.55 -74.68,15.32 -18.52,2.8 -41.23,4.49 -57.7,-6.17 -7.64,-4.94 -12.98,-11.85 -16.64,-19.91 -20.54,1.88 -42.51,3.28 -62.84,1.21 -15.97,-1.62 -31.35,-5.58 -44.58,-15.04 -14.23,-10.18 -23.59,-25.09 -30.96,-40.67 -19.5,-1.31 -43.52,-2.74 -60.68,-11.26 -12.46,-6.19 -22.71,-16.29 -32.24,-26.24l-3.4 -3.55 2.5 -4.22c1.7,-2.87 3.31,-5.76 4.82,-8.73 1.06,-2.09 1.93,-3.92 4.01,-5.25 1.83,-1.18 3.67,-1.26 5.67,-1.86 1.22,-0.36 2.46,-0.81 3.7,-1.31 -7.84,-6.75 -16.46,-11.94 -25.91,-16.82 -11.33,-5.85 -23.19,-10.97 -33.63,-18.37 -16.26,-11.54 -25.22,-26.26 -29.99,-45.52l-1.34 -5.38 50.61 -21.18c-1.82,-7.03 -4.45,-13.87 -8.6,-19.86 -3.63,-5.23 -8.06,-9.14 -12.36,-13.73 -5.54,-5.91 -9.18,-11.67 -11.55,-19.49 -3.49,-11.51 -3.44,-25.17 -2.71,-37.07l0.15 -2.38 1.66 -1.71c12.25,-12.64 25.26,-23.79 38.71,-35.09 10.43,-8.76 21.18,-17.71 30,-28.14 11.63,-13.76 18.17,-28.42 21.96,-45.99 5.3,-24.6 4.87,-52.74 3.08,-78.3 -39.03,12.91 -99.04,28.2 -135.72,14.91 -2.93,-1.06 -5.87,-2.04 -8.82,-3.06 -2.51,-0.87 -4.65,-1.81 -5.95,-4.35 -0.69,-1.33 -0.53,-1.93 -0.88,-3.06 -0.32,-1.05 -1.39,-2.61 -2.01,-3.48l-0.37 -0.52 -7.19 -16.14 -0.13 -0.89c-0.02,-0.13 -0.04,-0.25 -0.06,-0.37 -25.94,-3.55 -49,-10.51 -75.05,-4.34 0.07,13.23 6.05,29.14 9.63,41.14 7.43,24.92 11.18,47.39 9.68,73.56 -1.09,19.14 -0.6,38.73 4.13,57.41 2.94,11.61 7.74,21.97 11.17,33.26 3.04,9.99 4.04,19.22 3.13,29.64 -2.45,27.95 -11.11,54.18 -34.91,70.94 -19.11,13.45 -44.09,18.08 -66.71,21.92 -23.73,4.02 -47.8,7.46 -70.27,16.45 -0.73,2.7 -1.26,5.3 -1.54,8.25 -0.4,4.09 -0.83,7.78 -1.7,11.83 -0.36,1.7 -1.29,5.89 -1.25,7.93 0.12,0.29 0.22,0.57 0.3,0.88 0.69,2.53 -0.19,4.6 -1.44,6.7 -1.35,2.27 -2.72,4.52 -4.05,6.8l-3.97 6.79 -5.89 -5.22c-9.05,-8.02 -17.18,-17 -22.3,-28.08 -7.11,-15.38 -6.98,-32.04 -4.26,-48.34 -2.45,0.14 -4.9,0.36 -6.78,0.49 -9.69,0.68 -19.4,1.67 -29.05,2.76 -27.17,3.1 -54.45,7.27 -81.25,12.7 -23.06,4.67 -104.1,22.24 -112.41,47.87 -9.54,29.45 14.8,85.76 27.38,112.33 10.25,21.65 21.77,42.86 34.01,63.45 8.02,13.48 16.64,27.59 25.9,40.27 14.04,19.2 29.02,38.35 45.41,55.62 10.42,10.98 22.18,22.06 34.95,30.28 14.85,9.56 29.89,14.66 47.28,9.34 9.12,-2.79 17.71,-7.87 25.87,-12.73 9.54,-5.67 18.93,-11.33 29.36,-15.28 27.46,-10.38 55.54,-13.66 78.62,7.59 7.22,6.65 12.76,14.44 18.64,22.21 3.99,5.29 9.11,11.99 15,15.24 5.37,2.96 11.45,5.59 17.65,5.95 4.22,0.24 8.19,-0.66 12.36,-0.85 13.09,-0.62 22.5,8.05 30.93,17.03 11.46,12.22 25.14,30.73 18.14,48.43 -10,25.26 -57.6,31.83 -80.92,34.64 -10.31,1.25 -20.62,2.11 -30.92,2.89 4.69,0.59 9.43,0.9 13.95,1.29 12.38,1.07 23.94,2.62 35.91,6.21 41.03,12.3 75.81,45.06 103.3,76.56 38.78,44.43 59.39,98.33 40.08,156.31 -10.76,32.31 -32.3,60.39 -57.8,82.56 -21.17,18.4 -46.06,33.64 -72.12,44.03 -22.32,8.89 -48.1,15.19 -72.27,13.7 -38.63,-2.39 -71.58,-15.88 -101.51,-40.16 -22.35,-18.13 -39.15,-39.17 -57.87,-60.33 -22.75,14.82 -33.06,42.68 -36.72,68.66 -5.67,40.35 2.63,84.86 15.74,123.03 17.43,50.74 45.77,98.28 80.3,139.21 41.74,49.47 92.96,89.9 150.04,120.28 91.77,48.84 209.74,72.3 311.58,45.69 47.67,-12.45 98.42,-36.45 107.47,-90.11 3.43,-20.31 0.5,-41.55 -4.61,-61.32 -6.21,-24.04 -15.83,-46.7 -25.11,-69.64l-3.43 -8.48 9.14 -0.4c28.51,-1.24 56.52,5.44 81.48,19.23 54.45,30.07 86.09,88.04 87.18,149.34zm3517.53 -526.96l-24.53 -9c-0.52,-0.14 -1,-0.32 -1.47,-0.48 -2.33,2.65 -6.11,10.59 -7.1,12.73 -1.26,2.7 -3.78,9.24 -1.23,11.96 3.11,3.32 11.4,1.14 14.89,-0.24 7.57,-3.01 14.22,-8.54 19.44,-14.97zm-627.19 -2218.58c-2.64,-17.06 -5.5,-34.32 -6.45,-51.43 -1.44,-26.08 2.36,-49.58 9.36,-74.67 10.18,-36.48 36.34,-88.11 73.18,-102.67l6.69 -2.65 1.91 6.94c0.66,2.39 0.91,4.8 0.88,7.28 -0.06,7.16 -1.83,11.52 1.57,18.49 6.26,12.8 26.73,26.87 38.2,34.38 12.55,8.22 35.94,8.56 50.45,8.22 25.37,-0.58 51.19,-3.87 76.41,-6.64 16.72,-1.83 33.49,-3.61 50.28,-4.62 14.98,-0.89 30.48,-1.26 45.42,0.3 11.73,1.23 35.48,4.41 45.71,-2.95 8.84,-6.36 11.64,-22.97 12.94,-34.66 -17.63,-5.57 -45.24,-5.9 -62.37,-6.39 -17.77,-0.51 -36.36,-0.63 -53.95,-3 -11.56,-1.56 -29.24,-4.86 -34.61,-16.8 -6.92,-15.36 11.02,-33.81 20.89,-43.33 48.23,-46.47 120.11,-36.71 181.68,-43.58l41.1 -75.13c1.18,-2.49 7.09,-15.39 5.66,-17.53 -1.58,-2.36 -18.8,-2.82 -21.47,-2.91 -21.84,-0.76 -42.64,-1.65 -64.4,-4.49 -13.2,-1.73 -25.78,-4.89 -37.82,-10.63 -8.21,-3.92 -15.3,-8.8 -23.09,-13.33 -5.19,-3.02 -10.31,-5.43 -16.12,-7.02 -9.12,-2.49 -17.62,-2.56 -26.18,1.77 -6.91,3.49 -12.97,9.31 -18.45,14.69 -7,6.87 -13.73,13.73 -21.74,19.48 -24.26,17.44 -51.06,17.16 -78.98,9.55 -23.51,-3.65 -32.38,-55.14 -8.16,-57.19 14.99,-1.26 29.36,-0.5 44.31,0.35 11.12,0.63 23.08,1.33 34.03,-1.02 4.83,-1.03 9.4,-2.66 13.75,-4.97 1.92,-2.58 3.19,-5.47 3.49,-8.73 1.04,-11.2 -9.45,-22.42 -17.4,-28.91 -13.71,-11.19 -31.75,-19.03 -48.88,-23.1 -12.71,-3.02 -25.42,-6.08 -38.15,-9.03 -8,-1.85 -16.07,-3.71 -24.15,-5.16 -6.19,-1.11 -15.03,-2.7 -21.13,-0.4 -3.2,1.2 -6.44,3.45 -9.29,5.32 -5.55,3.65 -11.03,7.07 -16.89,10.23l-6.08 3.27 -2.87 -6.28c-2.87,-6.27 -6.07,-12.36 -9.35,-18.43 -4.65,-8.61 -9.29,-17.14 -13.3,-26.08 -3.93,-8.76 -7.15,-17.67 -9.75,-26.84 -10.64,4.54 -22.29,9.89 -30.63,16.93 -4.87,4.11 -9.07,9.02 -13.09,13.95 -6.59,8.08 -12.93,16.39 -19.45,24.52 -13.9,17.33 -25.08,36.68 -39.39,53.88 -22.63,27.19 -53.32,44.42 -74.24,73.86 -25.49,35.86 -46.03,75.48 -64.24,115.45 -19.38,42.53 -36.39,86.14 -53.8,129.5 -9.86,24.55 -19.84,49.06 -30.42,73.3 7.48,-1.85 14.97,-3.71 22.45,-5.55l7.96 -1.96 0.05 8.2c0.06,8.47 -3.59,21.76 -5.68,30.07 -3.72,14.85 -7.76,29.63 -11.53,44.47 -4.35,17.15 -9.09,35.8 -11.06,53.38 -7.67,68.33 -12.22,140.67 -41.25,204 -2.44,5.33 -9.39,19.74 -6.36,25.83 1.22,2.46 3.93,5.3 5.67,7.48 3.81,4.78 6.71,9.61 9.04,15.28 6.94,16.87 9.62,32.21 11.43,50.18 1.26,12.4 2.31,24.42 5.14,36.62 3.43,14.79 9.03,28.57 16.1,41.92 43.75,-0.29 83.11,-16.89 115.9,-45.74 14.72,-12.96 30.14,-28.99 37.7,-47.43 4.94,-12.06 5.42,-22.71 7.39,-35.25 2.04,-13.01 5.81,-23.22 13.85,-33.83l2.4 -3.16 3.9 0.7c6.15,1.11 12.44,1.87 18.54,3.09 4.66,0.94 9.39,2.29 12.69,5.95 3.31,3.69 4.1,8.48 4.25,13.25 0.2,6.35 -0.5,13.18 -1,19.51 -1.27,16.15 -12.3,40.08 -20.86,53.86 -23.73,38.21 -51.87,69.3 -92.95,88.89 -24.51,11.69 -51.04,18.22 -77.57,23.43 -31.94,6.28 -64.16,11.04 -96.12,17.39 -27.07,5.39 -54.1,11.19 -80.8,18.22 -36.32,9.57 -83.99,24.14 -114.44,46.49 -25.72,18.88 -51.27,36.11 -72.85,60.07 -19.8,21.98 -33.91,47.56 -33.37,77.01 2.26,-1.7 4.49,-3.44 6.66,-5.09 4.95,-3.76 17.18,-13.65 22.95,-14.87 8.04,-1.7 16.88,-1.77 23.39,4.01 10.62,9.43 8.98,31.58 8.75,44.54l-0.06 3.71 -3.24 1.82c-9.4,5.28 -19.49,8.52 -29.61,12.08 -8.03,2.82 -16.93,6.09 -23.58,11.54 -9.09,7.44 -12.04,17.74 -12.6,29.14 -1.55,31.68 27.71,66.46 60.71,51.07 6.1,-7.27 9.22,-14.67 10.5,-24.17 1.01,-7.52 0.66,-16.4 4.63,-23.06 7.69,-12.9 28.77,-12.01 41.64,-11.33l4.13 0.22 1.53 3.84c4.59,11.51 9,25.28 8.45,37.83 -0.38,8.77 -3.07,15.81 -8.08,22.94 -3.74,5.32 -8.27,10.05 -11.65,15.62 -4.08,6.74 -5.74,13.64 -6.03,21.48 -0.29,8.04 0.61,18.69 7.99,23.63 17.88,11.96 62.43,-10.55 82.95,-19.8 0.83,-9.13 0.72,-18.37 0.23,-27.51 -0.95,-17.67 -3.51,-35.3 -4.12,-52.96 -0.53,-15.17 0.39,-32.18 8.92,-45.27 17.17,-26.35 65.92,-43.54 95.82,-51.21 41.55,-10.65 76.49,-8.78 115.45,9.15 16.57,7.62 32.23,17.08 48.28,25.72 16.04,8.63 32.05,16.14 49.37,21.54 3.53,-6.6 5.45,-15.35 7.14,-22.07 3.93,-15.66 8.64,-31.97 24.81,-38.99l0.53 -0.23 0.57 -0.13c7.52,-1.76 15.14,-2.25 22.83,-1.6 22.28,1.87 44,13.09 64.52,21.35 22.03,8.87 42.66,14.59 66.12,12.84 -1.31,-5.72 -4.04,-13.47 -5.12,-16.68 -4.31,-12.76 -8.76,-25.41 -12.27,-38.42 -8.48,-31.39 -14.17,-75.16 27.52,-84.39 5.04,-1.12 9.76,-3.03 14.18,-5.72 11.88,-7.26 20.65,-19.72 27.71,-31.44 9.27,-15.4 17.08,-31.75 26.05,-47.35 19.63,-34.12 71.01,-95.93 114.29,-60.33l3.52 2.89 -1.54 4.29c-2.22,6.16 -7.41,12.02 -11.85,16.73 -6.41,6.78 -13.27,13.23 -19.85,19.85 -20,20.16 -36.98,40.9 -51.57,65.37 -7.71,12.93 -15.23,25.97 -22.94,38.9 -4.51,7.55 -9.11,15.08 -14.46,22.07 -5.11,6.68 -10.85,12.79 -16.75,18.79 -9.06,9.23 -18.37,18.26 -27.6,27.35 1,12.89 3.17,24.43 11.67,34.8 3.58,4.38 7.57,8.39 11.14,12.82 5.3,6.57 9.54,13.53 13.14,21.17l1.35 2.87 -1.44 2.82c-3.84,7.54 -8.03,15.44 -15,20.54 -2.44,1.79 -5.08,3.3 -7.55,5.06 -2.22,1.58 -4.32,3.31 -6.35,5.14 13.84,12.92 28.69,24.75 45.5,33.63 35.5,18.76 74.86,20.89 114.06,17.93 -3.81,-8.97 -11.98,-18.1 -17.44,-25.54 -9.49,-12.94 -15.98,-26 -15.35,-42.49l0.33 -8.69 8.22 2.82c17.96,6.16 32.61,15.51 47.41,27.2 16.65,13.16 31.54,27.01 50.08,37.77 20.69,12 42.65,18.43 65.87,21.56 -3.4,-4.26 -7.09,-8.29 -10.78,-12.22 -7.86,-8.38 -15.79,-16.5 -22.71,-25.72 -19.73,-26.35 -25.03,-54.75 -21.81,-87.2 1.55,-15.7 3.75,-31.2 6.41,-46.75 2.03,-11.89 4.33,-23.75 6.04,-35.69 4.8,-33.48 2.4,-63.11 -2.99,-96.43l-1.39 -8.62 8.64 1.19c40.96,5.6 63.26,22.43 81.28,54.49l11.44 -25.35c1.17,-18.05 -3.93,-32.06 -13.43,-47.29 -11,-17.65 -23.66,-32.04 -30.09,-52.43l-2.43 -7.73 8.07 -0.66c8.14,-0.67 25.86,4.19 33.99,6.24 17.97,4.52 35.84,9.47 53.77,14.17 12.42,3.25 24.87,6.44 37.39,9.29 10.02,2.29 20.39,4.51 30.6,5.77 31.57,3.9 62.91,8.58 94.19,14.38 20.09,3.72 40.11,7.85 60.08,12.13 -5.9,-8.09 -12.6,-15.94 -18.71,-23.24 -9.2,-11.01 -19.04,-22.44 -26.7,-34.57 -5.98,-9.47 -12.24,-22.06 -8.71,-33.5 6.19,-20.09 38.84,-23.3 60.16,-23.8 -0.47,-0.51 -1.78,-1.36 -2.31,-1.73 -2.96,-2.07 -5.84,-4.17 -8.69,-6.39 -26.37,-20.55 -60.64,-27.24 -88.64,-45.6 -11.49,-7.53 -22.34,-15.44 -33.4,-23.52 -4.84,-3.53 -10.81,-8.05 -16.58,-9.88 -6.33,-2.02 -14.15,-1.19 -20.63,-0.41 -15.94,1.93 -32.08,4.96 -47.97,7.43 -65.62,10.17 -135.39,10.2 -195.96,-20.3 -17.76,-8.95 -33.1,-19.75 -48.84,-31.75 -5.14,-3.92 -11.2,-8.78 -17.45,-12.98 0.43,0.79 0.88,1.57 1.35,2.34 2.39,3.94 5.3,7.54 7.61,11.5 6.86,11.84 5.24,25.59 3.08,38.53l-0.94 5.6 -5.66 -0.2c-34.05,-1.19 -68.48,-18.18 -95.3,-38.32 -22.69,-17.04 -44.26,-39.48 -58.37,-64.22 -11.37,-19.92 -20.02,-45.51 -11.74,-68.15 2.19,-5.99 5.47,-11.42 9.7,-16.19l4.42 -4.98 4.84 4.55c22.03,20.71 27.54,48.25 44.11,72.19 8.56,12.37 26.61,35.33 42.74,47.31 -9.52,-36.36 -21.48,-70.61 8.88,-103.13l2.46 -2.64 3.54 0.71c3.81,0.77 7.43,2.08 10.84,3.93 10.29,5.58 17.58,15.47 23.76,25.14 7.32,11.45 13.74,23.32 21.48,34.55 22.46,32.63 49.96,51.63 88.18,62.55 74.84,21.37 158.29,2.44 233.95,-9.78 -17.48,-25.29 -55.99,-49.36 -81.14,-62.22 -126.31,-64.59 -180.14,-150.66 -205.54,-288.08 -22.22,-0.59 -45.24,2.55 -67.08,5.74 -24.45,3.58 -49.46,7.94 -74.18,8.81 -21.27,0.75 -44.46,-1.17 -62.89,-12.83 -16.31,-10.32 -25.52,-26.08 -30.54,-43.73l-20.38 30.5c-22.69,51.74 -31.76,114.19 -3.28,165.58l4.44 8.02 -9.05 1.49c-42.16,6.94 -85.49,-34.56 -104.52,-68.49 -12.47,-22.24 -18.78,-47.29 -23.94,-72.07 -2.21,-10.57 -4.18,-21.24 -6.73,-31.73 -0.39,-1.61 -0.81,-3.26 -1.26,-4.95 -2.45,11.34 -4.6,21.84 -14.19,32.8l-8.5 9.71 -2.69 -12.62c-4.95,-23.28 -2.65,-46.72 6.86,-68.54 12.57,-28.8 36.27,-51.77 63.65,-66.62l9.12 -4.95 0.42 10.37c0.57,14.26 -0.03,26.7 -9.03,38.3 -2.29,2.96 -4.69,5.65 -6.61,8.91 -2.72,4.58 -4.32,9.73 -5.43,14.91 -5.94,27.58 -2.01,61.09 5.35,88.07 8.55,31.32 28.56,76.12 61.25,90.45zm525.01 2125.31c-4.41,5.83 -8.77,12.64 -10.75,19.01 -0.53,1.71 -1.72,6.52 -0.15,8.07 2,1.96 8.23,0.28 10.38,-0.48 6.44,-2.27 12.79,-6.58 18.27,-11.26l-17.75 -15.33zm26.25 76c-5.33,1.22 -10.72,2.17 -16.19,2.69 -24.18,2.3 -45.88,-4.48 -59.63,-25.66 -8.7,-13.39 -12.1,-27.42 -7.08,-42.86 2.3,-7.06 6.02,-13.51 9.99,-19.74 2.57,-4.02 5.74,-8.55 8.52,-13.31 -6.86,3.75 -14.41,5.48 -22.04,2.56 -11.07,-4.24 -17.67,-16.82 -22.5,-26.92 -2.49,-5.22 -5.88,-13.62 -9.52,-19.26 -26.96,8 -53.24,22.65 -74.76,40.47 -24.79,20.53 -46.2,47.74 -54.87,79.16 -9.61,34.82 -1.69,67.97 17.98,97.72 32.06,48.49 78.45,74.3 136.89,64.19 22.47,-3.89 44.46,-12.82 63.79,-24.83 13.82,-8.58 28.48,-20.16 38.88,-33.21 -2.88,-3.34 -6.4,-6.74 -9.06,-9.8 -5.75,-6.63 -10.87,-13.89 -13.7,-22.28 -6.26,-18.62 1.41,-35.25 13.28,-48.91zm-3056.33 -294.63c-6.11,3.21 -13.33,7.86 -13.97,12.36 -0.65,4.55 5.36,10.69 10.64,15.15 5.22,-11.07 6.2,-15.24 3.33,-27.51zm133.58 -111.01c-4.23,6.13 -8.82,14.57 -6.35,19.86 2.9,6.18 15.21,8.86 24.54,10.05 -2.93,-15.09 -7.27,-20 -18.19,-29.91zm1978.42 83.96c-15.97,9.72 -45.31,25 -62.36,9.64 -17.18,-15.48 -9.04,-50.95 -2.58,-69.73 2.32,-6.76 5.1,-13.51 8.31,-19.99 -49.81,1.87 -98.65,21.05 -114.38,73.16 -7.47,24.74 -5.42,52 3.47,76.09 7.97,21.58 21.7,41.43 40.2,55.27 41.13,30.76 89.38,21.68 130.28,-4.4 24.62,-18.87 34.93,-43.66 35.83,-74.11 0.36,-11.95 -0.76,-23.67 -2.05,-35.52 -0.56,-5.18 -1.48,-12.01 -1.51,-18.22 -3.05,0.18 -6.09,0.33 -9.15,0.48 -3.24,0.16 -6.59,0.32 -9.79,0.92 -5.66,1.05 -11.19,3.8 -16.28,6.42zm906.39 -444.61c-24.63,-7.4 -50.77,-15.65 -76.06,-19.11 -25.81,-3.53 -52.29,-1.83 -78.14,0.31 -22.38,1.85 -42.88,-1.75 -62.43,-13 -15.26,-8.77 -27.45,-20.65 -41.12,-31.46 -8.03,-6.35 -16.26,-11.95 -25.58,-15.91 -9.9,22.94 -11.65,45.04 -3.25,69.41 6.5,18.84 17.71,36.22 27.59,53.44 5.21,9.07 10.2,18.28 14.33,27.91 12.08,28.22 14.01,54.72 4.21,84.09 -14.83,44.43 -54.29,86.71 -87.81,118 -4.46,4.16 -8.98,8.36 -13.26,12.7 -0.61,0.61 -1.65,1.63 -2.55,2.63 2.7,5.77 -0.29,12.23 -3.26,18.03 -7.12,13.89 -25.78,23.43 -38.75,31.26 -29.35,17.73 -62.25,27.48 -95.31,35.65 -23.79,5.88 -47.61,11.44 -71.6,16.48 -10.11,2.12 -20.76,4.02 -30.65,6.97 -9.64,2.88 -19.06,7.15 -28.22,11.31 -19.89,9.02 -39.67,18.3 -59.51,27.42 3.79,12.92 9.01,24.95 15.93,36.66 6.65,11.28 14.49,21.59 22.11,32.2 12.78,17.81 22.41,34.05 28.37,55.41 8.59,30.79 7.55,65.14 3.94,96.6 -5.72,49.86 -20.89,89.73 -47.65,131.74 -7.76,12.19 -16.28,24.09 -23.62,36.51 -5.37,9.08 -10.46,19.19 -11.81,29.77 -0.09,0.72 -0.17,1.43 -0.22,2.15 2.48,2.02 5.27,3.89 7.82,5.6 5.18,3.48 10.46,6.83 15.67,10.25 13.75,9.05 26.97,18.58 39.09,29.77 32.76,30.24 51.14,66.86 50.61,112.07 -0.15,13.26 -0.27,30.66 -8.75,41.67 -5.26,6.83 -14.62,12.72 -21.42,18.15l-3.98 3.17 -4.02 -3.12c-3.59,-2.79 -12.23,-8.38 -13.88,-12.67 -0.67,-1.76 -0.71,-3.7 -1.17,-5.54 -1.05,-4.28 -3.2,-8.95 -5.1,-12.9 -28.94,-60.44 -91.61,-84.76 -155.49,-86.3 -38.12,-0.91 -74.68,3.66 -112.29,8.89 -25.1,3.49 -50.13,6.99 -75.44,8.74 -22.86,1.58 -45.52,1.69 -68.25,0 4.05,4.07 8.28,8 12.54,11.84 12.63,11.41 25.87,22.32 39.22,32.87 11.87,9.39 23.97,18.58 36.29,27.38 8.83,6.3 18.3,12.98 27.79,18.24 13.8,7.65 27.78,11.55 43.07,6.06 7.75,-2.78 14.9,-7.49 21.59,-12.21 7.87,-5.55 15.48,-11.38 23.76,-16.35 22.44,-13.47 43.87,-16.54 69.32,-9.74l4.89 1.31 -0.09 5.06c-0.06,3.02 -0.42,6.01 -1.05,8.95 -3.99,18.79 -18.54,35.01 -25.81,52.91 -10.43,25.69 -3.32,48.72 10.4,71.71 19.37,32.45 75.61,55.4 113.63,65.55 8.7,-31.13 23.91,-59.93 50.29,-79.76 40.47,-30.42 95.28,-30.61 143.15,-23.33l6.93 1.05 -1.61 6.82c-2.98,12.6 -7.46,24.01 -18.61,31.43 -5.55,3.69 -11.98,6.1 -17.82,9.36 -8.13,4.55 -14.62,10.27 -20.66,17.35 -8.07,9.47 -13.89,20.57 -16.61,32.74 -5.83,26.02 3.48,51.3 20.3,71.22 25.46,30.15 66.2,47.53 103.6,56.99 75.89,19.19 154.61,17.54 230.28,-1.8 71.22,-18.2 139.17,-51.83 197.47,-96.52 51.71,-39.63 99.1,-90.64 129.45,-148.64 24.87,-47.52 39.71,-103.33 27.24,-156.7 -4.11,-17.61 -11.86,-35.63 -20.93,-51.23 -12.06,-20.77 -34.66,-50.22 -60.7,-53.79 -5.14,6.23 -9.87,12.65 -14.26,19.47 -3.46,5.37 -6.63,10.99 -10.29,16.22 -9.3,13.27 -21.62,21.69 -35.4,29.87 -47.29,28.08 -102.07,39.84 -155.69,24.29 -45.27,-13.12 -83.6,-44.22 -106.34,-85.44 -17.02,-30.83 -24.53,-66.21 -20.69,-101.28 4.41,-40.2 22.99,-75.97 50.22,-105.48 17.46,-18.93 36.06,-37.93 58.39,-51.11 32.54,-19.2 72.93,-24.9 110.18,-28.75 4.82,-28.39 12.25,-59.54 31.67,-81.39 14.56,-16.39 33.96,-25.85 54.46,-32.64 10.8,-3.57 22.34,-5.89 33.54,-7.83 12.8,-2.22 25.7,-3.96 38.58,-5.72 16.09,-2.2 32.34,-4.34 48.26,-7.59 10.8,-2.2 24.77,-5.47 34.31,-11.11 19.3,-11.41 31.59,-32.95 35.98,-54.49 4.98,-24.42 0.31,-49.93 -14.14,-70.35l-97.8 -74.65 1.98 56.53 -7.93 -1.48c-101.32,-18.98 -115.82,-196.57 -121.41,-280.81zm-120.65 -64c-2.01,-16.34 -1.88,-39.04 12.23,-45.88 14.24,-6.91 30.7,8.32 39.52,17.79 5.29,5.68 9.94,11.64 13.86,18.34 2.31,3.96 4.24,8.24 6.64,12.09 5.55,8.89 17.59,14.53 27.82,18.64l10.72 -21.98c1.22,-3.29 2.93,-7.99 5.19,-11.09 0.15,-1 0.23,-2.08 0.35,-3.02 0.36,-2.97 0.74,-5.94 1.14,-8.91 -25.61,-19.49 -49.56,-43.6 -72.52,-66.01 -16.62,-16.23 -33.31,-32.59 -50.86,-47.82 -12.81,-11.11 -25.46,-22.47 -37.52,-34.39 -5.8,-5.74 -11.42,-11.83 -17.36,-17.4 -7.03,-6.58 -14.8,-11.94 -22.84,-17.19 -19.04,-12.42 -38.93,-24.06 -58.45,-35.71 -13.59,-8.11 -27.85,-15.4 -42.05,-22.38 -16.41,-8.08 -33.02,-15.79 -49.63,-23.47 -23.72,-10.95 -47.58,-21.74 -70.98,-33.36 -31.27,-15.53 -62.14,-31.28 -90.92,-51.14 -7.77,-5.36 -15.44,-10.87 -23.21,-16.25 -9.9,-6.85 -19.92,-13.48 -30.06,-19.96 -14.16,9.58 -28.33,21.39 -40.73,32.73 -24.23,22.16 -46.69,47.9 -63.15,76.39 -13.88,24.02 -20.25,47.14 -16.83,74.84 2.01,16.27 6.97,32.27 11.66,47.93 5.3,17.7 10.23,35.04 13.24,53.26 3.51,1.74 7.05,3.27 10.76,4.66 3.31,1.24 6.72,2.38 9.76,4.22 7.93,4.81 12.79,15.23 16.69,23.26 6.71,13.83 12.04,28.2 18.4,42.17 13.05,28.67 27.04,56.06 36.45,86.27 12.23,39.25 12.22,78.96 -8.44,115.36 -42.4,74.73 -155.78,106.91 -235.48,119.18 -23.04,3.55 -46.95,6 -69.67,11.01 -15.36,3.39 -32.81,8.64 -44.23,20.06 -14.75,14.74 -16.6,37.59 -15.14,58.01 3.11,-3.19 5.36,-6.94 7.7,-11.81 2.95,-6.15 5.41,-11.79 9.69,-17.23 5.98,-7.59 13.83,-12.73 22.59,-16.63 4.86,-2.16 12.24,-3.71 17.46,-4.94 9.04,-2.13 18.14,-4.05 27.24,-5.92 14.28,-2.94 28.63,-5.8 42.98,-8.41l7.71 -1.41 -0.49 44.58 -3.55 1.76c-13.1,6.5 -26.35,8.05 -40.72,8.76 -9.91,0.49 -22.31,0.44 -31.52,4.37 -9.84,4.21 -15.02,12.68 -18.49,22.44 -6.86,19.33 -11.66,49.16 3.93,65.79 8.17,8.7 20.04,11.08 31.52,10.53 3.2,-7.88 6.15,-15.79 9.17,-23.75 2.34,-6.15 4.79,-12.36 8.37,-17.93 7.52,-11.7 21.05,-20.71 32.38,-28.38 25.32,-17.14 64.84,-30.07 91.21,-7.91l2.35 1.98 -0.05 3.08c-0.17,10.35 -0.47,28.08 -11.51,33.31 -5.08,2.4 -10.84,1.58 -16.16,0.65 -5.67,-0.98 -11.02,-2.03 -16.81,-2.04 -18.77,-0.03 -33.99,11.21 -46.4,24.29 -9.12,53.71 39.73,89.62 89.01,64.03 7.32,-3.8 14.02,-8.53 20.37,-13.77 13.33,-10.99 25.04,-23.87 38.22,-35.1 16.09,-13.69 32.73,-23.63 53.14,-29.59l0.15 -0.04 152.14 -36.51c14.67,-3.52 35.03,-8.55 48.23,-16.07 5,-2.85 9.19,-6.02 10.66,-11.8 0.78,-3.08 0.99,-6.51 1.43,-9.67 0.67,-4.86 1.76,-9.32 3.78,-13.82 6.68,-14.85 22.12,-26.43 35.48,-34.89 33.08,-20.94 65.04,-67.07 82.91,-101.73 0.87,-1.69 1.56,-3.46 2.07,-5.3 5.6,-19.97 -10.52,-48.72 -20.01,-65.61 -8.68,-15.43 -19.08,-31.81 -25.44,-48.28 -6.07,-15.71 -9.98,-33.37 -11.82,-50.09 -2.79,-25.24 -2.1,-63.12 19.75,-80.49 7.03,-5.59 15.32,-8.27 24.24,-8.63 4.24,-0.17 8.46,0.29 12.57,1.34 17.9,4.59 33.11,20.67 46.1,33.09 12.73,12.18 25.53,23.53 41.25,30.89 -0.83,-2.79 -1.91,-5.22 -3.3,-6.24 -2.5,-1.83 -4.39,-2.9 -6.63,-5.26 -3.9,-4.11 -6.78,-9.65 -9.06,-14.78 -4.04,-9.07 -5.83,-18.02 -2.63,-27.64 1.68,-5.06 4.47,-9.57 7.15,-14.14l1.91 -3.28 3.79 0.08c6.24,0.12 12.84,0.14 19.06,-0.55 3.74,-0.41 7.53,-1.8 10.46,1.88 1.62,2.04 1.52,3.62 1.26,5.89 -0.06,2.11 4.34,7.87 5.54,9.34 3.37,4.1 5.69,9.4 7.88,14.21 2.43,5.33 4.86,10.56 8.12,15.45 7.4,11.13 17.34,17.7 29.27,21.61zm-3210.41 -241.88c0.97,-1.18 1.8,-2.32 2.31,-3.34 1.42,-2.77 1.79,-7.06 2.07,-10.1 0.88,-9.34 1.4,-18.75 2.22,-28.12 0.31,-3.54 0.97,-7.22 1.52,-10.74 0.88,-5.56 1.75,-11.11 2.53,-16.68 2.03,-14.44 3.56,-29.07 3.81,-43.66 0.32,-18.44 -1.21,-48.72 -16.62,-61.57 -6.76,-5.64 -15.23,-7 -23.79,-6.27 -1.72,0.15 -7.97,0.5 -10,1.1 -0.64,1.01 -1.46,2.92 -1.96,3.85 -0.61,1.17 -1.63,2.95 -2.59,4.75 3.98,1.52 7.18,4.32 9.79,7.66 14.68,18.75 24.01,37.01 24.51,61.15 0.31,15.31 -2.31,30.79 -2.43,46.25 -0.14,19.35 3.06,37.53 8.62,55.71zm4004.06 -185.11c5.13,18.6 12.04,36.67 17.05,55.34 2.65,9.87 4.57,19.53 6.62,29.5 0.56,2.69 1.62,8.5 3.54,10.6 1.68,1.85 5.82,2.87 8.13,3.42 5.51,1.31 11.31,2.28 17.04,3.22 -2.08,-40.14 -16.57,-82.05 -52.38,-102.07zm-4631.3 -41.42c7.02,5.55 15.34,9.46 23.6,12.74 11.69,4.63 23.88,8.34 35.76,12.47 45.37,15.75 87.45,20.58 134.78,12.55 16.56,-2.81 32.67,-7 49.04,-10.64 14.77,-3.29 29.85,-6.07 45.04,-5.55 7.22,0.25 14.35,1.24 21.33,3.08l2.85 0.75 1.3 2.64c3.98,8.1 7.07,16.37 9.55,25.03 2.06,7.15 3.66,14.4 5.51,21.59 4.75,18.38 10.92,31.1 23.44,45.65 9.63,11.19 18.81,20.52 31.91,27.52 8.61,4.61 17.28,8.43 25.79,13.42 2.74,1.61 5.51,3.17 8.33,4.63 1.44,0.74 2.92,1.44 4.21,2.43 2.57,1.97 6.11,6.67 8.35,9.15l5.24 5.84 -6.74 4.03c-5.04,3.02 -10.49,5.21 -16.23,6.48 -13.75,3.06 -27.79,0.65 -40.68,-4.61 -14.76,-6.03 -28.28,-15.82 -39.88,-26.65 -26.84,-25.08 -47.53,-59.33 -60.36,-93.84 -58.13,11.36 -122.9,33.05 -181.7,20.68 -9.92,-2.09 -19.65,-5.07 -29.15,-8.6 -25.47,-9.45 -48.55,-22.6 -72.95,-34.21 -12.11,-5.76 -34.78,-16.46 -48.32,-11.08 -12.01,4.78 -16.46,21.96 -18.55,33.24 -1.96,10.61 -5.61,33.58 5.07,41.25 5.46,3.93 14.37,4.16 20.83,4.01 10.69,-0.25 21.42,-1.73 32.14,-2.23 7.68,-0.36 15.47,-0.29 23.09,0.89 36.43,5.66 75.35,20.77 84.37,60.61 3.19,14.08 2.04,28.86 -1.11,42.84 -3.64,16.14 -10.01,31.76 -17.21,46.61 -2.66,5.48 -5.46,10.87 -8.23,16.28 -0.35,0.69 -0.87,1.64 -1.41,2.67 48.56,14.3 57.42,-14.39 97.34,-36.2l8.39 -4.58 1.12 9.49c1.47,12.39 1,23.92 -5.5,34.89 -3.69,6.21 -8.78,11.69 -13.1,17.49 -3.95,5.29 -7.22,10.68 -10.02,16.42 24.87,-1.86 51.7,-3.43 74.3,-12.77 8.06,-3.33 15.13,-7.36 21.71,-13.1 4.36,-3.8 8.46,-8.49 13.46,-11.4 6.45,-3.76 13.33,-3.97 20.55,-2.93l2 0.29 1.48 1.38c7.87,7.32 13.51,15.59 15.65,26.24 1.85,9.14 0.85,18.67 -0.11,27.86 -1.16,11.16 -2.11,21.74 -1.54,33.01 0.94,18.45 1.91,37.57 -1.6,55.81 -6.13,31.86 -25.63,55.51 -48.89,77.02 -5.97,5.53 -12.55,10.47 -19.05,15.36 -7.89,5.93 -17.36,12.74 -24.05,20.3 4.79,43.89 31.12,40.33 52.82,71.35l2.17 3.11 -1.64 3.41c-7.9,16.39 -15.85,24.71 -31.33,33.65 -8.41,4.86 -14.16,8.5 -19.71,15.11 29.32,16.91 57.68,22.73 91.88,27.63l6.37 0.91 -0.88 6.37c-1.54,11.05 -3.34,26.12 -11.3,34.64 -2.23,2.39 -4.84,4.42 -7.23,6.65 -0.66,0.62 -1.31,1.24 -1.93,1.88 9.32,0.88 18.89,0.97 28.05,0.88 13.62,-0.14 27.23,-0.88 40.84,-1.04 9.1,-0.1 22.31,-0.19 30.85,3.04l4 1.51 0.98 24.83 -0.21 0.88c-1.36,5.62 -4.17,10.05 -7.03,14.95 -3.19,5.47 -7.1,9.78 -10.65,14.63 9.64,3.46 19.03,5.55 29.78,4.85 5.54,-0.36 11.09,-1.25 16.6,-1.93 7.77,-0.97 15.43,-1.57 23.27,-1.66 38.12,-0.44 30.71,7.18 56.99,28.08l6.81 4.37c17.63,-9.58 48.74,-14.44 66.97,-16.61 35.78,-4.26 73.4,-4.56 109.25,-1.04 39.27,3.86 83.23,13.13 117.52,33.37 18.17,10.73 37.04,25.06 35.74,48.39 -0.61,10.92 -5.34,21.62 -4.64,32.49 1.03,15.96 14.67,28.78 26.46,37.97 14.3,11.15 32.46,19.41 50.47,12.3 18.36,-7.25 29.85,-27.44 35.33,-45.73 -7.25,-11 -16.03,-18.63 -27.08,-26.06 -9.08,-6.1 -20.13,-12.15 -26.39,-21.34 -6.48,-9.54 -6.66,-20.45 -4.4,-31.41l0.67 -3.28 3.07 -1.34c12.75,-5.57 27.89,-9.56 40.49,-1.38 7.44,4.83 12.26,12.77 16.47,20.37 4.37,7.88 8.37,15.91 13.98,23.03 16.42,20.84 40.89,23.15 65.61,20.28 9.22,-8.63 16.89,-20.89 21.58,-32.39 9.63,-23.61 9.9,-50.39 -15.67,-63.34 -4.44,-2.24 -8.9,-3.17 -13.86,-2.9 -7.47,0.39 -15.38,3.4 -22.45,5.75 -9.54,3.18 -18.7,5.74 -28.87,5.66 -10.65,-0.07 -21.92,-2.76 -30.85,-8.73 -7.05,-4.71 -13.59,-12.43 -12.58,-21.48 1.63,-14.62 19.93,-18.79 31.87,-19.79 5.63,-0.47 11.18,-0.53 16.82,-0.72 12.89,-0.45 23.14,-3.13 35.33,-7.38 11.28,-3.94 20.97,-11.07 24.14,-23.08 4.73,-17.91 -6.53,-38.11 -19.89,-49.42 -14.5,-12.28 -33.11,-16.7 -50.86,-8.52 -3.11,1.67 -17.02,24.11 -19.7,28.04 -12.39,18.1 -26.54,34.64 -44.96,46.87 -66.39,44.11 -147.07,3.78 -204.3,-36.39 -22.79,-16 -45.79,-32.26 -67.65,-49.52 -12.6,-9.96 -24.47,-20.22 -35.87,-31.52 -8.14,-8.07 -16,-16.43 -23.97,-24.67 -11.64,-12.05 -23.47,-23.87 -35.55,-35.49 -15.67,-15.08 -33.09,-28.05 -48.31,-43.62l-0.85 -0.87 -0.48 -1.13c-7.44,-17.58 -1.71,-40.48 4.28,-57.7 8.17,-23.49 20.24,-46.69 31.98,-68.59 8.27,-15.43 16.81,-30.72 24.99,-46.2 6.71,-12.7 13.56,-25.99 18.67,-39.41 6.58,-17.26 11.78,-35.63 16.27,-53.54 5.71,-22.76 10.35,-45.93 13.75,-69.15 5.2,-35.52 9.75,-86.29 -1,-120.93 -1.09,-3.51 -2.13,-7.03 -3.07,-10.58 -0.12,-0.47 -0.24,-0.97 -0.37,-1.47 -4.5,-1.73 -8.46,-5.13 -11.96,-8.24 -62.75,-55.72 -134.45,-66.64 -215.31,-64.55 -33.23,0.86 -66.8,4.08 -99.99,3.58 -26.67,-0.4 -56.17,-3.46 -78.82,-18.81 -11.13,-7.55 -19.63,-17.37 -25.96,-29.01 -46.5,7.16 -92.39,28.6 -136.73,44.83zm3939.87 -410.77c3.13,59.31 -3.12,149.68 -66.06,173.7l-6.92 2.64 -16.53 -70.84c-0.49,2.24 -0.92,4.28 -1.26,5.92 -3.3,15.66 -5.88,31.61 -8.05,47.47 -2.14,15.64 -3.93,31.52 -4.84,47.28 -0.4,7 -1.25,21.83 0.72,28.47 7.01,23.67 18.57,42.71 38.49,57.51 7.08,5.26 14.59,9.54 22.27,13.85 6.65,3.74 13.78,7.66 19.54,12.7 1.9,1.67 6.06,4.83 7.47,6.9 1.3,1.92 2.32,3.98 3.74,6.01l3.04 4.36 -3.69 3.82c-12.88,13.32 -27.83,22.32 -46.1,25.89 -17.2,3.36 -34.96,1.48 -52.05,-1.61 -18.71,-3.38 -37.15,-8.19 -55.87,-11.61 -19.46,-3.55 -42.07,-1.97 -61.76,-0.64 -24.73,1.67 -49.39,3.73 -74.2,2.69 -10.54,-0.44 -21.06,-1.44 -31.45,-3.26 -21.11,-3.7 -40.34,-15.38 -57.23,-28.08 -10.23,-7.69 -19.92,-16.03 -29.67,-24.3 -7.93,-6.73 -16.15,-13.78 -24.8,-19.58l-123.32 -43.86c1.28,5.45 3.04,10.86 5.88,15.32 1.72,2.7 3.49,5.25 5.07,8.05 2.73,4.83 4.94,9.98 6.91,15.16l2.24 5.89 -5.83 2.39c-7.22,2.96 -14.15,6.45 -21.33,9.43 -7.61,3.16 -15.12,5.07 -22.96,6.45 29.98,65.17 60.4,115.19 121.85,156.47 58.86,39.55 127.21,67.06 191.53,96.53 66.39,30.42 136.09,67.79 190.51,117.23 16.11,14.63 30.56,30.19 44.54,46.85 10.93,13.02 21.45,26.55 33.11,38.92 17.06,18.1 34.68,30.88 56.8,41.42 4.5,-6.16 10.54,-18.12 12.8,-22.58 8.12,-15.97 15.58,-32.41 22.84,-48.79 11.2,-25.27 22.11,-50.9 32.36,-76.57 12.98,-32.5 27.43,-76.94 20.53,-112.46 -1.81,-9.3 -4.92,-17.22 -8.97,-25.71 -3.25,-6.82 -6.96,-13.85 -8,-21.42 -1.11,-8.12 1.05,-15.39 5.06,-22.43l1.45 -2.54 2.87 -0.59c7.31,-1.49 14.71,-1.05 21.54,2.08 30.39,13.91 33.54,71.81 33.17,100.2 -0.31,23.52 -2.99,50.4 -9.54,73.06 -9.6,33.2 -23.59,64.49 -38.56,95.55 -18.51,38.41 -38.1,76.16 -51.71,116.71 -15.28,45.5 -21.42,90.13 -17.54,138.08 1.99,24.6 5.74,48.26 12.94,71.9 6.72,22.07 16.03,43.25 25.76,64.14 1.47,3.16 2.97,6.3 4.52,9.42 1.23,2.47 2.73,5.69 4.29,7.94 2.05,2.95 3.65,5.58 5.36,8.59 0.41,0.25 0.82,0.5 1.23,0.75 2.52,-7.55 5.04,-15.79 6.22,-23.59 0.46,-3.04 0.39,-7.16 1.79,-9.84 1.85,-3.52 7.79,-6.61 11.08,-8.87 5.29,-3.62 14.03,-11.08 20.8,-8.97 4.32,1.35 6.47,5.39 8.56,9.05 2.89,5.04 5.8,9.64 9.38,14.26 16.45,21.26 42.13,39.89 64.49,54.26 22.84,14.68 44.5,32.46 58.69,55.98 18.92,31.35 19.79,65.42 8.51,99.72 -8.27,25.13 -22.7,45.33 -45.3,59.39 -27.27,16.96 -61.38,21.89 -92.79,24.94 -22.24,2.17 -44.97,3.32 -66.97,7.16 -17.53,3.06 -36.59,8.26 -50.5,19.9 -15.07,12.63 -21.09,30.85 -22.74,49.65 16.99,-16.31 41.34,-31.37 60.93,-36.57l0.66 -0.18 19.07 -0.93c0.05,-0.03 0.1,-0.05 0.15,-0.07 3.9,-1.84 6.39,-0.04 9.72,1.37l2.44 0.91 1.12 2.38c5.82,12.37 13.04,31.4 2.51,43.36 -10.08,11.46 -33.12,10.45 -47.19,10.89 -5.25,0.16 -10.65,0.38 -15.91,1.07 -11.26,35.22 -13.42,66.21 10.58,95.64 4.45,-3.66 8.67,-8.01 12.49,-11.97 6.77,-7.01 13.32,-14.19 20.33,-20.96 23.57,-22.75 50.06,-37.91 82.05,-20.4l2.96 1.62 3.69 33.75 -4.35 1.9c-11.91,5.21 -23.41,8.14 -36.01,10.87 -7.17,1.56 -16.4,3.29 -22.58,7.38 -5.57,3.69 -8.56,9.22 -10.64,15.42 -3.65,10.9 -4.73,24.59 -5.19,36.37 20.24,17.34 45.15,30.79 72.43,23.23 36.88,-10.23 67.12,-55.72 89.74,-84.74 9.58,-12.29 20.76,-27.72 32.92,-37.53 5.42,-4.37 11.38,-7.99 17.36,-11.51 9.42,-5.55 18.91,-10.96 28.3,-16.57l128.32 -86.5c13.6,-10.76 24.85,-24.01 37.97,-35.39 25.44,-22.07 53.65,-39.96 78.21,-63.21 7.99,-7.56 14.92,-15.97 16.84,-27.09 1.62,-9.4 -0.07,-20.89 -0.91,-30.38 -1.51,-17.02 -1.6,-32.84 0.5,-49.87 1.9,-15.43 6.97,-31.47 11.17,-46.45 4.35,-15.5 13.02,-44.73 6.71,-60.61 -4.73,-5.02 -11.37,-11.27 -17.89,-13.35 -4.16,-1.33 -7.75,-0.7 -11.98,-0.7 -6.74,0.01 -11.85,-1.88 -17.14,-6.09 -8.22,-6.55 -15.55,-17.86 -20.96,-26.75 -14.26,-23.42 -31.3,-53.44 -37.78,-80.29 -3.66,-15.18 -4.41,-32.25 6.45,-44.79 23.91,-27.64 88.17,-15.16 124.84,-38.76 -5.27,-2.9 -10.81,-5.45 -16.2,-7.89 -16.36,-7.39 -39.14,-16.22 -48.08,-32.81 -5.73,-10.64 -4.84,-22.25 -0.91,-33.34l2.43 -6.86 6.52 3.22c26.36,13.03 58.49,27.9 88.46,19.66l15.33 -9.26c-9.57,-4.55 -19.21,-9.04 -28.5,-14.05 -10.94,-5.9 -21.53,-12.71 -29.87,-22.06 -19.72,-22.09 -20.84,-53.28 -18.67,-81.3l0.57 -7.38 7.24 1.56c11.83,2.56 21.65,7.19 30.94,14.93 5.65,4.71 11.04,11.01 17.01,15.04 4.85,3.28 9.72,4.42 15.55,4.25 8.15,-0.23 17.4,-2.98 25.62,-6.05 -8.9,-15.89 -18.11,-31.5 -27.32,-47.23 -6.09,-10.41 -12.31,-21.09 -16.55,-32.42 -5.55,-14.84 -7.49,-30.82 -9.04,-46.49 -3.12,-31.64 -4.98,-63.68 -7.47,-95.41 -9.42,-119.93 -54.45,-212.4 -135.48,-299.85 -69.79,-75.31 -154,-135.72 -227.12,-207.77 -0.1,0.46 -0.19,0.92 -0.27,1.38 -0.36,2.15 -0.3,4.18 -0.43,6.34 -0.53,8.77 -6.11,16.05 -11.37,22.71l-3.57 4.54 -4.91 -3.05c-35.48,-22.03 -70.47,-34.98 -111.37,-42.75 -26.81,-5.1 -54.11,-7.85 -81.18,-11.25 -29.3,-3.69 -58.04,-8.18 -86.75,-14.81zm-3594.96 -39.33c10.4,47.52 28.42,97.33 51.28,137.8 7.57,13.41 16.56,28.32 27.14,39.6 6.51,6.94 13.74,12.53 22.96,15.3 12.96,3.89 29.56,1.81 42.83,0.36 22.25,-2.43 43.42,-4.49 65.63,-4.79 -15.21,-62.56 -47.83,-76.11 -101.93,-107.55 -15.97,-9.28 -32.14,-18.01 -48.24,-27.03 -10.46,-5.86 -20.93,-11.94 -30.19,-19.6 -11.1,-9.18 -20.78,-21.37 -29.48,-34.09zm264.04 201.34c8.82,-9.28 16.9,-19.45 22.11,-31.18 12.36,-27.86 6.56,-64.81 1.4,-93.72 -19.16,-107.36 -124.55,-101.46 -181.73,-171.77 -17.56,-21.59 -28.37,-43.67 -34.52,-70.73 -2.17,-9.55 -3.63,-19.16 -5.41,-28.78 -1.47,-8 -3.22,-16.12 -6.33,-23.67 -32.29,36.05 -38.41,80.18 -35.54,128.49 1.74,29.29 8.63,56.01 28.39,78.41 16.65,18.88 40.49,32.74 61.99,45.43 13.85,8.17 27.68,16.28 41.21,24.98 15.88,10.21 31.21,21.12 45.86,33.05 15.05,12.25 29.48,26.53 38.89,43.67 6.49,11.83 9.41,23 12.62,35.91 2.8,11.26 5.6,20.49 11.07,29.92zm-239.27 -11.07c-7,-13.89 -14.81,-26.69 -23.2,-40.13 -9.66,-15.48 -18.19,-30.35 -25.45,-47.17 -11.05,-25.58 -18.75,-53.02 -25.09,-80.1 -2.61,-11.12 -5.2,-22.89 -8.81,-33.72 -1.8,-5.41 -3.94,-10.69 -7.57,-15.15 -3.08,-3.79 -7.17,-7.04 -10.99,-10.07 -6.84,-5.43 -13.65,-10.75 -20.31,-16.43 -9.88,-8.44 -18.51,-18.09 -27.32,-27.6 -8.08,-8.7 -16.49,-17.49 -26.22,-24.36 -0.91,-0.64 -1.84,-1.27 -2.77,-1.88l6.95 88.71 -26.3 7.13c-1.65,0.49 -3.33,0.93 -4.96,1.47l-9.6 3.92c3.52,20.77 14.29,44.79 23.43,62.86 7.41,14.65 15.68,29.05 24.64,42.82 6.21,9.54 13.54,20.32 21.36,28.62 35.71,37.89 90.59,57.7 142.21,61.06zm545.25 124.32c0.41,-2.02 1.1,-4.23 1.9,-6.01l1.2 -2.7 2.83 -0.85c5.78,-1.74 13.43,2.29 18.46,4.89 7.95,4.13 15.69,8.68 23.65,12.82 19.44,10.11 41.13,18.96 63.37,19.14 14.07,0.11 28.19,-4.27 37.36,-15.44 6.72,-8.18 9.88,-19.38 6.98,-29.72 -3.12,-11.13 -12.15,-17.78 -23.06,-20.42l-0.47 -0.12 -0.45 -0.18c-4.79,-1.96 -12.19,-3.35 -17.3,-4.45 -9.7,-2.1 -19.47,-3.97 -29.23,-5.79 -15.94,-2.97 -31.92,-5.66 -47.88,-8.52l-6.31 -1.13 1.08 -6.32c2.73,-16.02 8.28,-37.29 25.99,-42.62 11.66,-3.51 25.23,0.97 36.9,2.89 12.47,2.05 23.03,1.56 33.17,-6.87 14.74,-12.26 22.96,-28.26 14.65,-46.83 -2.96,-6.63 -7.71,-12.72 -13.19,-17.47 -3.15,-2.73 -8.12,-6.26 -12.44,-7.43 -13.47,3.05 -24.37,9.27 -34.54,18.68 -12.81,11.85 -22.96,26.93 -34.53,40.03 -14.4,16.31 -29.7,28.41 -50.51,35.57 -45.68,15.71 -116.91,-56.96 -144.81,-86.26 -34.05,-35.76 -65.19,-74.16 -95.27,-113.28l-89.24 -116.06c-0.41,2.64 -0.45,5.34 -0.03,8.13 2,13.34 14.99,27 23.93,36.41 15.97,16.82 31.57,32.2 45.06,51.31 43.77,61.94 43.92,132.63 26.8,203.68 59.89,7.52 118.95,31.18 168.34,65.52 27.07,18.82 30.6,61.86 32.4,91.88 1.1,18.32 1.29,37.2 3.67,55.38 1.74,13.31 6.97,27.54 20.59,32.59 15.11,5.6 33.75,-2.05 45.78,-11.3 10.88,-8.35 20.84,-21.16 21.99,-35.26 1.46,-17.87 -12.03,-30.71 -26.33,-38.95 -13.16,-7.58 -30.71,-19.91 -34.04,-35.9 -1.59,-7.61 0.07,-12.71 3.56,-19.03zm2206.07 -662.68c-4.45,-2.4 -9.08,-4.46 -13.78,-6.31 -9.61,-3.78 -19.56,-6.72 -29.35,-10 -10.98,-3.68 -21.62,-7.76 -31.84,-13.26 -15.25,-8.2 -28.39,-17.56 -42.48,-27.45 -8.56,-6 -16.98,-11.5 -26.06,-16.38 -3.62,9.38 -8.66,19.51 -15.81,25.64 -2.71,2.32 -5.58,3.98 -8.9,5.28 -1.8,0.7 -3.88,1.27 -5.59,2.12 -6.12,3.04 -7.05,22.3 -7.45,27.73 -1.27,17.41 -1.23,35.31 -1.09,52.76 0.23,29.96 1.16,59.96 2.23,89.91 24.13,13.3 48.38,27.67 68.14,47.04 14.24,13.96 26.41,30.46 38.11,46.7 1.39,-0.56 2.92,-0.7 4.7,-0.12 0.47,0.15 0.92,0.35 1.34,0.59 0.44,-2.02 1.43,-3.82 4.07,-4.88 10.32,-4.16 23.82,-8.7 35.13,-8.06 3.16,0.18 6.24,0.77 9.18,1.96 0.21,0.09 0.42,0.18 0.63,0.27 0.6,-1.21 1.16,-2.47 1.52,-3.23l1.63 -3.44 0.82 -0.05c-0.72,-2.9 -2.17,-7 -2.64,-8.44 -2.57,-7.84 -4.83,-15.54 -6.32,-23.68 -5.17,-28.39 -8.62,-38.72 6.42,-64.78 8.09,-14.03 19.19,-30.26 23.97,-45.68 6.6,-21.3 0.63,-43.83 -6.58,-64.24zm-2670.06 -44.53c-5.47,2.55 -10.53,5.4 -15.67,9.35 -9.12,7 -16.89,11.37 -27.43,16.23 -11.11,5.11 -22.6,9.65 -34.02,14.01 -19.39,7.39 -39,14.29 -58.62,21.02 -25.85,8.88 -56.1,22.21 -73.54,44.27 -4.95,6.27 -8.52,12.8 -12.01,19.94 -3.08,6.31 -6.04,12.81 -10.51,18.29 -3.41,4.19 -7.43,7.44 -12.25,9.9l-2.37 1.21 -2.54 -0.81c-37.95,-12.15 -41.63,-68.03 -40.95,-103.72 -22.17,-0.31 -42.13,-4.09 -63.79,-10.16 -13.69,-3.84 -31.13,-9.91 -45.39,-8.88 -12.33,0.89 -22.12,6.95 -31.06,15.15 -8.29,7.6 -15.43,16.22 -21.48,25.69 -16.48,25.82 -24.05,56.75 -28.39,86.75 -4.97,34.31 -6.17,69.37 -8.56,103.94 -4.02,58.13 -11.02,120.63 -44.8,169.96 -8.99,13.13 -16.43,21.12 -29.74,29.59 -6.27,3.99 -10.9,7.4 -15.32,11.7 49.1,2.87 98.25,-10.1 141.74,-32.65 34.17,-17.71 71.84,-45.37 95.6,-76.77l-34.54 -32.98c-7.45,-5.79 -16.29,-12.22 -22.61,-19.2 -2.56,-2.84 -4.85,-5.91 -7.11,-8.99 -3.5,-4.8 -6.96,-9.63 -10.5,-14.4 -4.12,-5.55 -8.2,-11.14 -12.06,-16.88 -20.11,-29.8 -32.06,-60.57 -17.58,-95.93l1.85 -4.52 4.85 0.55c10.76,1.21 20.43,4.82 27.97,12.83 8.63,9.18 12.67,22.41 16.46,34.16 4.66,14.48 9.26,27.79 17.53,40.75 22.01,34.49 34.27,49.57 69.69,65.51 1.61,-12.48 1.31,-25.23 0.19,-37.73 -1.81,-20.28 -5.87,-40.19 -8.38,-60.36 -2.12,-16.99 -3.5,-36.7 2.89,-52.95l2.24 -5.7 5.81 1.93c15.09,5.01 27.73,18.21 37.69,30.1 12.94,15.45 24.5,32.29 36.87,48.22 26.78,34.49 56.64,65.09 98.83,78.32 -0.56,-21.29 -1.32,-42.79 -0.76,-63.99 0.47,-17.73 2.06,-35.34 7.43,-52.34 8.05,-25.46 23.85,-46.5 41.3,-66.3 9.6,-10.89 19.9,-19.89 31.53,-28.51 8.29,-6.13 17.28,-12 24.82,-19.02 10.04,-9.35 15.66,-19.61 19.51,-32.73 5.7,-19.39 7,-42.85 7.16,-63.87zm81.57 313.86c-0.56,-43.47 8.58,-81.88 29.36,-120.75 7.79,-14.56 16.71,-28.21 25.44,-42.19 6.88,-11.01 14.06,-22.84 18.28,-35.16 9.4,-27.4 8.09,-49.39 31.73,-70.17l4.07 -3.58 4.23 3.39c9.17,7.33 15.91,16.52 19.39,27.8 9.64,31.29 -9.16,69.58 -24.28,96.29 -8.11,14.34 -16.96,28.21 -25.61,42.23 -5.43,8.79 -11.7,18.73 -16.14,28.42 10.31,8.48 20.57,17.26 29.43,27.22 12.1,13.59 22.24,29.97 32.04,45.27 17.95,28.04 30.67,61.88 70.17,46.58 0.2,-0.29 0.4,-0.59 0.61,-0.88 -0.35,-1.35 -0.62,-2.7 -0.84,-3.92 -0.96,-5.1 -4.31,-10.93 -6.8,-15.44 -4.48,-8.1 -8.76,-15.9 -12.33,-24.48 -12.33,-29.67 -14.15,-61.69 -11.51,-93.41 1.32,-15.84 3.58,-31.36 5.9,-47.06 1.81,-12.23 3.6,-24.64 3.76,-37.02 0.33,-26.88 -8.06,-49.23 -20.78,-72.61 -17.61,-32.36 -54.51,-72.26 -83.09,-95.31 -31.27,-25.21 -60.3,-53.65 -92.19,-78.05 -2.39,13.98 -5.54,29.07 -10.49,41.52 -1.44,3.63 -3.1,7.09 -5.19,10.4 -1.02,1.62 -2.29,3.26 -3.2,4.92 -1.56,2.84 -1.35,7.69 -1.23,10.78 0.5,13.83 2.6,28.61 4.27,42.35 5.7,46.91 -9.97,79.98 -24.79,122.34 -10.78,30.85 -15.82,65.12 -11.45,97.66 3.63,26.99 14.05,53.99 34.48,72.72 10.63,9.75 23.05,16.39 36.73,20.14zm-1311.12 -285.61l-3.34 0.75c5.99,2.9 11.96,5.83 17.89,8.89 25.96,13.36 50.88,28.54 75.02,44.96 32.69,22.23 63.69,50.15 99.47,67.38 45.42,21.87 94.15,35.1 141.05,10.11 15.53,-8.28 28.91,-19.33 42.63,-30.21 12.96,-10.28 26.69,-20.77 42.48,-26.24 5.71,-1.98 11.59,-3.26 17.62,-3.73l4.9 -0.39 1.68 4.63c7.14,19.63 11.03,40.13 11.77,61 1.45,41.12 -9.38,81.85 -27.13,118.71 -18.67,38.77 -45.27,74.25 -75.77,104.5 -27.75,27.53 -59.69,51.7 -94.1,70.3 -14.59,7.89 -30.11,12.02 -45.2,18.49 -6.65,2.85 -13.03,6.16 -18.87,10.46 -8.91,6.56 -15.73,15.52 -24.64,21.7 -13.37,9.28 -28.22,8.68 -43.5,5.19l-7.21 -1.64 2.6 -6.93c4.89,-13.04 10.91,-23.97 17.3,-36.19 8.51,-16.29 12.64,-30.47 15.2,-47.41 -0.84,0.35 -1.73,0.72 -2.48,1.15 -2.6,1.5 -5.83,4.24 -8.32,6.03 -7.22,5.2 -10.3,9.61 -16.19,16.04 -11.52,12.58 -24.53,22.94 -37.84,33.5 -11.36,9.01 -23.15,18.37 -32.32,29.68 -9.49,11.73 -15.01,24.33 -17.15,39.29 -1.34,9.42 -2.3,19.84 -1.01,29.33 0.69,5.11 2.36,9.73 3.16,14.68 1.11,6.91 -0.39,12.9 -2.93,19.32 -4.7,11.88 -12.32,24.42 -18.88,35.36 -7.38,12.3 -15.13,24.41 -22.28,36.84 -8.41,14.62 -15.37,29.22 -21.13,45.1 -39.49,108.81 28.75,196.25 133.85,223.76 21.9,5.73 42.6,8.91 64.97,11.57 11.66,1.39 27.07,2.67 36.41,10.46 9.59,8 12.12,21.61 13.49,33.37 1.12,9.68 1.51,19.59 1.79,29.33 0.4,13.93 0.49,27.88 0.59,41.81l0.04 5.26 -5.14 1.11c-15.33,3.3 -30.75,7.53 -46.17,10.2 -17.84,3.09 -34.92,3.14 -52.71,1.98 0.67,12.27 4.52,23.25 14.12,32.05 8.7,7.98 20.59,13.16 31.26,17.97 19.25,8.7 38.02,17.53 47.23,37.89l3.71 8.21 -61.31 6.06c0.53,10.78 3.48,21.48 11.88,28.9 18.26,16.13 59.77,12.92 82.6,11.95 17.28,-0.74 35.33,-1.68 52.54,0.22 15.18,1.67 31.09,5.86 42,17.23 18.42,19.17 26.36,41.19 27.41,67.62l0.1 2.6 -1.73 1.94c-23.78,26.78 -60.41,47.5 -94,59.42 -26.5,9.4 -54.82,9.75 -82.59,8.85 -11.65,-0.37 -23.44,-1.05 -35.08,-0.8 -7.53,0.16 -16.73,0.72 -23.9,3.46 -19.84,15.7 -23.59,35.16 -21.53,59.36 0.92,10.87 2.91,21.61 3.8,32.45 0.8,9.86 0.7,20.58 -4.18,29.48 -10,18.25 -36.11,20.21 -56.69,19.34 3.82,6.6 8.26,12.71 13.42,18.61 6.56,7.5 13.89,14.21 20.78,21.38 8.84,9.19 15.97,18.41 21.32,30.09l2.15 4.71 -4.12 3.13c-7.73,5.87 -15.87,11.28 -23.7,17.02 15.46,17.51 34.01,28.51 51.45,44 4.51,4 8.79,8.24 12.72,12.83l1.91 2.24 -0.44 2.91c-1.4,9.35 -5.35,16.75 -10.4,24.56 -2.01,3.11 -6.56,9.4 -6.73,13.15 -0.35,7.69 19.48,17.62 24.73,20.27 13.64,6.87 27.44,10.88 42.09,14.84 12.68,3.42 25.92,6.86 37.21,13.8 3.39,2.08 6.56,4.47 9.49,7.17l3.07 2.84 -1.33 3.96c-1.64,4.87 -3.39,10.34 -5.65,14.96 -1.62,3.31 -3.66,6.19 -7.19,7.65 -2.73,1.13 -5.51,0.94 -8.33,1.55 -1.7,0.37 -3.41,0.96 -5.09,1.69 28.25,20.04 75.21,28.08 107.04,34.46 28.48,5.71 59.4,11.69 86.03,23.46 24.17,10.67 57.54,28.03 60.54,57.78 1.96,19.39 -9.46,41.02 -17.1,58.36 -10.1,22.94 -17.52,44.53 -16.29,69.99 2.52,10.07 18.52,19.22 27.44,22.18 15.45,5.12 31.34,3.03 42.45,-9.62 12.49,-16.44 11.25,-32.35 4.16,-50.72 -3.15,-8.17 -7.15,-15.97 -10.31,-24.11 -2.9,-7.42 -5.33,-15.85 -3.05,-23.77 3.38,-11.73 15.43,-17.06 26.22,-20.04l2.89 -0.79 2.47 1.68c6.42,4.38 11.63,9.9 15.88,16.38 5.89,8.97 9.58,19.13 12.9,29.28 9.25,28.24 14.77,50.37 49.22,53.05 23.27,1.82 49.79,-9.17 60.02,-31.21 6.24,-13.44 4.45,-27.64 -2.24,-40.47 -10.52,-10.36 -21.83,-16.43 -35.6,-21.58 -11.31,-4.22 -24.09,-7.66 -33.77,-15.09 -10.23,-7.86 -15.05,-18.67 -17.2,-31.15l-1.14 -6.61 6.64 -0.9c21.15,-2.86 40.36,2.16 60.31,8.46 13.62,4.3 31.65,10.96 46.01,8.78 8.19,-1.24 14.76,-5.14 20.57,-10.96 10.88,-10.92 18.32,-26.1 13.61,-41.63 -3.54,-11.67 -12.92,-20.16 -23.85,-24.96 -15.46,-6.78 -33.44,-6.37 -49.57,-2.47 -12.81,3.09 -22.98,8.31 -33.5,16.09 -8.25,6.1 -16.27,13.51 -25.71,17.69 -23.44,10.37 -49.95,-4.57 -69.52,-16.86 -17.63,-11.08 -31.81,-23.68 -45.38,-39.39 -7.68,-8.88 -14.82,-18.21 -22.11,-27.4 -8.28,-10.43 -16.73,-20.6 -25.85,-30.32 -5.43,-5.79 -10.43,-12.39 -15.06,-18.83 -6.43,-8.94 -12.48,-18.21 -18.24,-27.6 -14.13,-23.03 -26.93,-47.39 -37.61,-72.21 -17.25,-40.07 -41.23,-110.21 -12.42,-149.89 41.66,-57.36 228.37,-78.38 297.93,-86.13l7.93 -0.88 -0.79 7.94c-0.57,5.79 -1.44,11.4 -2.4,17.12 -0.44,2.61 -1.05,5.77 -0.84,8.43 0.16,2.03 0.95,4.21 1.96,6.3 13.66,-7.13 29.13,-11.05 44.05,-14.24 20.89,-4.47 54.03,-8.78 69.72,-24.12 6.09,-5.96 9.51,-13.19 11.1,-21.51 1.82,-9.58 -2.99,-23.53 -5.77,-32.72 -5.23,-17.31 -9.3,-33.27 -9.6,-51.54 -0.28,-17.02 -0.49,-34.04 -0.77,-51.05 -0.18,-10.78 -0.34,-21.6 -0.87,-32.37 -0.47,-9.71 -1.07,-21.3 -5.14,-30.29 -1.87,-4.12 -4.43,-8.03 -6.91,-11.8 -4.09,-6.22 -8.17,-12.38 -12.04,-18.75 -16.35,-26.87 -29.99,-56.25 -42.48,-85.07 -11.53,-26.6 -22.64,-53.4 -31.27,-81.1 -12.48,-40.08 -23.58,-93.84 -2.44,-132.84 5.3,-9.78 12.39,-18.17 21.11,-25.08 8.69,-6.89 17.9,-13.32 26.28,-20.56 4.47,-3.86 8.47,-8.55 12.95,-12.16 6.62,-5.34 14.83,-7.42 23,-9.15 27.73,-5.86 54.42,-13.33 81.26,-22.4 24.28,-8.21 48.3,-17.28 72.49,-25.77 40,-14.04 80.46,-26.54 120.31,-41.13 38.16,-13.97 116.43,-43.6 145.12,-79.94 -35.73,-2.13 -72.24,-6.41 -105.15,-20.9 -24.56,-10.81 -46.38,-26.7 -67.36,-43.22 -23.25,-18.3 -43.76,-38.58 -61.1,-62.63 -8.32,-11.53 -13.73,-25.04 -18.69,-38.28 -4.42,-11.81 -8.91,-25.2 -15.41,-36.53 -20.74,23.47 -74.05,50.83 -97.82,61.42 -20.99,9.36 -41.7,15.75 -64.35,19.61 -26.66,4.54 -54.33,5.98 -81.31,8.89 -87.42,134.91 -215.53,276.31 -362.7,345.08 -63.78,29.8 -151.89,48.86 -216.24,10.49 -17.97,-10.71 -32.63,-25.21 -43.82,-42.86 -13.32,-21.01 -20.04,-44.1 -18.91,-69.01 3.83,-84.75 96.42,-164.57 159.82,-211.04 6.54,-4.79 12.26,-10.03 17.98,-15.75 9.13,-9.12 17.43,-17.52 27.73,-25.47l0.15 -0.11 151.75 -110.4c62.03,-53.01 123.74,-124.91 112.33,-212.33 -3.56,-27.32 -13.48,-52.42 -25.43,-77.03 -5.3,-10.93 -10.98,-21.68 -16.35,-32.57 -4.63,-9.38 -9.24,-19.18 -12.33,-29.18 -4.76,-15.42 -7.91,-30.94 -11.23,-46.7 -2.74,-13 -5.68,-26.31 -10.92,-38.56 -11.66,-27.3 -33.13,-42.67 -59.48,-54.74 -22.18,-10.16 -46.64,-17.28 -70.29,-23.06 -31.41,-7.66 -63.58,-13.36 -95.63,-18.17 37.41,45.5 107.4,37.88 136.49,87.74l4.57 7.85 -8.91 1.75c-21.6,4.25 -43.05,3.65 -64.39,-1.67 -52.86,-13.18 -98.63,-53.88 -137.66,-90.07 -18.42,-17.07 -36.57,-34.51 -55.66,-50.82 -13.47,-11.51 -27.76,-22.79 -42.95,-32.21 1.99,7.38 4.37,14.73 6.68,21.82 4.62,14.2 9.47,28.31 13.63,42.66 2.53,8.74 4.83,17.56 6.62,26.49 2.66,13.19 4.72,26.46 7.13,39.68 1.99,10.88 4.3,21.8 8.06,32.23 6.09,16.84 15.36,30.09 28.14,42.57 19.61,19.17 45.65,35.12 69.47,48.43 12.92,7.22 27.6,12.79 41.26,18.54 17.23,7.25 40.65,17.15 53.4,31.04l7.5 8.16 -10.8 2.51c-24.85,5.76 -51.08,8.18 -76.11,2.1 -19.18,-4.66 -35.03,-13.61 -50.77,-25.23 -14.85,-10.97 -28.56,-23.37 -44.06,-33.46 -17.58,-11.43 -35.34,-18.41 -56.17,-21.11 -5.2,-0.59 -10.75,-0.91 -16.03,-1.27zm559.21 1271.86c-4.31,-0.81 -8.64,-1.49 -12.95,-2.29 -2.58,-0.48 -5.04,-1.01 -7.3,-2.42 -1.82,-1.13 -3.22,-2.67 -4.72,-4.17 -2.45,-2.46 -5,-4.73 -7.67,-6.94 -59.82,-49.57 -105.65,-93.87 -141.73,-164.39 -27.38,-53.5 -32.01,-114.39 -13.15,-171.4 6.94,-20.97 17.25,-41.92 30.71,-59.5 8.61,-11.26 21.91,-25.29 35.8,-29.7l12.08 -3.83 -3.99 12.03c-7.15,21.54 -18.7,42.25 -28.44,62.76 -10.65,22.43 -19.72,45.16 -23.11,69.93 -10.52,76.8 40.78,144.46 91.66,195.92 4.08,4.13 8.25,8.18 12.44,12.19 14.07,13.47 28.82,26.64 41.89,41.09 10.9,12.05 22.2,26.79 25.96,42.9l2.25 9.64 -9.73 -1.82zm4014.62 -1614.21c57.69,13.45 117.84,6.89 172.19,35.5 28.51,15 62.73,20.49 93.25,8.19 9.38,-3.78 19.2,-9.72 25.75,-17.55 0.89,-1.07 1.87,-2.37 2.77,-3.81 -17.58,12.59 -43.1,9.81 -63,5.65 -28.06,-5.87 -56.46,-16.67 -83.47,-26.3 -25.08,-8.94 -51.68,-18.59 -77.84,-23.6 -17.1,-3.27 -40.18,-5.65 -55.56,4.42 -6.64,4.34 -11.08,10.47 -14.09,17.5zm-3688.96 -39.95l-10.24 28.49c8.64,-3.35 17.95,-8.59 18.93,-15.27 0.71,-4.79 -3.98,-9.63 -8.69,-13.21zm-293 12.31c8.72,14.68 21.13,25.56 38.49,30.75 14.32,4.28 29.87,4.06 44.53,1.82 19.34,-2.96 38.57,-9.58 56.47,-17.39 6.6,-2.88 13.09,-5.98 19.53,-9.19 2.92,-1.46 7.6,-4.14 10.65,-5.02 9.44,-2.73 19.14,-4.22 28.95,-2.9 6.84,0.92 12.5,3.1 18.93,5.34 11.9,4.16 19.96,3.72 31.31,-0.29 2.97,-8.04 5.95,-19.85 0.15,-26.54 -10.47,-12.06 -44.45,-5.98 -57.87,-3.08 -16.45,3.56 -33.48,8.76 -49.15,14.94 -26.47,10.43 -53.84,19.93 -82.65,19.38 -10.66,-0.2 -21.23,-1.63 -31.74,-3.28 -9.21,-1.46 -18.4,-3.04 -27.6,-4.53zm909.52 -32.78c-3.42,-2.44 -7,-4.64 -10.85,-6.72 -5.93,-3.2 -12.08,-6.03 -18.08,-9.11 -7.77,-3.99 -15.18,-8.33 -22.36,-13.3 -23.94,-16.58 -45.18,-39.39 -63.77,-61.61 -16.27,-19.44 -33.8,-37.8 -51.02,-56.39 -6.27,-6.76 -12.39,-13.82 -19.26,-19.98 -14.56,-13.05 -29.43,-18.23 -48.27,-19.13 -16.25,40.47 -20.65,82.33 -24.4,125.51 -3.41,39.19 -6.3,82.35 -23.57,118.27 -8.82,18.34 -20.92,33.84 -36.56,46.67l-43.92 37.58 -0.58 0.32c-20.41,11.25 -48.21,13.33 -71.11,15.47 -17.7,1.66 -38.51,3.35 -55.49,9.7 -1.1,8.7 -0.44,18.1 -0.29,26.73 0.23,13.4 -0.53,25.79 -4.38,38.73 -13.06,43.86 -58.18,77.28 -95.1,100.26 -9.01,5.6 -18.32,9.78 -27.92,14.17 -8.79,4.01 -16.71,7.99 -24.35,13.27 27.07,17.54 57.11,26.86 89.7,19.08 38.44,-9.17 71.68,-39.85 97.67,-68.19 9.52,-10.38 21.65,-18.58 30.51,-29.33 7.9,-9.6 12.74,-19.21 15.49,-31.29 1.86,-8.19 2.57,-18.05 7.06,-25.24 7.94,-12.73 26.06,-14.35 39.58,-14.95l7.67 -0.34 -0.97 7.61c-6.01,47.24 -23.41,78.42 -54.92,113 -7.07,7.76 -14.38,15.31 -21.53,22.99 -9.58,10.28 -19.83,19.82 -30.45,29.01 -8.95,7.74 -18.16,15.18 -27.15,22.87 -9.56,8.18 -25.83,21.93 -27.78,35.13 -0.41,2.81 -0.22,5.54 0.4,8.17 7.12,-5.99 13.42,-12.27 20.33,-18.93 14.39,-13.86 27.79,-22.22 46.07,-30.45 13.39,-6.03 27.89,-10.91 41.74,-15.81 17.51,-6.19 35.02,-12.4 52.23,-19.4 26.14,-10.63 66.2,-28.68 82.49,-52.63 3.96,-5.83 6.63,-11.5 8.36,-18.33 1.13,-4.48 1.83,-9.09 2.55,-13.65 0.96,-5.99 1.99,-11.9 3.37,-17.81 2.82,-12.12 6.91,-26.78 13.48,-37.48 1.7,-2.75 3.64,-5.36 5.96,-7.62 0.27,-0.27 0.55,-0.53 0.84,-0.77 -0.18,-0.27 -0.34,-0.53 -0.48,-0.74 -1.73,-2.73 -3.48,-5.44 -5.19,-8.18 -7.3,-11.73 -14.05,-23.83 -20.53,-36.03 -12.33,-23.21 -17,-43.09 -3.8,-66.79l2.7 -4.84 5.2 1.93c10.36,3.85 20.26,8.68 26.76,17.98 3.31,4.74 5.47,10.13 7.57,15.48 2.68,6.81 5.33,13.4 8.61,19.96 12.62,25.27 32.29,48.68 51.46,68.96l103.65 104.41c26.5,23.03 54.84,50.34 73.35,80.41 12.7,20.64 19.81,41.17 21.64,65.34 1.84,24.27 -1.46,49.56 -2.34,73.92 -1.11,31.1 1.29,60.05 7.75,90.1 6.68,-5.8 13.12,-13.14 18.24,-19.18 10.64,-12.54 20.55,-25.89 30.25,-39.17 8.57,-11.73 16.99,-23.57 25.6,-35.27 7.05,-9.58 14.34,-19.41 22.24,-28.29 40.33,-45.38 88.56,-62.54 115.26,-121.21 -11.57,-19.63 -19.53,-41.36 -31.26,-60.68 -2.81,-0.29 -5.63,-0.33 -8.46,-0.15 -23.55,1.54 -47.35,19.22 -65.39,33.22 -13.56,10.52 -26.99,21.84 -41.46,31.07 -12.56,8 -27.3,15.18 -42.58,14.28 -9.9,-0.59 -18.54,-4.46 -26.09,-10.49l-3.59 8.6 -17.96 -73.86 -0.05 -0.41c-2.9,-25.79 -6.5,-54.81 -14.35,-79.62 -4.48,-14.17 -10.29,-26.32 -20.46,-37.29 -5.49,-5.92 -11.78,-11.1 -18.08,-16.12 -8.15,-6.49 -16.37,-12.81 -24.35,-19.53l-5.68 -4.78 5.52 -4.96c8.46,-7.61 18.61,-13.51 30.38,-11.75 11.37,1.71 21.73,10.37 31.11,16.57 9.44,6.24 18.42,10.69 28.99,12.52 -1.18,-4.48 -2.67,-9.08 -3.87,-12.92 -3.46,-11.19 -7.23,-22.31 -11.12,-33.35 -3.87,-10.99 -7.88,-21.96 -12.12,-32.81 -2.55,-6.5 -5.4,-14.21 -8.72,-20.34 -10.15,-18.77 -23.12,-34.19 -38.98,-48.34 -6.04,-5.39 -12.33,-10.42 -18.6,-15.53 -5.04,-4.1 -10.37,-8.43 -14.72,-13.26l-5.57 -6.18 7.37 -3.87c4.34,-2.28 9,-3.59 13.86,-4.16 12.22,-1.44 22.19,1.85 33.92,2.7 7.31,0.53 15.8,1.19 23.02,-0.42 3.2,-0.71 6.56,-1.8 9.93,-2.97zm-294.14 -295.42c-0.97,14.15 -2.43,29.07 -5.9,42.53 -2.92,11.33 -7.52,22.11 -16.26,30.19 -9.89,9.15 -23.09,12.93 -36.07,15.12 -18.77,3.16 -39.22,3.72 -58.25,4.54 -18.37,0.79 -36.8,0.58 -55.19,1.2 -23.76,0.79 -71.9,2.72 -87.11,24.25 -2.38,3.37 -3.88,7.06 -4.66,11.01 1.81,1.44 3.75,2.68 5.82,3.75 12.25,6.33 29.89,6.78 43.48,8.02 19.73,1.79 37.73,4.99 54.76,15.86l4.19 2.67 -1.51 4.74c-3.64,11.43 -8.54,23.8 -18.17,31.53 -13.48,10.81 -32.15,9.14 -47.96,5.77 -20.37,-4.36 -32.33,-12.79 -47.16,-26.63 -4.94,-4.6 -9.8,-9.22 -15.21,-13.25 -30.33,-4.39 -64.13,-1.88 -92.61,9.69 -15.66,6.36 -39.49,20.24 -41.01,39.34 -2.27,28.5 47.32,47.03 68.29,53.62 44.48,4.66 84.44,11.04 78.79,66.31 -0.6,5.88 -0.79,14.58 -5.25,18.94 -3.78,3.7 -12.19,4.85 -17.3,6.36 -28.81,8.53 -56.99,14.98 -83.99,28.74 -4.81,2.45 -8.25,6.5 -9.86,11.65 -2.32,7.39 -0.48,15.69 4.57,21.54 7.15,8.28 18.5,9.72 28.78,8.23 17.65,-2.55 35.17,-6.31 52.9,-8.85 5.26,-0.75 10.54,-1.43 15.82,-1.98l0.44 -0.05 0.44 0.02c18.49,0.61 36.71,0.03 55.15,-1.26 17.42,-1.22 34.8,-2.88 52.22,-4.08 52.74,-3.62 110.28,-16.53 138.01,-66.36 11.84,-21.29 16.98,-46.14 20.2,-70.07 3.66,-27.21 5.1,-54.67 8.72,-81.9 2.65,-19.9 6.42,-39.73 12.85,-58.79 2.72,-8.07 6.29,-16.05 9.76,-23.82 3.98,-8.9 8.06,-17.75 11.79,-26.76 6.91,-16.66 17.86,-45.25 9.55,-62.87 -5.8,-12.31 -20.07,-17.02 -33.05,-18.96zm-485.13 1686.98c-6.39,21.19 5.99,39.76 15.79,58.08 5.58,10.43 11.98,20.27 18.42,30.19 4.83,7.43 9.68,14.94 13.83,22.79 19.28,-8.3 35.81,-22.25 43.7,-42.24 6.6,-16.74 6.06,-36.03 -3.14,-51.71 -7.29,-12.41 -18.91,-20.62 -32.83,-24.03 -18.48,-4.53 -38.42,-0.22 -55.76,6.91zm1953.74 -2494.57l-50.48 21.25 -0.06 -41.2 50.54 19.95zm103.2 -0.39l50.48 21.22 0.05 -41.18 -50.52 19.95zm-50.22 123.68c48.2,0 87.28,39.08 87.28,87.29 0,48.21 -39.08,87.28 -87.28,87.28 -48.21,0 -87.29,-39.08 -87.29,-87.28 0,-48.21 39.08,-87.29 87.29,-87.29zm-535.65 116.13l202.16 0.6c23.47,24.2 137.59,238.84 166.9,290.52 27.38,48.33 156.71,291.71 176.56,312.78 78.35,-154.85 182.03,-320.09 258.33,-469.03 28.95,-56.52 48.97,-88.98 81.58,-142.33l204.69 -1.57c-4.76,23.53 -282.54,527.65 -320.03,601.28 -21.31,41.88 -100.67,173.62 -106.25,204.42 189.59,6.4 392.17,0.26 589.71,1.65l-61.55 167.7 -1295.07 0.69 -65.3 -167.09 590.54 -2.07c-3.04,-26.24 -187.47,-356.02 -215.7,-411.42 -47.12,-92.4 -182.75,-320.13 -206.57,-386.15zm534.82 -289.22l-19.25 -48.51 37.82 0.02 -17.76 50.51 -0.81 -2.01z"/>
   <path class="fil0" d="M1686.95 6528.89l0 437.73 88.79 0 0 -365.82 173.22 0 0 365.82 88.8 0 0 -437.73 -350.82 0zm637.22 -5.01c-108.17,0 -214.49,65.04 -214.49,223.87 0,158.84 106.31,223.88 214.49,223.88 108.19,0 214.49,-65.04 214.49,-223.88 0,-158.83 -106.3,-223.87 -214.49,-223.87zm0 62.54c33.14,0 120.69,13.13 120.69,161.33 0,148.21 -87.55,161.34 -120.69,161.34 -33.14,0 -120.69,-13.13 -120.69,-161.34 0,-148.2 87.55,-161.33 120.69,-161.33zm313.29 -57.53l0 142.57c0,103.81 9.38,228.87 -59.41,228.87 -6.88,0 -18.13,-1.88 -23.76,-3.13l-3.75 69.42c11.87,2.5 28.14,5.01 42.52,5.01 130.07,0 127.56,-130.7 127.56,-277.65l0 -87.55 115.69 0 0 360.19 88.8 0 0 -437.73 -287.66 0zm375.21 0l0 437.73 106.3 0 154.46 -265.14 30.02 -66.29 1.88 0 -1.88 105.68 0 225.75 88.8 0 0 -437.73 -106.31 0 -153.2 267.64 -31.27 63.78 -1.88 0 1.88 -106.3 0 -225.12 -88.79 0zm467.13 0l0 437.73 88.79 0 0 -360.19 180.1 0 0 -77.54 -268.9 0zm318.93 0l0 437.73 88.79 0 0 -164.47 56.91 0c111.94,0 151.95,-78.78 151.95,-136.32 0,-27.52 -9.38,-136.95 -168.21,-136.95l-129.45 0zm88.79 204.48l0 -135.69 40.66 0c51.27,0 74.41,29.39 74.41,65.66 0,33.14 -20.64,70.04 -74.41,70.04l-40.66 0zm363.96 -204.48l-174.48 437.73 95.05 0 36.9 -98.8 180.72 0 36.89 98.8 100.06 0 -173.85 -437.73 -101.29 0zm-14.39 267.02l60.66 -178.85 1.26 0 64.4 178.85 -126.32 0zm599.71 -292.03l-88.81 0 0 56.28 -26.26 0c-100.06,0 -194.47,65.04 -194.47,187.59 0,122.57 94.42,187.6 194.47,187.6l26.26 0 0 56.28 88.81 0 0 -56.28 26.26 0c100.06,0 194.47,-65.03 194.47,-187.6 0,-122.56 -94.42,-187.59 -194.47,-187.59l-26.26 0 0 -56.28zm18.75 125.07c59.41,0 108.19,36.89 108.19,118.81 0,81.92 -48.78,118.82 -108.19,118.82l-18.75 0 0 -237.62 18.75 0zm-126.31 237.62c-59.41,0 -108.19,-36.89 -108.19,-118.82 0,-81.91 48.78,-118.81 108.19,-118.81l18.75 0 0 237.62 -18.75 0zm406.47 -337.68l0 437.73 106.3 0 154.46 -265.14 30.02 -66.29 1.88 0 -1.88 105.68 0 225.75 88.8 0 0 -437.73 -106.31 0 -153.2 267.64 -31.27 63.78 -1.88 0 1.88 -106.3 0 -225.12 -88.79 0zm778.54 0l-141.95 0c-30.64,0 -173.21,-1.88 -173.21,135.07 0,81.29 51.9,111.93 86.29,122.56l-104.44 180.1 106.32 0 85.04 -162.59 53.16 0 0 162.59 88.79 0 0 -437.73zm-88.79 206.35l-50.03 0c-11.25,0 -82.54,-0.62 -82.54,-68.78 0,-23.76 9.39,-68.79 81.92,-68.79l50.65 0 0 137.57zm322.05 -206.35l0 437.73 106.3 0 154.46 -265.14 30.02 -66.29 1.89 0 -1.89 105.68 0 225.75 88.8 0 0 -437.73 -106.31 0 -153.2 267.64 -31.27 63.78 -1.88 0 1.88 -106.3 0 -225.12 -88.79 0zm612.83 0l0 437.73 88.79 0 0 -164.47 56.91 0c111.94,0 151.95,-78.78 151.95,-136.32 0,-27.52 -9.38,-136.95 -168.21,-136.95l-129.45 0zm88.79 204.48l0 -135.69 40.66 0c51.27,0 74.41,29.39 74.41,65.66 0,33.14 -20.64,70.04 -74.41,70.04l-40.66 0zm277.66 -204.48l0 437.73 261.4 0 0 -77.54 -172.6 0 0 -111.94 156.97 0 0 -71.91 -156.97 0 0 -98.8 172.6 0 0 -77.54 -261.4 0zm336.44 0l0 437.73 88.79 0 0 -217.62 1.88 0 162.58 217.62 112.56 0 -193.85 -239.5 182.6 -198.24 -105.68 0 -158.21 186.97 -1.88 0 0 -186.97 -88.79 0zm452.75 0l0 142.57c0,103.81 9.38,228.87 -59.41,228.87 -6.88,0 -18.13,-1.88 -23.76,-3.13l-3.75 69.42c11.87,2.5 28.14,5.01 42.52,5.01 130.07,0 127.56,-130.7 127.56,-277.65l0 -87.55 115.69 0 0 360.19 88.81 0 0 -437.73 -287.66 0zm515.28 0l-174.48 437.73 95.05 0 36.89 -98.8 180.73 0 36.89 98.8 100.06 0 -173.85 -437.73 -101.3 0zm-14.39 267.02l60.66 -178.85 1.26 0 64.4 178.85 -126.32 0zm642.86 170.71l106.3 -312.67 20.02 -62.54 1.88 0 -1.26 67.54 0 307.67 88.81 0 0 -437.73 -150.09 0 -87.55 254.52 -19.38 77.54 -1.88 0 -19.39 -77.54 -87.55 -254.52 -150.07 0 0 437.73 88.79 0 0 -307.67 -1.24 -67.54 1.88 0 20.01 62.54 106.31 312.67 84.42 0zm443.37 -437.73l-174.48 437.73 95.05 0 36.89 -98.8 180.72 0 36.9 98.8 100.06 0 -173.85 -437.73 -101.3 0zm-14.39 267.02l60.66 -178.85 1.25 0 64.4 178.85 -126.32 0z"/>
  </g>
 </g>
</svg>
