<?xml version="1.0" encoding="UTF-8"?>
<!DOCTYPE svg PUBLIC "-//W3C//DTD SVG 1.1//EN" "http://www.w3.org/Graphics/SVG/1.1/DTD/svg11.dtd">
<!-- Creator: CorelDRAW 2020 (64-Bit) -->
<svg xmlns="http://www.w3.org/2000/svg" xml:space="preserve" width="197.911mm" height="43.3871mm" version="1.1" style="shape-rendering:geometricPrecision; text-rendering:geometricPrecision; image-rendering:optimizeQuality; fill-rule:evenodd; clip-rule:evenodd"
viewBox="0 0 4558.1 999.25"
 xmlns:xlink="http://www.w3.org/1999/xlink"
 xmlns:xodm="http://www.corel.com/coreldraw/odm/2003">
 <defs>
  <style type="text/css">
   <![CDATA[
    .fil1 {fill:#FEFEFE}
    .fil0 {fill:#FEFEFE;fill-rule:nonzero}
   ]]>
  </style>
 </defs>
 <g id="Слой_x0020_1">
  <metadata id="CorelCorpID_0Corel-Layer"/>
  <g id="_2724953871728">
   <path class="fil0" d="M1732.2 634.89l-72.57 0 0 -158.32 -19.79 0 0 158.32 -72.57 0 0 -329.84 72.57 0 0 131.47 19.79 0 0 -131.47 72.57 0 0 329.84zm169.08 0l-57.88 0 0 -10.37c-4.95,9.42 -19.01,14.14 -42.09,14.14 -35.73,0 -53.64,-13.98 -53.64,-41.94l0 -53.64c0,-11.94 4.32,-22.38 13.04,-31.34 8.64,-8.87 26.07,-20.03 52.3,-33.37 15.16,-7.7 22.78,-13.82 22.78,-18.38l0 -39.58c0,-8.72 -3.77,-13.12 -11.31,-13.12 -8.64,0 -12.88,10.68 -12.88,31.96 0,3.85 0.16,9.5 0.63,17.04 0.63,7.54 0.94,13.19 0.94,17.04l-63.14 0 0 -53.4c0,-36.05 26.08,-54.11 78.14,-54.11 48.77,0 73.12,18.77 73.12,56.39l0 212.67zm-65.5 -49.87l0 -68.87c-15.08,3.69 -22.62,10.44 -22.62,20.26l0 48.61c0,8.09 3.93,12.17 11.78,12.17 7.22,0 10.84,-4.08 10.84,-12.17zm365.11 120.55l-54.19 0 0 -70.68 -178.12 0 0 70.68 -50.89 0 0 -117.8 28.27 0c31.41,-30.08 47.12,-65.11 47.12,-105.16l0 -114.9 153.61 0 0 220.05 54.19 0 0 117.8zm-119.69 -117.8l0 -172.93 -25.45 0 0 37.07c0,32.83 -1.88,55.68 -5.65,68.48 -3.77,12.88 -13.82,35.26 -30.24,67.38l61.34 0zm290.34 -65.97l-87.64 0 0 61.88c0,9.03 3.69,13.51 11.15,13.51 7.3,0 11,-4.47 11,-13.51l0 -53.4 65.5 0 0 54.27c0,36.05 -25.6,54.11 -76.88,54.11 -50.81,0 -76.26,-18.77 -76.26,-56.39l0 -160.05c0,-37.62 25.44,-56.39 76.26,-56.39 51.28,0 76.88,18.06 76.88,54.11l0 101.86zm-65.5 -40.05l0 -61.34c0,-8.72 -3.69,-13.12 -11,-13.12 -7.46,0 -11.15,4.4 -11.15,13.12l0 61.34 22.15 0zm75.39 -114.03l68.09 0c6.44,7.54 9.82,26.15 10.13,56 0.16,25.52 4.24,38.25 12.25,38.25l5.65 0 0 -94.24 65.5 0 0 94.24 5.66 0c8.32,0 12.56,-12.65 12.72,-38.01 0.16,-29.84 3.61,-48.54 10.29,-56.23l65.1 0c-6.52,5.03 -10.29,19.63 -11.31,43.75 -1.73,40.68 -8.8,65.57 -21.28,74.61 -12.41,9.03 -26.86,13.59 -43.19,13.59l-17.98 0c54.19,10.44 81.28,31.96 81.28,64.63 0,41.07 4.16,64.63 12.49,70.6l-65.1 0c-6.36,-7.54 -9.82,-26.07 -10.29,-55.6 -0.31,-25.44 -4.56,-38.17 -12.72,-38.17l-5.66 0 0 93.77 -65.5 0 0 -93.77 -5.65 0c-7.85,0 -11.94,12.72 -12.25,38.17 -0.31,29.53 -3.69,48.06 -10.13,55.6l-68.09 0c8.64,-7.54 12.96,-31.02 12.96,-70.6 0,-17.04 6.2,-30.39 18.69,-40.13 12.49,-9.74 34.01,-17.91 64.48,-24.5 -33.22,0 -55.6,-6.52 -67.15,-19.48 -11.47,-12.96 -17.2,-35.18 -17.2,-66.68 0,-24.66 -3.93,-39.97 -11.78,-45.79zm429.66 267.17l-72.57 0 0 -127.23 -18.85 0 0 127.23 -72.57 0 0 -267.17 72.57 0 0 99.9 18.85 0 0 -99.9 72.57 0 0 267.17zm266.15 0l-72.57 0 0 -267.17 72.57 0 0 267.17zm-251.15 0l0 -267.17 70.68 0 0 82.46c35.81,0 60.47,3.46 73.98,10.37 13.51,6.91 20.26,22.93 20.26,48.06l0 67.85c0,22.22 -6.75,37.54 -20.26,45.86 -13.59,8.4 -38.32,12.57 -74.22,12.57l-70.45 0zm94.24 -64.63l0 -55.45c0,-11.7 -7.85,-17.51 -23.56,-17.51l0 90.47c15.71,0 23.56,-5.81 23.56,-17.51zm171.99 64.63l0 -267.17 60.32 0 0 138.53 60.16 -138.53 63.77 0 0 267.17 -60.31 0 0 -122.43 -49.4 122.43 -74.53 0zm157.38 -342.09c-3.69,36.44 -25.84,54.66 -66.44,54.66 -41.07,0 -63.22,-18.22 -66.44,-54.66l35.81 0c2.9,15.7 13.12,23.56 30.63,23.56 17.67,0 27.88,-7.85 30.63,-23.56l35.81 0zm291.67 342.09l-70.21 0 0 -224.76 -25.45 0 0 224.76 -67.85 0 -0.47 -267.17 163.98 0 0 267.17zm168.14 0l-57.88 0 0 -10.37c-4.95,9.42 -19.01,14.14 -42.09,14.14 -35.73,0 -53.64,-13.98 -53.64,-41.94l0 -53.64c0,-11.94 4.32,-22.38 13.04,-31.34 8.64,-8.87 26.07,-20.03 52.3,-33.37 15.16,-7.7 22.78,-13.82 22.78,-18.38l0 -39.58c0,-8.72 -3.77,-13.12 -11.31,-13.12 -8.64,0 -12.88,10.68 -12.88,31.96 0,3.85 0.16,9.5 0.63,17.04 0.63,7.54 0.94,13.19 0.94,17.04l-63.14 0 0 -53.4c0,-36.05 26.08,-54.11 78.14,-54.11 48.77,0 73.12,18.77 73.12,56.39l0 212.67zm-65.5 -49.87l0 -68.87c-15.08,3.69 -22.62,10.44 -22.62,20.26l0 48.61c0,8.09 3.93,12.17 11.78,12.17 7.22,0 10.84,-4.08 10.84,-12.17zm146 43.74l0 62.67 -65.5 0 0 -323.72 49.56 0 5.58 10.76c10.76,-8.4 23.48,-12.64 38.17,-12.64 14.92,0 28.66,3.77 41.31,11.31 12.64,7.46 19.01,18.3 19.01,32.43l0 192.02c0,11.23 -4.63,20.18 -13.82,26.94 -9.19,6.76 -20.42,10.13 -33.54,10.13 -18.3,0 -31.88,-3.3 -40.76,-9.9zm22.62 -43.74l0 -165.55c0,-8.09 -3.69,-12.17 -11.15,-12.17 -7.62,0 -11.47,4.09 -11.47,12.17l0 166.02c0,7.78 3.85,11.7 11.47,11.7 7.46,0 11.15,-4.08 11.15,-12.17zm232.3 -174.9l-40.52 0 0 224.76 -72.57 0 0 -224.76 -40.52 0 0 -42.41 153.61 0 0 42.41zm177.25 224.76l-72.57 0 0 -127.23 -18.85 0 0 127.23 -72.57 0 0 -267.17 72.57 0 0 99.9 18.85 0 0 -99.9 72.57 0 0 267.17zm167.67 -113.09l-87.64 0 0 61.88c0,9.03 3.69,13.51 11.15,13.51 7.3,0 11,-4.47 11,-13.51l0 -53.4 65.5 0 0 54.27c0,36.05 -25.6,54.11 -76.88,54.11 -50.81,0 -76.26,-18.77 -76.26,-56.39l0 -160.05c0,-37.62 25.44,-56.39 76.26,-56.39 51.28,0 76.88,18.06 76.88,54.11l0 101.86zm-65.5 -40.05l0 -61.34c0,-8.72 -3.69,-13.12 -11,-13.12 -7.46,0 -11.15,4.4 -11.15,13.12l0 61.34 22.15 0zm145.6 147.01l0 62.67 -65.5 0 0 -323.72 49.56 0 5.58 10.76c10.76,-8.4 23.48,-12.64 38.17,-12.64 14.92,0 28.66,3.77 41.31,11.31 12.64,7.46 19,18.3 19,32.43l0 192.02c0,11.23 -4.63,20.18 -13.82,26.94 -9.19,6.76 -20.42,10.13 -33.53,10.13 -18.3,0 -31.89,-3.3 -40.76,-9.9zm22.62 -43.74l0 -165.55c0,-8.09 -3.69,-12.17 -11.15,-12.17 -7.62,0 -11.47,4.09 -11.47,12.17l0 166.02c0,7.78 3.85,11.7 11.47,11.7 7.46,0 11.15,-4.08 11.15,-12.17z"/>
   <path class="fil1" d="M655.63 57.63c4.47,4.41 7.25,10.55 7.25,17.34 0,8.73 -4.59,16.39 -11.49,20.69 21.6,2.37 29.18,6.96 41.66,15.55 3.53,-6.8 19.95,-37.3 23.5,-40.9 33.92,-0.46 75.92,-2.73 101.23,12.11 19.55,11.46 43.99,35.65 44.4,68.48 0.73,59.39 -45.31,89.16 -55.64,115.99 -4.59,11.91 -10.1,28.98 -15.98,39.82l-300.77 -0.11c-6.17,-12.71 -11.41,-27.3 -16.48,-40.73 -6.9,-18.31 -25.8,-32.71 -35.43,-50.35 -27.99,-51.3 -30.63,-100.58 25.78,-133.54 25.5,-14.9 67.18,-11.67 100.1,-11.67 3.71,3.81 20.21,34.24 23.57,40.99 12.14,-8.31 23.3,-13.44 37.81,-15.94 -6.62,-4.36 -11,-11.85 -11,-20.38 0,-4.92 1.54,-9.96 4.41,-13.98 1.24,-1.76 2.7,-3.35 4.35,-4.73l0.27 -0.27c4.07,-4.02 9.64,-8.44 10.43,-24.93 -0.75,0.07 -1.43,0.13 -2.05,0.19l-0.01 0 -0.3 0.03 0 -0.01c-6.78,0.58 -12.98,3.84 -17.99,6.35 -3.62,-8.96 -3.54,-13.28 -0.09,-21.79 10.08,5.25 15.47,7.02 18.07,6.59 5.89,-1.78 -3.5,-20.15 -3.57,-20.49 9.41,-2.85 12.97,-2.31 20.92,0.01 -1.99,8.62 -8.8,19.11 -3.86,20.34l0.22 0.05 0.12 0.02 0.01 0 0.26 0.03 0.14 0.01 0.14 0.01 0.15 0 0.15 0 0.01 0 0.31 -0.01 0.17 -0.01 0.02 -0 0.33 -0.03 0.19 -0.02 0.06 -0.01 0.29 -0.04 0.03 -0.01 0.2 -0.04 0.2 -0.04 0.19 -0.04 0.02 -0 0.21 -0.05 0.22 -0.05 0.03 -0.01 0.08 -0.02 0.35 -0.09 0.23 -0.06 0.18 -0.05 0.07 -0.02 0.24 -0.07 0.26 -0.08 0.03 -0.01 0.23 -0.07 0.26 -0.09 0.11 -0.04 0.44 -0.15 0.29 -0.1 0.29 -0.1 0.03 -0.01 0.26 -0.1 0.3 -0.11 0.3 -0.12 0.03 -0.01 0.28 -0.11 0.32 -0.13 0.32 -0.13 0.03 -0.01 0.3 -0.12 0.34 -0.14 0.34 -0.15 0.03 -0.01 0.32 -0.14 0.35 -0.15 0.36 -0.16 0.03 -0.01 0.34 -0.15 0.76 -0.34 0.02 -0.01 0.37 -0.17 0.4 -0.18 0.15 -0.07 0.53 -0.25 0.97 -0.47 0.01 -0.01 1.3 -0.64 0.01 -0 1.37 -0.69 0 -0 0.47 -0.24 0.48 -0.25 0.49 -0.25c3.45,8.5 3.53,12.82 -0.09,21.79l-0.24 -0.12 -0.02 -0.01 -0.23 -0.11 -0.03 -0.01 -0.21 -0.11 -0.06 -0.03 -0.19 -0.1 -0.07 -0.04 -0.18 -0.09 -0.09 -0.05 -0.16 -0.08 -0.11 -0.06 -0.14 -0.07 -0.13 -0.06 -0.12 -0.06 -0.15 -0.08 -0.1 -0.05 -0.17 -0.09 -0.09 -0.04 -0.19 -0.09 -0.06 -0.04 -0.21 -0.11 -0.05 -0.02 -0.23 -0.12 -0.03 -0.01 -0.25 -0.13 -0.01 -0 -0.26 -0.13 -0.01 -0 -0.26 -0.13 -0.03 -0.02 -0.23 -0.12 -0.05 -0.03 -0.22 -0.1 -0.07 -0.03 -0.2 -0.1 -0.09 -0.05 -0.18 -0.08 -0.11 -0.06 -0.16 -0.07 -0.13 -0.07 -0.14 -0.06 -0.16 -0.07 -0.12 -0.05 -0.18 -0.09 -0.1 -0.05 -0.2 -0.09 -0.08 -0.04 -0.22 -0.1 -0.06 -0.03 -0.24 -0.11 -0.04 -0.02 -0.26 -0.12 -0.01 -0 -0.29 -0.12 -0 -0 -0.57 -0.24 -0.05 -0.02 -0.24 -0.1 -0.06 -0.03 -0.22 -0.09 -0.09 -0.03 -0.2 -0.08 -0.11 -0.05 -0.18 -0.07 -0.14 -0.05 -0.16 -0.06 -0.16 -0.06 -0.14 -0.05 -0.18 -0.06 -0.12 -0.04 -0.3 -0.1 -0.22 -0.08 -0.07 -0.02 -0.25 -0.09 -0.05 -0.01 -0.27 -0.09 -0.03 -0.01 -0.29 -0.09 -0 -0 -0.3 -0.09 -0.02 -0 -0.29 -0.09 -0.03 -0.01 -0.27 -0.07 -0.61 -0.16 -0.11 -0.03 -0.2 -0.05 -0.31 -0.07 -0.15 -0.03 -0.15 -0.03 -0.18 -0.03 -0.14 -0.03 -0.2 -0.04 -0.11 -0.02 -0.23 -0.04 -0.09 -0.01 -0.25 -0.05 -0.07 -0.01 -0.27 -0.04 -0.04 -0.01 -0.3 -0.04 -0.02 -0 -0.32 -0.04 -0 0 -0.31 -0.03 -0.03 -0 -0.29 -0.03 -0.05 -0 -0.26 -0.02 -0.32 -0.02 -0.1 -0 -0.22 -0.01 -0.32 -0.01c-0.51,-0.01 -1.02,0 -1.54,0.03 -0.19,11.25 4.88,18.87 12.49,26.4zm-135.01 381.38l0 208.68c0,11.42 17.13,31.81 25.06,39.25 21.21,19.89 49.43,32.67 78.52,34.59 20.39,1.35 42.28,-2.81 61.53,-9.39 19.13,-6.53 62.95,-28.23 68.56,-49.51 0.12,-0.45 0.21,-0.94 0.21,-1.41l0 -222.21 -233.88 0zm-17.71 -17.7l0 226.38c0,17.57 18.53,40.78 30.66,52.16 24.2,22.69 56.29,37.16 89.47,39.35 22.71,1.5 46.97,-2.97 68.42,-10.3 25.75,-8.8 72.38,-33.02 79.95,-61.74 0.51,-1.93 0.79,-3.94 0.79,-5.94l0 -239.92 -269.29 0zm-29.51 -29.51l0 255.9c0,26.91 21.18,56.06 39.98,73.69 29.18,27.37 67.73,44.63 107.72,47.27 26.61,1.76 54.76,-3.23 79.9,-11.82 36.48,-12.47 88.35,-41.98 98.95,-82.14 1.16,-4.4 1.77,-8.91 1.77,-13.46l0 -269.43 -328.32 0zm-44.27 -43.17l0 117.48c4.65,-0.15 7.64,1.15 11.88,5.01 3.37,3.06 6.75,7.02 6.28,11.9 -0.67,6.87 -3.86,12.18 -10.4,14.76 -0.21,0.08 -0.42,0.16 -0.63,0.24 6.55,2.08 13.16,7 14.78,13.9 1.83,7.8 -3.6,14.2 -9.57,18.39l-0.21 0.15 -0.25 0.07c-1.97,0.52 -3.96,1.03 -5.99,1.26 -1.77,0.2 -3.64,0.23 -5.5,0.2 1.42,2.06 2.33,4.57 2.84,6.88 0.85,3.86 1.21,10.97 -2.35,13.69 -0.28,0.22 -0.58,0.43 -0.88,0.63l0 94.52c0,40.09 25.67,79.45 53.97,105.98 36.65,34.37 84.86,55.83 135.07,59.14 32.46,2.14 66.45,-3.62 97.13,-14.1 51.79,-17.69 112.6,-56.48 127.44,-112.73 2.13,-8.09 3.23,-16.39 3.23,-24.75l0 -115.19c-0.72,-1.28 -1.21,-2.8 -1.43,-4.58l-0 -0.03 -0 -0.03c-0.23,-2.91 0.07,-6.03 0.98,-8.92 -3.39,1.61 -7.3,2 -11.09,0.98 -4.86,-1.3 -8.8,-4.72 -10.7,-9.39 -2.4,-5.94 -1.08,-12.48 1.57,-18.09 -1.28,-4.27 -1.29,-9.11 -1.08,-13.5l0 -0.06 0.01 -0.06c1.29,-9.76 6.47,-18.07 13.31,-24.94 2.59,-2.6 5.38,-4.96 8.31,-7.16l0.14 -0.1 0 -111.82c-2.63,-0.25 -5.81,-0.25 -7.85,-0.22l-0.05 0.95 -1.54 -0.19c-1.21,-0.16 -2.42,-0.37 -3.62,-0.64 -3.82,0.12 -7.63,0.27 -11.45,0.39 -3.91,0.12 -7.84,0.2 -11.75,0.13 -3.39,-0.06 -6.89,-0.22 -10.24,-0.74l-0.54 -0.09 -0.33 -0.4 -310.75 0 -0.09 0.13 -12.8 0.03 -45.82 0.95zm-8.86 119.74l0 -89.11 -0.16 0.08c-2.88,1.49 -5.84,4.09 -8.19,6.3 -3.32,3.12 -6.44,6.51 -9.43,9.94 -4.6,5.28 -9.06,10.86 -13.14,16.55l-12.15 19.37c-0.15,0.33 -0.23,0.68 -0.28,1.03 -0.14,1.08 0.06,2.31 0.13,3.4 0.11,1.56 0.04,3.01 -0.61,4.46 -1.88,4.2 -8.16,6.31 -12.74,7.49 0.47,0.87 1,1.73 1.51,2.54 1.2,1.9 2.49,3.75 3.83,5.56 3.31,4.49 6.93,8.83 10.73,12.91 4.22,4.53 17.26,17.75 24.32,16.28 2.55,-1.52 4.77,-3.31 6.57,-5.69 1.37,-1.8 2.34,-3.77 3.58,-5.64 1.69,-2.56 3.67,-4.25 6.03,-5.47zm0 -125.9l0 -3.79 9.92 0c-3.22,-5.21 -3.79,-10.04 -3.8,-16.95 -3.59,-0.15 -7.41,0.45 -10.3,2.66 -2.31,1.77 -3.68,4.34 -3.84,7.24 -0.22,3.89 1.79,7.6 5.12,9.61 0.92,0.55 1.9,0.96 2.9,1.24zm26.51 -3.79l8.06 0c1.77,-1.1 3.07,-2.92 4.01,-4.86 1.67,-4.67 1.89,-10.81 -1.45,-14.83 -2.54,-3.06 -6.36,-3.84 -10.17,-3.46 -3.94,0.39 -8.76,1.74 -10.15,5.94 -1.37,4.12 1.04,9.12 3.61,12.26 1.53,1.87 3.68,3.8 6.09,4.95zm23.45 0l1.52 0c2.46,-0.13 4.84,-0.91 6.93,-2.43 2.81,-2.05 4.73,-5.22 5.24,-8.66 0.57,-3.79 -0.63,-7.42 -3.29,-10.15 -2.49,-1.32 -6.16,-2.78 -8.76,-1.04 -4.98,3.34 -4.19,16.03 -3.39,22.08 0.58,0.1 1.17,0.16 1.76,0.19zm21.9 0l299.14 0 -1.4 -1.69 -0.04 -0.44c-0.26,-2.75 -0.09,-5.58 0.38,-8.3 0.93,-5.36 3.52,-12.42 7.98,-15.84 4.29,-3.29 9.32,-5.25 14.36,-2.33 1.61,0.93 2.96,2.2 4.22,3.55 0.55,0.59 1.18,1.35 1.82,1.99 5.41,-4.68 12.43,-8.44 19.4,-4.63 2.14,1.17 3.89,2.83 5.52,4.63 0.39,0.43 1.88,2.21 2.5,2.68 2.53,0.12 4.98,-0.05 7.51,-0.2 2.27,-0.13 4.61,-0.23 6.83,0.34 2.61,0.67 4.62,2.15 6.34,4.19 1.87,2.21 2.97,5.09 3.89,7.8 0.9,2.67 1.93,6.62 3.65,8.83 6.12,7.93 20.79,13.65 30.87,13.68 3.7,-4.98 5.29,-13.7 6.46,-20.2 -0.56,0.09 -1.11,0.2 -1.66,0.34 -0.79,0.19 -1.59,0.42 -2.41,0.5 -1.32,0.13 -2.5,-0.19 -3.72,-0.64l-0.65 -0.24 -0.22 -0.66c-0.52,-1.55 0.71,-4.9 1.25,-6.4 1.12,-3.15 2.44,-6.27 3.75,-9.35 1.04,-2.44 2.1,-4.86 3.15,-7.3 0.76,-1.77 1.55,-3.56 2.22,-5.37 7.01,-18.88 13.79,-38.52 24.26,-55.81 3.1,-5.12 7.23,-9.14 11.73,-13.02 4.1,-3.54 8.47,-6.93 12.06,-10.99 1.2,-1.36 2.31,-2.79 3.28,-4.31l0.02 -0.06 0.05 -0.07 0.04 -0.08 0.06 -0.06c0.23,-0.38 0.46,-0.74 0.7,-1.11l0.05 -0.08c6.62,-11.02 14.39,-16.81 27.53,-17.26l0.82 -0.03 0.44 0.68c1.69,2.59 2.91,5.17 3.75,8.14 0.33,1.17 0.7,3.22 1.34,4.2 0.67,1.03 2.06,1.5 3.18,1.82 3.16,0.89 7.08,1.24 10.35,1.56 6.8,0.67 16.04,1.84 22.2,5 3.61,1.85 5.37,3.87 7.4,7.26 1.83,3.05 3.1,4.79 6.34,6.55 13.03,7.08 29.45,7.43 43.86,9.51l1.09 0.16 0.13 1.1c1.3,10.67 -4.03,22.98 -10.24,31.67 4.01,2.3 8.15,4.52 12.39,6.36 2.78,1.21 5.8,2.36 8.77,2.95 2.72,0.54 6.14,0.78 8.18,-1.48 3.14,-3.48 2.41,-11.09 5.21,-15.48l1.29 -2.03 1.18 2.09c6.52,11.54 5.93,28.62 -8.8,33.12 -2.66,0.82 -5.38,1.11 -8.16,0.97 -10.95,-0.56 -20.76,-7.43 -31.69,-8.84 -1.49,6.78 -4.56,14.38 -8.14,20.11 -2.07,3.31 -4.04,3.21 -7.45,1.87 -2.69,-1.05 -4.49,-1.52 -7.14,-1.35 1.63,18.28 14.59,33.29 27.49,45.29l21.46 17.5c1.97,1.39 4,2.63 6.07,3.86 1.76,1.05 3.53,2.1 5.14,3.36 4.29,3.36 6.5,7.7 8.29,12.76l0.62 1.75 -7.12 0.66c1.74,1.48 3.76,2.75 5.64,3.84 3.45,1.99 7.09,3.69 10.67,5.45 7.05,3.46 16.97,8.28 20.18,15.92 0.81,1.92 1.17,3.94 1.11,6.01l-0.04 1.39 -1.39 0.01c-2.94,0.03 -5.88,-0.01 -8.81,0.03 -0.41,0.01 -1.64,0.02 -2.53,0.11 0.6,0.68 1.5,1.55 1.8,1.84 2.05,1.99 4.1,3.95 6.1,5.99 18.13,18.53 38.38,34.81 56.69,53.16 4.31,4.32 8.57,8.76 12.55,13.4 2.51,2.93 4.97,5.99 7.08,9.22 1.35,2.05 2.54,4.18 3.5,6.44 0.68,1.6 1.2,3.21 1.76,4.84 1.32,3.85 2.88,6.45 5.47,9.62 1.31,1.61 2.61,2.95 4.6,3.63 1,0.35 2.05,0.57 3.07,0.88 1.6,0.5 3.09,1.15 4.56,1.97 4.43,2.47 9.72,12.4 11.82,16.91 2.17,4.67 7.96,18.27 3,22.58 -0.88,0.76 -1.96,1.11 -3.1,1.17l-0.17 0.01 -5.46 -0.98c-1.09,-0.15 -2.18,-0.31 -3.27,-0.42 -0.11,-0.01 -0.26,-0.03 -0.43,-0.04 -0.09,0.53 -0.29,0.97 -0.76,1.53l-0.04 0.04 -0.04 0.04c-0.95,0.98 -1.67,2.12 -2.15,3.4 -2.09,5.63 0.88,13.3 3.24,18.44 1.81,3.94 3.9,7.71 5.9,11.55 1.13,2.18 3.22,6.1 3.23,8.56l0 1.01 -0.95 0.35c-2.91,1.08 -5.63,2.3 -8.63,3.17l-6.32 1.83c0.92,1.07 1.95,2.03 3.19,2.72 2.69,1.49 7.1,1.9 10.12,2.31l1.46 0.2 -0.23 1.45c-0.66,4.21 -2.95,8.89 -5.1,12.54 -2.32,3.94 -6.08,9.39 -9.69,12.27 -5.71,5.32 -14.73,4.97 -21.82,7.42 -2.18,0.76 -4.64,2.07 -5.22,4.51 -1.41,5.88 7.95,14.81 12.33,17.73 5.33,3.56 11.3,8.31 12.1,15.13 0.56,4.76 -1.44,10.34 -2.68,14.91 -2.01,7.43 -2.94,14.14 -2.47,21.87 0.65,10.8 -16.54,25.67 -24.07,31.93 -8.95,7.46 -18.51,14.33 -28.18,20.83 -4.03,2.7 -8.06,5.4 -12.08,8.12 -2.32,1.57 -4.66,3.14 -6.94,4.77 -1.34,0.95 -3.61,2.49 -4.47,3.94 -0.3,0.51 -0.56,1.08 -0.84,1.61 -0.51,0.98 -1.08,1.91 -1.7,2.82 -2.61,3.85 -5.99,7.62 -9.17,11.06 1.6,3.36 3.46,6.37 5.34,9.6 1.48,2.54 2.77,5.07 3.81,7.83 1.41,3.73 2.31,7.65 2.95,11.58 1.2,7.26 1.51,14.48 1.56,21.82 0.04,5.68 -0.04,11.35 0.14,17.02 0.4,-0.2 0.79,-0.42 1.16,-0.62 1.56,-0.86 3.09,-1.78 4.62,-2.69 4.86,-2.89 9.73,-5.66 14.77,-8.25 18.55,-9.5 38.55,-16.42 58.66,-21.79 3.29,-0.88 6.65,-1.51 9.91,-2.42 1.72,-0.48 4,-1.19 5.2,-2.6 2.24,-2.62 0.85,-8.44 0.13,-11.37l-0.66 -2.67 2.57 0.98c9.8,3.71 15.84,11.22 13.79,22.11 -0.27,1.44 -0.65,2.91 -1.29,4.23 -0.19,0.4 -0.65,1.1 -0.77,1.47 -0.2,0.65 1.63,4.71 1.89,5.32 2.1,4.86 3.68,7.81 3.84,13.35 0.53,17.38 -18.51,30.45 -32.8,36.16l-3.5 1.4 1.67 -3.38c3.57,-7.24 11.09,-15.43 8.75,-24.07 -0.26,-0.98 -0.71,-1.85 -1.39,-2.6 -1.8,-2.01 -4.96,-2.83 -7.52,-3.27 -3.8,-0.65 -7.83,-0.76 -11.68,-0.99 -6.08,-0.36 -12.06,0.28 -17.94,1.84 -9.08,2.42 -17.43,6.91 -25.18,12.13 -8.67,5.84 -16.77,12.67 -24.7,19.46 -8.75,7.49 -17.4,15.06 -26.51,22.11 -9.67,7.49 -19.77,14.35 -30.66,19.96 -24,14.42 -54.75,20.18 -82.49,18.56 -10.92,-0.64 -21.81,-2.41 -32.32,-5.48 -15.49,-4.52 -30.02,-10.8 -44.24,-18.39 -8.99,-4.79 -17.74,-10.01 -26.41,-15.35 -3.25,-2 -6.28,-4.46 -9.3,-6.78 -2.85,-2.19 -6.09,-4.65 -9.43,-6.26 -0.93,7.04 -4.03,13.48 -10.13,17.57 -9.88,6.63 -23.01,4.32 -32.86,-1.09l-1.96 -1.08 1.78 -1.34c2.81,-2.11 5.87,-3.21 9.17,-4.26 2.24,-0.71 5.11,-1.52 6.91,-3.09 1.68,-1.46 2.27,-3.45 2.43,-5.62 0.31,-4.15 -0.95,-9.28 -2.08,-13.23 -0.95,-3.31 -2.45,-6.52 -4.19,-9.49 -3.31,-5.65 -8.66,-12.3 -14.01,-16.16 -3.44,-2.49 -6.83,-5.16 -10.21,-7.74 -5.44,-4.15 -10.88,-8.29 -16.38,-12.38 -5.63,-4.18 -11.32,-8.35 -17.14,-12.27 -2.15,-1.45 -4.35,-2.89 -6.6,-4.19 -0.58,-0.34 -1.37,-0.79 -2.16,-1.18 -0.49,25.18 -12.16,41.33 -38.58,43.88l-2.44 0.23 0.97 -2.25c0.97,-2.25 2.26,-4.17 4,-5.9 1.35,-1.33 2.84,-2.41 4.3,-3.59 1.55,-1.25 2.83,-2.49 3.82,-4.24 1.39,-2.46 1.93,-5.43 2.16,-8.21 0.56,-6.75 -0.76,-13.48 -3.74,-19.56 -9.41,-19.22 -33.74,-30.4 -54.46,-24.92 -11.22,2.97 -22.87,9.2 -28.05,20.13 -3.35,7.07 -3.45,15.82 1.66,22.1 4.74,5.83 12.08,7.16 19.16,5.7 8.21,-1.68 12.63,-6.65 17.11,-13.28l3.49 -5.15 0.5 3.77c1.27,9.73 0.89,21.07 -6.46,28.48 -7.04,7.09 -18.26,8.35 -27.9,8.06 1.18,7.22 0.6,14.36 -1.52,21.41 -2.19,7.27 -5.88,14.02 -10.19,20.23 -5.19,7.47 -11.32,14.22 -17.59,20.79 -2.73,2.86 -5.5,5.7 -8.2,8.59 -2.17,2.32 -4.36,4.74 -6.26,7.29l-0.61 0.82 -0.98 -0.31c-11.8,-3.7 -26.44,-24.51 -34,-34.34 -5.13,-6.67 -9.97,-13.57 -13.08,-21.45 -3.4,-8.6 -4.27,-17.3 -2.39,-26.25 -21.31,0.85 -38.46,-5.13 -41.24,-29.28l-0.96 -8.39 3.7 7.59c1.79,3.68 4.15,6.41 8.04,7.97 5.74,2.3 13.01,1.97 18.67,-0.42 7.01,-2.96 11.18,-8.7 12.09,-16.23 0.23,-7.32 -1.77,-14.3 -6.77,-19.78 -5.45,-5.97 -13.38,-9.09 -21.22,-10.29 -8.94,-1.37 -18.49,-0.4 -27.08,2.33 -9.6,3.04 -18.78,8.51 -25.07,16.48 -7.89,10 -9.7,21.98 -6.91,34.25 2.42,10.65 5.91,14.27 15.21,19.5l2.14 1.2 -8.97 5.53 -0.25 0.05c-19.88,4.08 -37.27,-13.72 -42.54,-31.51 -5.39,0.86 -9.06,4.6 -13.14,8 -4.12,3.42 -8.34,6.69 -12.52,10.03 -4.74,3.79 -9.86,7.07 -14.56,10.87 -3.3,2.67 -6.19,5.53 -8.71,8.96 -6.65,9.05 -22.04,36.77 -8.14,45.27 3.96,2.42 9.14,-0.91 12.93,-2.35l2.06 -0.78 -0.11 2.2c-0.07,1.46 -0.45,2.85 -1.13,4.13 -3.23,6.08 -12.11,8 -18.39,8.2 -3.78,0.12 -7.84,-0.27 -11.46,-1.39 -14.27,-4.39 -14.66,-12.9 -18.03,-24.85 -6.24,5.02 -13.65,9.39 -20.6,13.14 -9.61,5.18 -19.65,9.76 -29.78,13.83 -7,2.81 -14.11,5.4 -21.3,7.69 -6.56,2.09 -13.24,3.97 -19.97,5.41 -40.73,8.72 -75.7,5.05 -112.21,-14.96 -7.35,-4.03 -14.49,-8.56 -21.59,-13.02 -7.93,-4.99 -15.87,-9.99 -24,-14.65 -13.26,-7.6 -28.38,-15.16 -43.49,-18.05 -6.67,-1.28 -13.69,-1.57 -20.45,-1.03 -20.1,1.6 -44.15,11.64 -39.97,35.96 0.54,3.13 1.35,7.76 3.98,9.9 1.21,0.99 2.87,1.68 4.28,2.31 2.48,1.11 4.81,2.25 7.13,3.68l2.02 1.24 -2.03 1.22c-4.88,2.95 -11.76,1.47 -16.74,-0.46 -3.85,-1.49 -8.09,-3.83 -11.17,-6.6 -12.21,-10.94 -13.4,-26.41 -10.65,-41.67 0.38,-2.1 0.88,-4.77 0.19,-6.85 -0.28,-0.85 -0.62,-1.66 -0.88,-2.53 -0.45,-1.55 -0.68,-3.15 -0.82,-4.75 -0.96,-10.84 4.58,-19.99 15.3,-22.62l2.91 -0.71 -1.26 2.72c-3.02,6.55 -1.87,10.4 2.6,15.36 4.59,0.33 10.24,-0.64 14.7,-1.39 6.64,-1.12 13.24,-2.43 19.93,-3.3 5.07,-0.65 10.24,-1.08 15.36,-0.9 11.63,0.41 22.81,2.06 34.1,4.83 3.99,0.98 7.95,2.08 11.89,3.24 -0.48,-2.36 -1.19,-4.63 -2.04,-6.92 -1.7,-4.55 -3.67,-8.85 -5.09,-13.53 -2.03,-6.71 -2.84,-13.47 -2.91,-20.47 -0.15,-14.16 2.49,-30.21 10.8,-42.03 -0.01,-0.91 0.08,-1.87 0.15,-2.76 0.09,-1.34 0.19,-2.67 0.18,-4.01 -0,-1.49 -0.11,-3.25 -0.67,-4.64 -0.56,-1.38 -1.25,-2.65 -1.9,-3.98 -1.23,-2.5 -1.84,-4.65 -2.11,-7.44 -0.49,-4.94 1.07,-9.24 3.03,-13.66 1.14,-2.57 3.27,-6.65 2.87,-9.51 -0.46,-3.27 -4.18,-5.27 -6.87,-6.48 -3.23,-1.45 -6.8,-2.49 -10.22,-3.36 -5.34,-1.36 -10.81,-2.38 -16.24,-3.28 -7.8,-1.29 -19.35,-4.02 -24.45,-10.75 -1.32,-1.75 -2.14,-3.66 -2.5,-5.82 -0.12,-0.7 -0.18,-1.39 -0.23,-2.1 -0.02,-0.21 -0.03,-0.66 -0.09,-0.9 -2,-2.61 -4.47,-4.36 -7.21,-6.12 -2.4,-1.54 -5.13,-3.15 -6.75,-5.55 -2.12,-3.15 -1.77,-6.86 -0.73,-10.3 -8.38,-3.68 -11.87,-9.17 -15.01,-17.9l-0.27 -0.75 0.49 -0.63c0.37,-0.47 0.91,-1.31 1.32,-1.71 0.21,-0.2 0.45,-0.35 0.68,-0.51 0.46,-0.31 0.91,-0.64 1.35,-0.97 0.14,-0.1 0.27,-0.21 0.41,-0.31 -2.5,-2.48 -4.71,-5.53 -6.38,-8.5 -2.64,-4.7 -4.36,-9.97 -4.58,-15.38l-0.07 -1.78 16.04 2.77c0.06,-3.32 -0.04,-6.59 -0.18,-9.92 -0.12,-2.8 -0.24,-5.67 0.21,-8.44 0.76,-4.71 3.16,-8.53 6.07,-12.22l0.42 -0.53 0.67 -0.02c4.8,-0.14 9.61,-0.06 14.41,-0.07 9.8,-0.02 24.97,-0.03 32.62,-7.06 1.52,-1.4 2.71,-3.02 3.6,-4.86 -1.58,-2.24 -3.62,-4.92 -6.04,-6.04 -1.61,-0.75 -3.44,-0.91 -5.18,-0.94 -2.99,-0.05 -6.11,0.23 -9.09,0.43 -4.66,0.31 -10,0.47 -14.59,-0.52 -3.16,-0.68 -6.01,-1.92 -8.21,-4.36 -2.39,-2.64 -3.57,-6.24 -4.53,-9.61 -1.31,-4.59 -2.38,-9.13 -3.94,-13.66 -0.73,-2.13 -1.46,-3.4 -2.64,-5.26 -1.11,-1.75 -1.73,-3.28 -2.23,-5.3 -0.51,-2.03 -0.65,-4.46 -0.78,-6.56 -0.12,-1.88 -0.18,-3.78 -0.32,-5.66l-0.13 -1.73 1.72 0.18c1.6,0.17 3.22,0.52 4.79,0.86 1.81,0.39 3.61,0.8 5.43,1.15 3.14,0.6 8.83,1.55 11.57,-0.58 1.75,-1.36 2,-3.77 1.91,-5.83 -0.05,-1.08 -0.33,-2.07 -0.98,-2.94 -1.35,-1.81 -4.04,-2.69 -6.15,-3.19 -3.24,-0.78 -6.71,-1.11 -10.02,-1.53 -2.99,-0.38 -6.05,-0.82 -8.94,-1.67 -21.09,-6.17 -32.93,-21.18 -33.18,-43.42 -0.12,-10.38 2.81,-22.04 7.93,-31.08 2.41,-4.26 5.38,-7.67 8.29,-11.54 0.91,-1.22 2.54,-3.31 2.63,-4.91 0.05,-0.94 -0.16,-2.12 -0.22,-3.08 -0.14,-2.19 0.03,-4.36 0.34,-6.54 0.93,-6.46 3.16,-11.61 8,-16.06 2.64,-2.43 5.7,-4.39 8.63,-6.45 3.33,-2.35 7.28,-5.09 9.73,-8.41 0.94,-1.27 1.74,-2.65 2.56,-4 1.29,-2.15 2.61,-4.26 4.01,-6.34l0.93 -1.37 1.23 1.11c1.59,1.42 2.87,3.04 3.82,4.96 1.13,2.28 1.7,4.76 2.08,7.26 0.38,2.48 0.61,5 0.87,7.5 6.05,-1.01 12.4,-4.36 17.33,-7.67 7.09,-4.75 13.61,-10.88 18.9,-17.56 7.99,-10.1 14.6,-23.4 13.28,-36.62 -1.93,0.58 -3.72,1.4 -5.53,2.4 -3.1,1.7 -5.97,3.64 -9.19,5.17 -4.44,2.12 -8.95,3.3 -13.83,3.86 -12.52,1.44 -23.45,-2.91 -33.34,-10.27 -5.76,-4.29 -11.39,-8.76 -17.18,-13 -4.14,-3.03 -8.42,-5.94 -13.11,-8.08 -8.37,-3.82 -17.38,-4.7 -26.48,-4.97l-3.13 -0.09 2.1 -2.32c7.31,-8.08 21.38,-10.65 32.19,-11.81 -2.58,-9.91 -4.77,-19.91 -8.04,-29.63 -1.58,-4.72 -3.69,-8.72 -6.73,-12.65 -2.07,-2.67 -4.64,-5.29 -6.26,-8.25 -0.41,-0.74 -0.76,-1.51 -1.03,-2.3l-0.56 -1.61 1.67 -0.3c12.47,-2.22 25.5,1.96 34.68,10.6 1.03,0.97 2.01,1.99 2.93,3.06l-0.92 -9.65 2.72 2.36c4.34,3.76 8.62,7.22 13.69,9.98 6.41,3.49 13.24,5.44 20.47,6.35l0.08 0.01 0.08 0.02c10.82,2.65 23.66,5.53 32.49,12.66 8.05,6.5 11.7,15.52 13.34,25.51 1.19,7.23 3.65,13.73 6.5,20.44 2.53,5.94 5.31,11.97 6.61,18.33 2.34,11.39 -0.94,21.03 -7.17,30.58 -4.79,7.34 -10.99,14.09 -17.25,20.19 -9.4,9.17 -19.72,17.62 -30.12,25.62 -1.63,1.25 -3.26,2.29 -5.02,3.34 -2.38,1.42 -4.4,2.77 -6.54,4.56 -11.05,9.21 -35.09,27.34 -38.91,41.22 -1.47,5.33 -0.29,10.46 2.76,14.98 2.42,3.59 6.24,7 10.18,8.83 10.42,4.85 21.75,2.42 32.12,-1.21 17.27,-6.04 34.39,-18.72 46.9,-31.91 6.62,-6.98 12.22,-14.82 18.15,-22.37 2.84,-3.62 5.79,-7.14 8.55,-10.83 2.28,-3.05 5.28,-7.19 6.79,-10.89 -1.28,-0.91 -2.51,-1.46 -4.04,-2.13 -1.93,-0.86 -3.42,-1.73 -4.96,-3.21l-1.13 -1.09 1.18 -1.04c2.65,-2.32 5.48,-4.28 8.43,-6.19 2.5,-1.61 5.06,-3.19 7.39,-5.06 2.34,-1.87 4.27,-3.95 5.84,-6.51 3.17,-5.18 4.58,-11.52 5.36,-17.48 0.92,-7.07 1.07,-14.31 1.32,-21.43 0.67,-18.86 1.55,-41.38 21.36,-49.93l-4.92 -9.04 2.43 -0.01c12.28,-0.03 23.88,-4.35 32.9,-12.73 8.93,-8.3 14.48,-16.41 5.28,-26.91 -7.02,-0.7 -12.93,-0.12 -19.74,1.86 -3.23,0.94 -6.4,2.06 -9.6,3.09 -2.1,0.67 -4.38,0.74 -6.12,-0.81 -2.48,-2.2 -2.46,-6.2 -2.65,-9.25 -0.05,-0.85 -0.11,-1.7 -0.15,-2.54 -0.18,-4.13 0.53,-8.1 1.44,-12.09 -2.61,0.31 -5.21,1.15 -7.63,2.06 -3.53,1.32 -6.96,2.9 -10.5,4.2 -9.45,3.47 -17.8,4.09 -26.6,-1.86 -4.23,-2.86 -7.66,-8.55 -9.51,-13.21 -3.69,-9.29 -3.86,-21.39 8.18,-23.82l2.37 -0.48 -0.7 2.31c-1.29,4.25 -2.56,10.7 1.11,14.2 5.09,4.85 17.18,2.24 23.13,0.56 5.03,-1.42 10.23,-3.36 14.98,-5.67 -1.24,-2.53 -2.53,-5.09 -3.5,-7.71 -0.96,-2.57 -1.68,-5.43 -1.02,-8.17 1.24,-5.2 6.98,-7.75 11.57,-9.25 9.45,-3.09 21.1,-7.95 28.53,-14.54 0.71,-0.62 1.45,-1.2 2.24,-1.73 4.74,-3.22 10.53,-4.5 16.16,-5.03 6.23,-0.59 12.61,-0.33 18.86,-0.12 4.15,0.14 8.31,0.28 12.46,0.18 2.03,-2.5 4.24,-5.38 5.14,-8.46 1.29,-4.36 -0.18,-8.93 -1.93,-12.94l-1.15 -2.64 2.8 0.66c20.7,4.84 22.87,5.29 25.44,26.43 7.13,3.15 14.18,6.65 19.92,12.01 4.05,3.77 7.53,8.38 10.95,12.72 6.81,8.63 18.42,22.03 31,18.23l1.9 -0.58 -0.03 1.98c-0.18,10.11 -7.9,10.27 -14.07,15.12 2.69,7.07 6.17,13.95 9.24,20.86 2.21,4.98 4.31,10.08 5.84,15.32l0.29 1 -9.59 6.64 6.91 29.54c6.81,-0.84 10.84,-4.75 16.59,-8.26 1.77,-1.08 3.56,-1.97 5.39,-2.92 1,-0.52 2.21,-1.16 2.96,-2.02 1.39,-1.59 1.36,-4.47 1.3,-6.43 -0.15,-4.82 0.2,-10.43 2.39,-14.82 1.56,-3.12 3.9,-5.34 7.14,-6.64 1.91,-0.76 3.94,-1.13 5.98,-1.33 2.11,-0.21 4.22,-0.22 6.34,-0.31 1.58,-0.07 3.44,-0.18 4.94,-0.68 1.07,-0.36 2.02,-0.9 2.96,-1.51 2.16,-1.4 3.82,-2.66 6.36,-3.41 3.75,-1.12 7.9,-0.62 11.65,0.24 2.22,0.51 4.28,1.27 6.21,2.48 0.92,0.58 1.91,1.43 2.85,1.94 0.63,0.16 1.31,0.32 1.96,0.32 1.49,0 3.54,-1 4.87,-1.61 7.54,-3.48 14.48,-1.16 19.56,5.1 5.03,6.2 5.99,15.12 3.81,22.9zm310.15 0l7.65 0 -1.23 -18.12c-3.35,-0.03 -6.49,1.19 -8.41,4.14 -2.06,3.18 -1.97,7.3 -0.34,10.64 0.61,1.26 1.41,2.37 2.33,3.34zm20.61 0l12.59 0c0.02,-1.31 0.05,-2.61 0.12,-3.91 0.2,-3.72 0.81,-7.12 1.94,-10.68 0.35,-1.12 0.41,-2.32 -0.24,-3.35 -0.89,-1.41 -2.77,-2.05 -4.35,-2.23 -2.22,-0.26 -4.6,0.24 -6.57,1.3 -6.28,3.39 -6.32,10.61 -4.45,16.67 0.24,0.79 0.57,1.52 0.95,2.19zm23.38 0l8.57 0 0 8.05c1.34,0.8 2.53,1.81 3.62,2.98 2.85,-4.68 5.45,-10.7 4.7,-16.07 -0.45,-3.22 -2.24,-6.22 -5.55,-7.06 -2.75,-0.7 -5.47,0.43 -7.4,2.41 -2.45,2.52 -3.56,6.15 -3.94,9.69zm8.57 68.79l0 46.62c1.52,-0.92 3.07,-1.8 4.66,-2.61 6.38,-3.27 12.82,-4.92 19.87,-6.08 8.52,-1.4 17.09,-2.72 25.47,-4.85 -0.36,-0.43 -0.73,-0.85 -1.11,-1.28 -1.54,-1.71 -3.02,-3.33 -4.43,-5.16 -2.91,-3.8 -2.45,-4.65 -5.96,-6.2l-0.95 10.94 -1.66 -0.44c-7.81,-2.07 -12.71,-6.54 -16.87,-13.26 -1.57,-2.54 -2.92,-5.2 -4.48,-7.74 -1.24,-2.02 -2.71,-4.12 -4.66,-5.53 -1.93,-1.39 -4.07,-1.91 -6.43,-1.86l-0.56 0.01 -2.9 -2.56zm0 144.3l0 109.46c-2.23,102.86 -133.57,167.27 -237.25,160.43 -5.76,-0.38 -11.45,-0.99 -17.06,-1.81 5.01,2.42 9.8,5.29 14.36,8.51 6.58,4.63 12.58,9.9 18.27,15.58 1.9,1.89 3.74,3.83 5.61,5.74 0.5,0.51 1.37,1.45 2.13,2.11 7.7,-6.17 14.86,-13.03 22.73,-18.94 7.13,-5.35 14.44,-9.49 22.94,-12.25 10.95,-3.55 22.6,-4.45 34.05,-4.11l0.03 0c62.16,3.09 116.21,65.25 180.23,36.11 15.84,-7.21 22.37,-23.28 20.5,-39.93 -0.73,-6.52 -2.82,-13.22 -6.37,-18.77 -2.91,-4.56 -7.1,-8.73 -12.44,-10.24 -0.52,-0.15 -1.05,-0.27 -1.58,-0.36 -1.13,13.68 -15.83,22.29 -28.42,23.48 -1.79,0.17 -3.59,0.16 -5.37,-0.01 -12.22,-1.18 -23.03,-9.86 -28.4,-20.66 -6.45,-12.98 -4.5,-27.07 4.33,-38.41l0.03 -0.03c1.4,-1.69 2.96,-3.29 4.8,-4.5 1.17,-0.77 2.31,-1.24 3.56,-1.84 2.55,-1.21 3.83,-2.98 5.26,-5.38 1.5,-2.53 3.1,-5.22 4.88,-7.56 0.74,-0.98 1.42,-1.7 2.3,-2.53 1.16,-1.09 1.97,-2.51 2.75,-3.87 2.77,-4.82 6.1,-10.41 10.96,-13.39 2.76,-1.69 5.89,-2.54 9.03,-3.19 4.57,-0.94 9.29,-1.56 13.9,-2.31 12.8,-2.1 25.56,-5.73 36.76,-12.44 7.21,-4.32 13.88,-10.27 14.53,-19.17 0.61,-8.37 -4.23,-17.75 -7.78,-25.11 -0.85,-1.76 -1.69,-3.53 -2.5,-5.31 -0.85,-1.87 -1.64,-3.76 -2.41,-5.67 -0.12,-0.3 -0.45,-1.16 -0.7,-1.66 -0.09,0.03 -0.18,0.07 -0.25,0.09 -0.49,0.19 -0.97,0.37 -1.47,0.54 -1.79,0.59 -3.65,0.91 -5.52,1.08l-1.52 0.14 -0.05 -1.53c-0.1,-2.96 -0.19,-5.96 -0.45,-8.92 -0.15,-1.65 -0.35,-3.26 -0.74,-4.88 -0.34,-1.41 -0.79,-2.8 -1.22,-4.18 -0.71,-2.26 -1.39,-4.53 -2.02,-6.81 -4.72,-16.94 2.42,-33.4 13.61,-45.95 2.58,-2.9 5.2,-5.83 8.11,-8.41 2.34,-2.08 4.85,-3.87 7.47,-5.56 -0.42,-0.6 -0.84,-1.2 -1.25,-1.81 -0.19,-0.28 -0.37,-0.58 -0.56,-0.85 -0.15,-0.2 -0.33,-0.4 -0.49,-0.59 -0.6,-0.7 -1.19,-1.41 -1.78,-2.12 -3.37,-4.06 -5.76,-8.54 -8.07,-13.24 -2.02,-4.12 -3.97,-8.41 -6.66,-12.14 -2.93,-4.05 -6.42,-6.9 -11.05,-8.82 -6.65,-2.76 -14.68,-3.19 -21.8,-2.95 -7.36,0.25 -19.22,1.71 -20.71,10.8 -0.41,2.52 0.01,5.18 0.7,7.62 0.28,1.01 0.61,1.99 0.96,2.98 0.21,0.61 0.55,1.47 0.59,2.07 0.49,4.74 -0.1,9.8 -3.48,13.41 -1.05,1.12 -2.24,1.99 -3.56,2.75 -0.7,0.4 -1.7,0.84 -2.32,1.31 -3.35,2.49 -9.51,3.95 -13.6,4.27 -2.22,0.18 -4.45,0.11 -6.54,-0.28zm-290.41 259.74c-52.65,-16.85 -95.64,-51.83 -120.57,-90.99l-7.38 1.07c-0.15,1.11 -0.19,2.27 0.19,3.33 0.27,0.75 0.71,1.49 1.1,2.18 0.66,1.19 1.27,2.36 1.81,3.61 0.51,1.18 0.99,2.39 1.36,3.62 0.1,0.32 0.19,0.79 0.31,1.12 0.27,0.16 0.68,0.34 0.93,0.47 1.04,0.54 2.05,1.13 3.04,1.75 1.46,0.91 2.88,1.89 4.18,3 4.98,4.25 6.91,9.46 5.13,15.97l-0.21 0.77 -0.77 0.23c-3.26,0.97 -6.22,1.03 -9.56,0.55 -2.01,-0.29 -4.5,-0.91 -6.51,-0.69 -1.08,0.12 -2.01,0.49 -2.9,1.11 -0.11,0.12 -0.25,0.31 -0.25,0.41 -0.01,0.5 2.16,3.04 2.51,3.51 2.36,3.12 3.87,6.38 4.81,10.19 2.53,10.26 2.69,21.26 -1.66,31.06 -3.52,7.93 -9.66,14.19 -17.58,17.76 -6.51,2.93 -13.78,3.83 -20.82,2.71 -7.71,-1.23 -14.74,-4.77 -20.53,-9.98 -6.04,-5.43 -10.02,-13.16 -11.23,-21.17 -0.68,-4.53 -0.56,-10.81 2.12,-15.02 -8.42,-0.39 -14.67,1.93 -20.05,9.15 -8.07,10.82 -11.89,23.9 -9.34,37.3 3.71,19.52 19.33,33.48 37.57,39.69 11.75,4 24.38,4.88 36.67,3.61 15.96,-1.64 31.53,-6.85 45.9,-13.85 7.04,-3.43 13.86,-7.32 20.63,-11.25 7.15,-4.15 14.25,-8.36 21.52,-12.31 15.04,-8.17 30.69,-15.13 47.71,-17.87 3.97,-0.64 7.93,-0.98 11.88,-1.02zm-132.66 -113.39c-7.49,-16.88 -11.54,-34.04 -11.5,-50.43l0 -90.68c-11.08,2.73 -24.66,-0.21 -29.87,-10.23 -2.21,-4.24 -2.42,-9.76 -2.41,-14.45 0,-3.41 0.19,-6.89 -0.01,-10.29 -0.12,-2.09 -0.43,-5.06 -1.78,-6.76 -4.08,-5.14 -19.77,-9.56 -26.29,-11.72 -5.13,-1.7 -13.12,-4 -18.56,-2.61 -3.29,0.84 -4.88,2.73 -7.08,5.09 -0.78,0.83 -1.58,1.64 -2.47,2.34l-1.79 1.41 -2.47 -10.65 -21.55 -0.41c-9.26,12.98 -30.65,24.39 -45.23,29.91 -3.26,1.23 -6.44,2.12 -9.79,3 -1.69,0.44 -3.84,0.96 -5.28,1.99 -0.2,0.14 -0.38,0.29 -0.56,0.45l7.03 2.87c6.06,0.83 12.15,1.46 18.27,1.67 3.83,0.13 7.63,0.05 11.46,0.12 5.11,0.1 9.78,0.71 14.77,1.8 3.78,0.82 7.53,1.83 11.25,2.91 5.33,1.55 10.63,3.25 15.9,5.01 2.68,0.89 5.72,0.99 8.52,1.07 4.2,0.12 8.77,0.14 12.55,2.22 2.19,1.21 4.08,2.8 5.61,4.78 10.03,12.84 3,38.33 2.23,53.51l-0.11 2.11 -14.97 -6.74c-0.42,1.1 -0.75,2.26 -1.06,3.35 -0.66,2.33 -1.26,4.68 -1.93,7.01 -2.08,7.26 -4.65,14.14 -7.91,20.96 -4.27,8.95 -11.9,18.25 -12.77,28.34 4.21,4.18 9.06,7.46 13.57,11.28 4.48,3.79 8.67,8.09 12.89,12.16 4.85,4.68 9.82,9.27 15.23,13.31 10.32,7.7 22.13,13.15 35.3,11.3 2.71,-0.38 4.85,-1.44 6.69,-3.47 1.97,-2.17 3.3,-5.09 4.73,-7.63 0.65,-1.16 1.33,-2.3 2.12,-3.38 3.81,-5.23 8.88,-6.95 15.23,-6.76 2.88,0.09 5.76,0.38 7.81,2.61 0.91,0.99 1.44,1.86 2.57,2.68 0.49,0.35 1.05,0.67 1.64,0.95zm191.9 -135.65l0 58.34 0 6.73c0,4.81 1.19,8.47 3.62,10.9 2.43,2.48 6,3.71 10.76,3.71 7.06,0 13.51,-1.6 19.46,-4.77 5.96,-3.16 10.49,-7.74 13.65,-13.78 3.16,-6 4.77,-12.73 4.77,-20.1 0,-8.47 -1.79,-16.07 -5.31,-22.8 -3.57,-6.74 -8.79,-11.5 -15.76,-14.24 -6.96,-2.75 -17.36,-4.08 -31.18,-3.99zm0 -10.44c12.82,0 22.3,-1.41 28.39,-4.3 6.09,-2.84 10.76,-6.87 14.02,-12.09 3.25,-5.17 4.89,-11.81 4.89,-19.87 0,-8.06 -1.6,-14.65 -4.8,-19.79 -3.2,-5.17 -7.78,-9.06 -13.78,-11.76 -5.95,-2.7 -15.52,-3.99 -28.71,-3.89l0 71.71zm48.91 3.62c17.36,4.03 29.58,8.92 36.59,14.65 10.07,8.15 15.12,18.73 15.12,31.74 0,13.69 -5.5,25.04 -16.54,34.02 -13.51,10.85 -33.15,16.26 -58.89,16.26l-92.5 0 0 -4.67c8.43,0 14.15,-0.77 17.13,-2.38 3.02,-1.55 5.13,-3.62 6.32,-6.14 1.23,-2.51 1.83,-8.75 1.83,-18.69l0 -118.42c0,-9.94 -0.6,-16.16 -1.83,-18.73 -1.2,-2.56 -3.35,-4.63 -6.37,-6.18 -3.07,-1.51 -8.74,-2.29 -17.08,-2.29l0 -4.67 87.29 0c20.88,0 35.63,1.88 44.32,5.59 8.7,3.7 15.53,9.25 20.56,16.62 4.99,7.38 7.51,15.25 7.51,23.54 0,8.79 -3.21,16.58 -9.62,23.45 -6.42,6.82 -17.67,12.27 -33.84,16.31zm-498.27 269.15c0.88,0.59 1.78,1.17 2.68,1.7 0.7,0.41 3.24,1.86 4.35,2.01 0.26,-1.19 0.32,-2.71 0.32,-3.86 0,-0.6 -0.04,-2.28 -0.23,-3.41 -1.7,1.51 -4.57,2.73 -7.11,3.55zm-39.51 9.27c0.67,0.83 1.36,1.64 2.06,2.42 0.54,0.6 2.55,2.73 3.57,3.21 0.59,-1.06 1.1,-2.49 1.44,-3.59 0.18,-0.57 0.63,-2.18 0.78,-3.32 -2.08,0.94 -5.17,1.26 -7.85,1.29zm63.39 -45.08c1.05,-0.18 2.1,-0.39 3.11,-0.63 0.79,-0.18 3.62,-0.9 4.53,-1.56 -0.64,-1.03 -1.65,-2.17 -2.44,-3 -0.41,-0.44 -1.6,-1.61 -2.53,-2.3 -0.18,2.27 -1.4,5.14 -2.67,7.49zm1056.43 120.31c2.49,-2.4 4.83,-5.23 6,-8.34 1.02,-2.72 1.04,-5.32 0.24,-8.1 -0.75,-2.59 -2.09,-4.98 -3.29,-7.38 -1.18,-2.35 -2.35,-4.92 -2.32,-7.61 0.01,-1.56 0.27,-2.83 0.78,-4.29 0.33,-0.95 0.69,-1.85 0.93,-2.84 0.16,-0.69 0.27,-1.39 0.34,-2.09 -0.24,0.15 -0.49,0.32 -0.74,0.49 -1.2,0.84 -2.27,1.6 -3.59,2.28 -2.24,1.15 -4.74,1.95 -7.16,2.6 -5.51,1.49 -10.96,3.15 -16.44,4.75 -17.91,5.24 -34.85,13.02 -51.39,21.56 -6.62,3.41 -13.16,6.97 -19.78,10.38 -2.63,1.36 -5.29,2.69 -7.98,3.92 -2.14,0.98 -4.35,1.92 -6.59,2.64l-2.72 0.87 0.91 -2.71c0.64,-1.91 1.44,-3.72 2.26,-5.56 2.2,-4.93 3.29,-8.5 3.46,-14 0.56,-17.72 -3.13,-39.88 -13.55,-54.65l-14.73 6.86c0.27,0.72 0.59,1.43 0.93,2.12 2.09,4.18 5.37,7.99 7.93,11.92 3.62,5.56 5.84,11.04 6.82,17.63 3.71,25 -10.68,51.44 -30.12,66.38 -3.4,2.62 -6.78,5.26 -10.26,7.77 -5.8,4.19 -11.66,7.76 -18.09,10.92 -14.97,7.38 -33.25,12.01 -49.84,13.46 -18.9,1.65 -40.56,-0.44 -56.29,-12.01 -2.49,-1.84 -4.81,-3.89 -6.92,-6.16 -4.18,-4.51 -6.96,-9.67 -6.76,-15.95 0.19,-6.08 3.19,-12.37 5.7,-18.1 -3.46,0.89 -6.83,2.36 -8.95,5.34 -1.45,2.05 -2.27,4.62 -2.97,7.01 -1.01,3.44 -1.9,6.82 -3.15,10.2l-0.3 0.82 -0.86 0.11c-12.33,1.61 -24.76,-5.63 -33.45,-13.78 -3.89,-3.64 -8.08,-7.8 -10.03,-12.86 -2.26,-5.88 -1.2,-12.44 0.48,-18.42 -3.86,2.16 -7.43,6.98 -9.68,10.15l-0.5 0.71 -0.86 -0.11c-16.13,-2.04 -39.95,-23.82 -52.3,-34.44 -4.91,-4.22 -12.37,-7.54 -13.88,-14.47l-0.55 -2.53 2.44 0.86c5.33,1.87 10.62,3.87 15.94,5.74 3.34,1.17 6.75,2.29 10.25,2.87 4.25,0.71 8.49,0.58 12.77,0.23 7.59,-0.6 15.28,-1.73 22.84,-2.72 6.87,-0.91 13.91,-1.92 20.82,-2.35 4.6,-0.29 9.13,-0.26 13.65,0.74 3.86,0.85 7.47,2.33 11.01,4.06 3.94,1.91 7.81,4.06 11.65,6.21 -0.79,-2.68 -1.93,-5.27 -3.66,-7.46 -1.81,-2.29 -4,-3.83 -6.55,-5.18 -2.6,-1.38 -5.32,-2.49 -7.88,-3.95 -3.08,-1.76 -5.61,-3.86 -7.73,-6.74l-0.13 -0.18 -0.07 -0.21c-0.86,-2.49 1.58,-7.25 2.69,-9.46 2.27,-4.52 4.88,-8.92 7.34,-13.34 1.75,-3.14 3.49,-6.32 5.03,-9.56 1.17,-2.45 2.41,-5.27 3,-7.92 1.39,-6.35 2.83,-14.16 2.18,-20.69 -0.38,-3.82 -1.42,-6.57 -3.43,-9.8 -1.2,-1.94 -2.49,-3.77 -3.59,-5.78 -1.21,-2.22 -2.12,-4.49 -2.79,-6.89 -0.45,0.15 -0.9,0.31 -1.35,0.47 -4.19,1.48 -7.89,2.82 -12.13,3.51 1.63,1.97 3.35,3.89 5,5.84 2.43,2.88 4.72,5.84 6.61,9.11 4.98,8.63 6,17.73 4.45,27.5 -9.54,60.41 -79.28,53.96 -121.9,36.45 -4.64,-1.91 -9.24,-3.89 -13.84,-5.9 -12.52,-5.48 -25,-11.18 -37.86,-15.81 -12.17,-4.38 -24.84,-7.83 -37.8,-8.64 -17.38,-1.1 -33.19,2.72 -48.31,11.37 -2.57,1.47 -5.05,3.27 -7.39,5.08 -2.85,2.2 -5.6,4.55 -8.28,6.96 -3.14,2.84 -6.21,5.79 -9.12,8.87 -2.14,2.27 -4.43,4.79 -6.19,7.37l-0.93 1.36 -1.23 -1.1c-12.35,-11.08 -23.5,-24.12 -37.52,-33.18 -15.95,-10.3 -38.37,-13.05 -56.83,-9.49 -8.98,1.73 -17.48,4.53 -25.77,8.39 -7.47,3.48 -14.49,7.68 -21.46,12.04 -7.4,4.63 -14.71,9.37 -22.41,13.51 -8.6,4.63 -17.41,8.35 -26.83,10.98 -13.51,3.77 -27.58,6.35 -41.62,6.79 -11.12,0.35 -22.47,-0.67 -33.18,-3.82 -16.82,-4.95 -31.59,-15.22 -38.75,-31.65 -3.27,-7.49 -4.61,-15.57 -4.25,-23.72 0.39,-9 2.83,-17.8 6.58,-25.96 5.19,-11.29 14.76,-18.92 26.81,-21.75 4.23,-0.99 8.84,-1.39 13.18,-0.88 -0.66,-0.81 -1.19,-1.71 -1.56,-2.77 -0.6,-1.7 -0.76,-3.64 -1.13,-5.41 -0.51,-2.46 -1.34,-4.69 -2.44,-6.91 -18.16,1.23 -37.72,16.55 -43.25,33.75 -4.89,15.23 -4.76,29.39 -1.13,44.8 0.59,2.5 1.25,4.97 1.92,7.45 0.56,2.06 1.13,4.14 1.58,6.22 0.61,2.82 1.3,6.7 -0.51,9.22 -0.22,0.31 -0.47,0.59 -0.75,0.84 -1.31,1.18 -5.43,1.97 -7.19,2.4 -3.83,0.93 -7.57,1.99 -11.17,3.62 -9.07,4.09 -14.55,10.62 -16.28,20.05 3.03,-1.87 5.94,-3.87 8.99,-5.73 8.08,-4.94 15.39,-6.86 24.8,-7.85 8.34,-0.88 15.26,-0.5 23.18,2.32 2.8,1 5.54,2.19 8.3,3.3 3.28,1.32 6.55,2.5 9.95,3.47 7.9,2.25 15.99,4.16 24.15,5.13 6.37,0.76 12.61,0.89 19,0.4 5.99,-0.46 11.94,-1.42 17.86,-2.44 7.19,-1.24 14.35,-2.55 21.57,-3.65 0.04,-0.02 0.07,-0.04 0.11,-0.06 0.85,-0.41 1.37,-0.04 2.11,0.24l0.67 0.21 0.24 0.67c2.63,7.12 -0.58,7.61 -5.82,11.14 -4.5,3.03 -8.82,6.38 -13.06,9.76 -4.71,3.75 -9.34,7.59 -14.02,11.38 -5.83,4.71 -11.76,9.39 -17.95,13.62 -5.37,3.66 -11.3,7.24 -17.42,9.48l-1.77 0.65 -0.16 -1.88c-0.72,-8.4 -4.7,-13.19 -11.9,-16.02 1.84,18.72 -7.14,34.1 -22.6,44.61 -6.27,4.26 -13.54,7.65 -20.87,9.61 -4.3,1.15 -11.29,2.44 -15.59,0.85l-1.18 -0.44 0.27 -1.23c0.66,-2.97 1.51,-6.16 1.64,-9.21 0.19,-4.44 -1.36,-8.36 -3.34,-12.26 -2.87,-5.64 -6.11,-10 -11.73,-12.46 0.72,3.81 1.53,7.62 2.1,11.44 0.56,3.74 0.88,7.59 0.09,11.32 -1.02,4.86 -3.72,8.68 -7.23,12.08 -1.8,1.74 -3.74,3.33 -5.79,4.76 -7.5,5.22 -16.29,8.17 -25.27,9.58 -9.47,1.49 -19.3,1.33 -28.79,0.15 -16.22,-2.02 -34.58,-7.48 -48.71,-15.84 -19.33,-11.44 -35.54,-29.23 -44.81,-49.71 -3.24,-7.16 -6.35,-14.84 -8.04,-22.54 -1.29,-5.88 -1.69,-11.69 -0.64,-17.64 1.91,-10.76 8.6,-21 14.58,-29.94l0.66 -0.99 1.1 0.46c6.9,2.9 9.89,9.22 14.79,14.35 12.23,12.81 19.43,14.33 36.55,10.53 20.12,-4.45 29.16,-29.56 18.72,-46.7 -2.33,-3.82 -5.12,-7.18 -8.74,-9.84 -7.11,-5.21 -16.58,-6.88 -25.27,-7.73 0.34,2.44 0.69,4.88 1.01,7.33 0.33,2.54 0.64,5.12 0.77,7.68 0.18,3.6 0.07,8.13 -2.52,10.95 -0.63,0.69 -1.37,1.24 -2.2,1.66 -1.76,0.89 -3.62,1.37 -5.6,1.34 -4.14,-0.06 -8.18,-2.34 -11.66,-4.39 -3.98,-2.35 -7.75,-4.7 -11.98,-6.52 -0.14,0.85 -0.22,1.76 -0.28,2.46 -0.18,1.98 -0.29,3.97 -0.48,5.95 -0.33,3.38 -0.96,8.54 -3.6,10.95 -2.47,2.25 -5.9,3.02 -9.14,3.29 -2.4,0.2 -4.78,0.13 -7.19,0.14 -0.59,0 -2.96,0.02 -3.53,0.36 -9.3,18.62 -12.76,38.31 -4.78,58.02 2.56,6.31 6,11.96 9.91,17.5 1.48,2.1 3.01,4.16 4.47,6.28 1.03,1.49 2.21,3.25 2.84,4.96l0.51 1.39 -1.4 0.48c-4.06,1.39 -13.73,-2.18 -17.72,-3.6 -2.49,-0.89 -4.97,-1.82 -7.46,-2.73 -1.96,-0.71 -3.97,-1.44 -5.97,-2.01 -11.07,-3.13 -22.83,-4.74 -34.27,-5.81 -10.13,-0.94 -18.86,0.55 -28.56,3.19 -6.44,1.76 -14.4,4.51 -21.09,3.38 -4.26,-0.72 -7.68,-2.88 -10.58,-5.79 0.07,0.6 0.16,1.21 0.27,1.82 0.29,1.48 0.73,2.91 1.1,4.36 0.48,1.94 0.72,3.71 0.59,5.71 -0.21,3.21 -0.89,6.51 -1.41,9.68 -0.59,3.6 -1.07,7.25 -1.01,10.91 0.13,7.49 2.61,13.29 8.2,17.66 -1.27,-10.95 -0.03,-22.32 7.03,-31.25 4.04,-5.11 9.43,-8.74 15.38,-11.29 19.65,-8.42 38.52,-8.82 58.74,-1.99 16.02,5.41 30.77,13.54 45.18,22.26 13.89,8.41 27.52,17.45 41.97,24.89 21.5,11.07 44.49,16.03 68.63,15.1 21.11,-0.81 41.81,-6.06 61.38,-13.84 16.23,-6.45 31.58,-14.6 46.49,-23.66 5.13,-3.11 10.17,-6.34 15.26,-9.5 1.73,-1.07 3.48,-2.15 5.26,-3.14 1.13,-0.63 2.46,-1.35 3.7,-1.72l1.68 -0.5 0.17 1.75c0.43,4.48 0.51,8.98 0.93,13.46 0.32,3.4 0.89,7.06 2.58,10.08 2.3,4.11 6.37,6.29 10.71,7.6 -0.23,-0.33 -0.47,-0.66 -0.71,-0.98 -0.81,-1.11 -1.63,-2.22 -2.32,-3.4 -2.26,-3.88 -2.46,-8.1 -2.32,-12.5 0.54,-17.09 12.68,-33.81 26.23,-43.36 3.49,-2.46 6.88,-5.42 10.12,-8.21 4.36,-3.76 8.68,-7.59 13.04,-11.35 5.15,-4.44 10.43,-8.92 15.94,-12.92 3.2,-2.32 8.65,-6.11 12.61,-6.68l0.97 -0.14 0.49 0.85c2.51,4.37 4.14,8.82 5.72,13.57 1.22,3.67 2.44,7.61 4.5,10.91 3.51,5.64 9.13,8.23 15.25,9.68 -0.34,-0.4 -0.7,-0.8 -1.08,-1.21 -2.13,-2.28 -3.55,-4.07 -4.97,-6.9 -3.74,-7.47 -5.1,-15.55 -3.72,-23.8 2.88,-17.25 16.84,-31.42 31.74,-39.43 7.89,-4.24 16.71,-7.18 25.64,-8.08 15.05,-1.52 30.04,3.17 40.95,13.78 8.49,8.26 14.61,20.74 11.72,32.76 -1.46,6.07 -5.04,11.01 -10.06,14.66 -4.84,3.52 -10.68,5.64 -16.6,6.85 4.98,1.4 10.08,2.33 15.27,1.91 4.28,-0.35 8.71,-1.42 12.95,-2.19l2.1 -0.38 -0.43 2.09c-4.85,23.65 -8.47,25.83 5.53,47.33 7.51,11.54 16.93,24.54 28.38,32.54 8.35,-6.46 14.98,-14.98 21.38,-23.28 14.75,-19.14 21.19,-30.5 11.81,-54.59l-0.96 -2.46 2.58 0.51c4.85,0.97 9.72,2.13 14.63,2.71 4.15,0.49 8.6,0.59 12.59,-0.82 2.91,-1.02 5.23,-2.72 7.13,-4.94 -1.46,0.3 -2.91,0.63 -4.37,0.95 -2.38,0.52 -4.78,1.01 -7.21,1.25 -5.95,0.58 -11,-0.59 -16.41,-3.09 -9.98,-4.59 -13.37,-11.9 -14.16,-22.66 -0.47,-6.38 0.82,-12.55 4.06,-18.08 5.61,-9.56 15.9,-15.44 26.33,-18.33 11.73,-3.26 24.78,-3.16 36.51,0.03 17.01,4.63 30.93,15.59 37.25,32.34 1.98,5.23 3.73,10.71 3.22,16.37 -0.28,3.11 -1.2,6.34 -2.17,9.46 4.69,-3.69 7.28,-9.56 9.11,-15.19 1.11,-3.42 2.39,-8.02 1.99,-11.66 -0.24,-2.16 -1,-3.43 -2.05,-5.26 -1,-1.75 -1.65,-3.25 -1.86,-5.29l-0.15 -1.48 1.49 -0.1c5.23,-0.37 11.57,2.66 16.03,5.14 6.48,3.6 12.71,8.11 18.61,12.6 4.91,3.75 9.72,7.63 14.52,11.52 3.75,3.03 7.53,6.16 11.43,8.98l0.05 0.03 0.04 0.04c14.13,12.12 29,26.72 30.41,46.47 0.31,4.32 0.19,8.85 -2.74,12.32 -0.57,0.67 -1.21,1.29 -1.88,1.89 4.07,-0.46 8.24,-1.69 10.85,-4.8 4.18,-4.98 3.85,-14.59 3.62,-20.7l-0.1 -2.61 2.27 1.31c14.09,8.13 26.74,18.64 40.19,27.76 16.61,11.27 34.88,20.07 54.26,25.4 18.2,5.01 37.27,6.88 56.08,5.04 37.31,-3.64 70,-21.2 95.83,-48.05l0.07 -0.07 0.07 -0.06c4.44,-3.54 8.89,-7.05 13.4,-10.49 5.21,-3.98 10.49,-7.88 15.87,-11.64 7.57,-5.27 15.43,-10.36 23.6,-14.67 6.66,-3.51 14.34,-6.97 21.78,-8.3 10.9,-1.96 27.9,-3.88 36.8,4.36 4.17,3.87 5.73,9.14 5.93,14.58zm-865.69 -136.74c0.41,2.25 0.16,4.47 -1.24,6.53 -1.17,1.71 -2.85,2.94 -4.49,4.16 -1.19,0.89 -2.49,1.87 -3.37,3.07 -1.03,1.43 -1.25,2.94 -0.98,4.66 0.5,3.15 2.61,6.71 4.36,9.31 2.88,4.3 7.12,7.77 11.88,9.79 6.1,2.59 12.59,2.67 18.92,0.84 11.38,-3.29 17.5,-12.23 18.63,-23.7 0.47,-4.68 0.06,-9.7 -1.24,-14.23 -0.79,-2.75 -2.39,-6.76 -4.74,-8.57l-1.73 -1.22c-2.54,-1.72 -3.07,-2.43 -5.35,-2.98 0.87,4.75 3.01,9.54 2.67,14.25 -0.37,5.14 -3.67,8.63 -7.79,11.35l-0.63 0.42 -0.7 -0.29c-2.06,-0.83 -4.22,-1.89 -5.9,-3.37 -1.08,-0.95 -1.73,-1.9 -2.52,-3.07 -0.74,-1.1 -1.37,-1.8 -2.51,-2.52 -2.13,-1.34 -5.63,-2.04 -8.08,-2.69 -1.75,-0.47 -3.53,-0.99 -5.18,-1.75zm492.05 -20.33c-1.35,1.79 -2.63,4.39 -1.92,6.31 0.01,0.03 0.03,0.08 0.06,0.13 0.65,-0.16 1.96,-1.43 2.34,-1.81 0.66,-0.68 1.33,-1.46 1.94,-2.24l-2.41 -2.38zm200.66 48.17c-1.98,1.89 -4.07,4.85 -3.54,7.35 0.02,0.08 0.07,0.27 0.12,0.35 0.7,0.13 2.8,-1.36 3.3,-1.75 0.94,-0.72 1.91,-1.56 2.79,-2.42l-2.67 -3.54zm-181.54 -27.83l0.11 0.19c0.02,0.03 0.04,0.07 0.07,0.1 0.61,-0.28 1.67,-1.76 1.96,-2.21 0.53,-0.79 1.05,-1.68 1.5,-2.56l-2.81 -1.9c-0.97,1.94 -1.74,4.61 -0.84,6.36l0 0.01zm-34.53 -33.29c0.66,-0.02 2.23,-0.97 2.67,-1.27 0.8,-0.53 1.61,-1.14 2.37,-1.77l-1.84 -2.84c-1.71,1.46 -3.51,3.72 -3.23,5.75 0,0.03 0.01,0.09 0.03,0.14zm-539.08 218.2c12.01,-2.05 23.22,-9.37 32.09,-17.4 2.72,-2.46 4.77,-5.35 6.05,-8.79 3.39,-9.08 0.79,-20.82 -1.45,-29.92l-0.49 -1.99 2.04 0.2c8.3,0.84 14.29,3.5 20.17,9.38 3.22,3.22 5.99,6.79 9.31,9.93 2.97,-2.1 6,-4.14 8.99,-6.21 4.63,-3.2 9.24,-6.44 13.77,-9.79 4.6,-3.39 9.21,-6.92 13.49,-10.7 1.56,-1.37 3.6,-3.22 5.32,-5.13 -1.56,0.31 -3.07,0.5 -3.92,0.61 -5.12,0.7 -10.34,1.1 -15.49,1.42 -4.37,0.27 -8.76,0.47 -13.14,0.56 -2.98,0.06 -6.16,0.14 -9.13,-0.08 -13.08,-0.97 -25.08,-7.02 -37.29,-11.24 -16.76,-5.8 -33.83,-5.69 -48.92,4.29 -4.61,3.04 -8.65,6.75 -12.3,10.88 -1.21,1.37 -2.35,2.78 -3.51,4.18 -0.57,0.69 -1.56,1.98 -2.36,2.35l-1.29 0.61 -0.63 -1.28c-5.77,-11.73 -0.82,-26.76 6.55,-36.64 6.91,-9.28 16.31,-14.94 27.41,-17.62 -4.32,-22.55 -10.58,-47.87 1.7,-69.02 8.42,-14.5 23.49,-31.15 40.5,-34.86 1.26,-0.27 2.54,-0.46 3.78,-0.8 0.31,-0.09 0.61,-0.17 0.91,-0.24 -10.52,-6.86 -22.4,-6.28 -34.48,-3.94 -5.55,1.08 -11.11,2.58 -16.69,3.42 -4.14,0.62 -9.21,1 -12.9,-1.38 -1.71,-1.11 -2.9,-2.65 -3.72,-4.45 -4.59,0.42 -9.5,0.73 -14.04,0.27 -3.57,-0.36 -7.01,-1.25 -9.97,-3.36 -3.18,-2.28 -5.27,-5.61 -6.92,-9.09 -4.36,-0.29 -9.73,-0.61 -13.56,-2.52 -2.79,-1.38 -5.08,-3.64 -7.21,-5.86l-0.76 -0.79 0.56 -0.94c0.38,-0.64 0.74,-1.29 1.08,-1.95 0.24,-0.47 0.43,-0.88 0.9,-1.17 0.41,-0.26 0.82,-0.28 1.27,-0.41 0.27,-0.08 0.55,-0.18 0.83,-0.29 -1.75,-1.51 -3.68,-2.67 -5.79,-3.76 -2.53,-1.31 -5.18,-2.45 -7.52,-4.11 -3.64,-2.58 -5.64,-5.87 -6.7,-10.18l-0.3 -1.2 11.31 -4.73c-0.41,-1.57 -0.99,-3.1 -1.92,-4.44 -0.81,-1.17 -1.8,-2.04 -2.76,-3.07 -1.24,-1.32 -2.05,-2.61 -2.58,-4.36 -0.78,-2.57 -0.77,-5.63 -0.6,-8.28l0.03 -0.53 0.37 -0.38c2.74,-2.83 5.65,-5.32 8.66,-7.84 2.33,-1.96 4.73,-3.96 6.7,-6.29 2.6,-3.08 4.06,-6.35 4.91,-10.28 1.19,-5.5 1.09,-11.79 0.69,-17.5 -8.72,2.89 -22.14,6.3 -30.34,3.33 -0.65,-0.24 -1.31,-0.46 -1.97,-0.68 -0.56,-0.19 -1.04,-0.4 -1.33,-0.97 -0.15,-0.3 -0.12,-0.43 -0.2,-0.68 -0.07,-0.23 -0.31,-0.58 -0.45,-0.78l-0.08 -0.12 -1.61 -3.61 -0.03 -0.2c-0,-0.03 -0.01,-0.06 -0.01,-0.08 -5.8,-0.79 -10.95,-2.35 -16.78,-0.97 0.02,2.95 1.35,6.51 2.15,9.19 1.66,5.57 2.5,10.59 2.16,16.44 -0.24,4.28 -0.13,8.66 0.92,12.83 0.66,2.6 1.73,4.91 2.5,7.44 0.68,2.23 0.9,4.29 0.7,6.62 -0.55,6.25 -2.48,12.11 -7.8,15.86 -4.27,3.01 -9.85,4.04 -14.91,4.9 -5.31,0.9 -10.69,1.67 -15.71,3.68 -0.17,0.6 -0.28,1.19 -0.35,1.84 -0.09,0.92 -0.18,1.74 -0.38,2.65 -0.08,0.38 -0.29,1.32 -0.28,1.77 0.03,0.06 0.05,0.13 0.07,0.2 0.15,0.57 -0.04,1.03 -0.32,1.5 -0.3,0.51 -0.61,1.01 -0.91,1.52l-0.89 1.52 -1.32 -1.17c-2.02,-1.79 -3.84,-3.8 -4.98,-6.28 -1.59,-3.44 -1.56,-7.16 -0.95,-10.81 -0.55,0.03 -1.1,0.08 -1.52,0.11 -2.17,0.15 -4.34,0.37 -6.49,0.62 -6.07,0.69 -12.17,1.62 -18.16,2.84 -5.15,1.04 -23.27,4.97 -25.13,10.7 -2.13,6.58 3.31,19.17 6.12,25.11 2.29,4.84 4.86,9.58 7.6,14.18 1.79,3.01 3.72,6.17 5.79,9 3.14,4.29 6.49,8.57 10.15,12.43 2.33,2.46 4.96,4.93 7.81,6.77 3.32,2.14 6.68,3.28 10.57,2.09 2.04,-0.62 3.96,-1.76 5.78,-2.84 2.13,-1.27 4.23,-2.53 6.56,-3.42 6.14,-2.32 12.42,-3.05 17.57,1.7 1.61,1.49 2.85,3.22 4.17,4.97 0.89,1.18 2.04,2.68 3.35,3.4 1.2,0.66 2.56,1.25 3.94,1.33 0.94,0.06 1.83,-0.15 2.76,-0.19 2.93,-0.14 5.03,1.8 6.91,3.81 2.56,2.73 5.62,6.87 4.05,10.82 -2.23,5.65 -12.87,7.12 -18.09,7.75 -2.31,0.28 -4.61,0.47 -6.91,0.64 1.05,0.13 2.11,0.2 3.12,0.29 2.77,0.24 5.35,0.58 8.03,1.39 9.17,2.75 16.94,10.07 23.09,17.11 8.67,9.93 13.28,21.98 8.96,34.94 -2.4,7.22 -7.22,13.5 -12.92,18.45 -4.73,4.11 -10.29,7.52 -16.12,9.84 -4.99,1.99 -10.75,3.39 -16.15,3.06 -8.64,-0.53 -16,-3.55 -22.69,-8.98 -5,-4.05 -8.75,-8.76 -12.94,-13.49 -5.09,3.31 -7.39,9.54 -8.21,15.35 -1.27,9.02 0.58,18.97 3.52,27.5 3.9,11.34 10.23,21.97 17.95,31.12 9.33,11.06 20.78,20.09 33.54,26.88 20.51,10.92 46.88,16.16 69.65,10.21 10.65,-2.78 22,-8.15 24.02,-20.14 0.77,-4.54 0.11,-9.29 -1.03,-13.71 -1.39,-5.37 -3.54,-10.44 -5.61,-15.56l-0.77 -1.9 2.05 -0.09c6.37,-0.28 12.63,1.22 18.21,4.3 12.17,6.72 19.24,19.68 19.49,33.38zm786.25 -117.79l-5.49 -2.01c-0.12,-0.03 -0.22,-0.07 -0.33,-0.11 -0.52,0.59 -1.37,2.37 -1.59,2.85 -0.28,0.61 -0.84,2.07 -0.27,2.67 0.7,0.74 2.55,0.26 3.33,-0.06 1.69,-0.67 3.18,-1.91 4.35,-3.35zm-140.19 -495.9c-0.59,-3.81 -1.23,-7.67 -1.44,-11.49 -0.32,-5.83 0.53,-11.08 2.09,-16.69 2.28,-8.16 8.12,-19.7 16.36,-22.95l1.5 -0.59 0.43 1.55c0.15,0.53 0.2,1.07 0.2,1.63 -0.01,1.6 -0.41,2.57 0.35,4.13 1.4,2.86 5.97,6.01 8.54,7.69 2.81,1.84 8.04,1.91 11.28,1.84 5.67,-0.13 11.44,-0.86 17.08,-1.48 3.74,-0.41 7.49,-0.81 11.24,-1.03 3.35,-0.2 6.81,-0.28 10.15,0.07 2.62,0.27 7.93,0.99 10.22,-0.66 1.98,-1.42 2.6,-5.14 2.89,-7.75 -3.94,-1.25 -10.11,-1.32 -13.94,-1.43 -3.97,-0.12 -8.13,-0.14 -12.06,-0.67 -2.58,-0.35 -6.53,-1.08 -7.74,-3.76 -1.55,-3.43 2.46,-7.56 4.67,-9.68 10.78,-10.39 26.85,-8.2 40.61,-9.74l9.18 -16.79c0.26,-0.56 1.59,-3.44 1.27,-3.92 -0.35,-0.53 -4.2,-0.63 -4.8,-0.65 -4.88,-0.17 -9.53,-0.37 -14.4,-1.01 -2.95,-0.38 -5.76,-1.09 -8.45,-2.37 -1.84,-0.88 -3.42,-1.97 -5.16,-2.98 -1.16,-0.67 -2.31,-1.22 -3.6,-1.57 -2.04,-0.56 -3.94,-0.57 -5.85,0.4 -1.55,0.78 -2.9,2.08 -4.12,3.28 -1.57,1.54 -3.07,3.07 -4.86,4.36 -5.42,3.9 -11.41,3.83 -17.65,2.13 -5.25,-0.82 -7.24,-12.33 -1.82,-12.78 3.35,-0.28 6.56,-0.11 9.91,0.08 2.49,0.14 5.16,0.29 7.61,-0.23 1.08,-0.23 2.1,-0.59 3.07,-1.11 0.43,-0.58 0.71,-1.22 0.78,-1.95 0.23,-2.5 -2.11,-5.01 -3.89,-6.46 -3.07,-2.5 -7.1,-4.26 -10.93,-5.17 -2.84,-0.67 -5.68,-1.36 -8.53,-2.02 -1.79,-0.41 -3.59,-0.83 -5.4,-1.15 -1.38,-0.25 -3.36,-0.61 -4.72,-0.09 -0.71,0.27 -1.44,0.77 -2.08,1.19 -1.24,0.82 -2.46,1.58 -3.77,2.28l-1.36 0.73 -0.64 -1.4c-0.64,-1.4 -1.36,-2.76 -2.09,-4.12 -1.04,-1.93 -2.08,-3.83 -2.97,-5.83 -0.88,-1.96 -1.6,-3.95 -2.18,-6 -2.38,1.02 -4.98,2.21 -6.85,3.78 -1.09,0.92 -2.03,2.02 -2.93,3.12 -1.47,1.81 -2.89,3.66 -4.35,5.48 -3.11,3.87 -5.61,8.2 -8.8,12.04 -5.06,6.08 -11.92,9.93 -16.59,16.51 -5.7,8.01 -10.29,16.87 -14.36,25.81 -4.33,9.5 -8.13,19.25 -12.02,28.95 -2.2,5.49 -4.44,10.97 -6.8,16.38 1.67,-0.41 3.35,-0.83 5.02,-1.24l1.78 -0.44 0.01 1.83c0.01,1.89 -0.8,4.86 -1.27,6.72 -0.83,3.32 -1.74,6.62 -2.58,9.94 -0.97,3.83 -2.03,8 -2.47,11.93 -1.71,15.27 -2.73,31.44 -9.22,45.6 -0.55,1.19 -2.1,4.41 -1.42,5.77 0.27,0.55 0.88,1.19 1.27,1.67 0.85,1.07 1.5,2.15 2.02,3.42 1.55,3.77 2.15,7.2 2.55,11.22 0.28,2.77 0.52,5.46 1.15,8.19 0.77,3.3 2.02,6.39 3.6,9.37 9.78,-0.07 18.58,-3.78 25.91,-10.23 3.29,-2.9 6.74,-6.48 8.43,-10.6 1.11,-2.69 1.21,-5.08 1.65,-7.88 0.46,-2.91 1.3,-5.19 3.09,-7.56l0.54 -0.7 0.87 0.16c1.37,0.25 2.78,0.42 4.15,0.69 1.04,0.21 2.1,0.51 2.84,1.33 0.74,0.82 0.92,1.9 0.95,2.96 0.04,1.42 -0.11,2.94 -0.22,4.36 -0.28,3.61 -2.75,8.96 -4.66,12.04 -5.31,8.54 -11.6,15.49 -20.78,19.87 -5.48,2.61 -11.41,4.07 -17.34,5.24 -7.14,1.4 -14.34,2.47 -21.49,3.89 -6.05,1.2 -12.09,2.5 -18.06,4.07 -8.12,2.14 -18.77,5.4 -25.58,10.39 -5.75,4.22 -11.46,8.07 -16.28,13.43 -4.42,4.91 -7.58,10.63 -7.46,17.21 0.5,-0.38 1,-0.77 1.49,-1.14 1.11,-0.84 3.84,-3.05 5.13,-3.32 1.8,-0.38 3.77,-0.4 5.23,0.9 2.37,2.11 2.01,7.06 1.96,9.96l-0.01 0.83 -0.72 0.41c-2.1,1.18 -4.36,1.9 -6.62,2.7 -1.79,0.63 -3.78,1.36 -5.27,2.58 -2.03,1.66 -2.69,3.96 -2.82,6.51 -0.35,7.08 6.19,14.86 13.57,11.41 1.36,-1.62 2.06,-3.28 2.35,-5.4 0.23,-1.68 0.15,-3.66 1.04,-5.15 1.72,-2.88 6.43,-2.68 9.31,-2.53l0.92 0.05 0.34 0.86c1.02,2.57 2.01,5.65 1.89,8.46 -0.09,1.96 -0.69,3.54 -1.81,5.13 -0.84,1.19 -1.85,2.25 -2.6,3.49 -0.91,1.5 -1.28,3.05 -1.35,4.8 -0.07,1.8 0.14,4.18 1.78,5.28 4,2.67 13.95,-2.36 18.54,-4.42 0.19,-2.04 0.16,-4.11 0.05,-6.15 -0.21,-3.95 -0.78,-7.89 -0.92,-11.84 -0.12,-3.39 0.09,-7.19 1.99,-10.12 3.84,-5.89 14.74,-9.73 21.42,-11.45 9.29,-2.38 17.1,-1.96 25.81,2.04 3.7,1.7 7.2,3.82 10.79,5.75 3.58,1.93 7.16,3.61 11.04,4.82 0.79,-1.48 1.22,-3.43 1.59,-4.93 0.88,-3.5 1.93,-7.15 5.55,-8.71l0.12 -0.05 0.13 -0.03c1.68,-0.39 3.39,-0.5 5.11,-0.36 4.98,0.42 9.83,2.92 14.42,4.77 4.92,1.98 9.54,3.26 14.78,2.87 -0.29,-1.28 -0.9,-3.01 -1.14,-3.73 -0.96,-2.85 -1.96,-5.68 -2.74,-8.59 -1.9,-7.02 -3.17,-16.8 6.15,-18.86 1.13,-0.25 2.18,-0.67 3.17,-1.28 2.65,-1.62 4.62,-4.41 6.19,-7.03 2.07,-3.44 3.82,-7.1 5.82,-10.59 4.39,-7.63 15.87,-21.44 25.55,-13.48l0.79 0.65 -0.35 0.96c-0.5,1.38 -1.65,2.69 -2.65,3.74 -1.43,1.52 -2.97,2.96 -4.44,4.44 -4.47,4.5 -8.27,9.14 -11.53,14.61 -1.72,2.89 -3.4,5.81 -5.13,8.7 -1.01,1.69 -2.04,3.37 -3.23,4.93 -1.14,1.49 -2.43,2.86 -3.74,4.2 -2.03,2.06 -4.11,4.08 -6.17,6.11 0.22,2.88 0.71,5.46 2.61,7.78 0.8,0.98 1.69,1.88 2.49,2.87 1.19,1.47 2.13,3.02 2.94,4.73l0.3 0.64 -0.32 0.63c-0.86,1.69 -1.79,3.45 -3.35,4.59 -0.54,0.4 -1.14,0.74 -1.69,1.13 -0.5,0.35 -0.97,0.74 -1.42,1.15 3.09,2.89 6.41,5.53 10.17,7.52 7.93,4.19 16.73,4.67 25.49,4.01 -0.85,-2 -2.68,-4.05 -3.9,-5.71 -2.12,-2.89 -3.57,-5.81 -3.43,-9.5l0.08 -1.94 1.84 0.63c4.01,1.38 7.29,3.47 10.59,6.08 3.72,2.94 7.05,6.04 11.2,8.44 4.62,2.68 9.53,4.12 14.72,4.82 -0.76,-0.95 -1.59,-1.85 -2.41,-2.73 -1.76,-1.87 -3.53,-3.69 -5.07,-5.75 -4.41,-5.89 -5.59,-12.24 -4.88,-19.49 0.35,-3.51 0.84,-6.98 1.43,-10.45 0.45,-2.66 0.97,-5.31 1.35,-7.98 1.07,-7.48 0.53,-14.11 -0.67,-21.55l-0.31 -1.93 1.93 0.26c9.16,1.25 14.14,5.01 18.17,12.18l2.56 -5.67c0.26,-4.04 -0.88,-7.17 -3,-10.57 -2.46,-3.95 -5.29,-7.16 -6.73,-11.72l-0.54 -1.73 1.8 -0.15c1.82,-0.15 5.78,0.94 7.6,1.39 4.02,1.01 8.01,2.12 12.02,3.17 2.78,0.73 5.56,1.44 8.36,2.08 2.24,0.51 4.56,1.01 6.84,1.29 7.05,0.87 14.06,1.92 21.05,3.21 4.49,0.83 8.96,1.75 13.43,2.71 -1.32,-1.81 -2.82,-3.56 -4.18,-5.2 -2.06,-2.46 -4.26,-5.02 -5.97,-7.73 -1.34,-2.12 -2.74,-4.93 -1.95,-7.49 1.38,-4.49 8.68,-5.21 13.45,-5.32 -0.1,-0.12 -0.4,-0.31 -0.52,-0.39 -0.66,-0.46 -1.31,-0.93 -1.94,-1.43 -5.9,-4.59 -13.55,-6.09 -19.81,-10.19 -2.57,-1.68 -4.99,-3.45 -7.47,-5.26 -1.08,-0.79 -2.42,-1.8 -3.7,-2.21 -1.42,-0.45 -3.16,-0.27 -4.61,-0.09 -3.56,0.43 -7.17,1.11 -10.72,1.66 -14.67,2.27 -30.26,2.28 -43.8,-4.54 -3.97,-2 -7.4,-4.41 -10.92,-7.1 -1.15,-0.88 -2.5,-1.96 -3.9,-2.9 0.1,0.18 0.2,0.35 0.3,0.52 0.54,0.88 1.19,1.69 1.7,2.57 1.53,2.64 1.17,5.72 0.69,8.61l-0.21 1.25 -1.27 -0.04c-7.61,-0.27 -15.31,-4.06 -21.3,-8.57 -5.07,-3.81 -9.89,-8.82 -13.05,-14.35 -2.54,-4.45 -4.47,-10.18 -2.62,-15.23 0.49,-1.34 1.22,-2.55 2.17,-3.62l0.99 -1.11 1.08 1.02c4.92,4.63 6.15,10.78 9.86,16.14 1.91,2.76 5.95,7.9 9.55,10.58 -2.13,-8.13 -4.8,-15.78 1.98,-23.05l0.55 -0.59 0.79 0.16c0.85,0.17 1.66,0.47 2.42,0.88 2.3,1.25 3.93,3.46 5.31,5.62 1.64,2.56 3.07,5.21 4.8,7.72 5.02,7.29 11.17,11.54 19.71,13.98 16.73,4.78 35.38,0.55 52.29,-2.19 -3.91,-5.65 -12.52,-11.03 -18.14,-13.91 -28.23,-14.44 -40.27,-33.68 -45.94,-64.39 -4.97,-0.13 -10.11,0.57 -15,1.29 -5.47,0.8 -11.05,1.77 -16.58,1.97 -4.76,0.17 -9.94,-0.26 -14.06,-2.87 -3.65,-2.31 -5.7,-5.83 -6.83,-9.77l-4.55 6.81c-5.07,11.57 -7.1,25.53 -0.73,37.01l0.99 1.79 -2.02 0.33c-9.42,1.55 -19.11,-7.73 -23.36,-15.31 -2.79,-4.97 -4.2,-10.57 -5.35,-16.11 -0.49,-2.36 -0.94,-4.75 -1.51,-7.09 -0.09,-0.36 -0.18,-0.73 -0.28,-1.11 -0.55,2.54 -1.03,4.88 -3.17,7.33l-1.9 2.17 -0.6 -2.82c-1.11,-5.21 -0.59,-10.44 1.53,-15.32 2.81,-6.44 8.11,-11.57 14.23,-14.89l2.04 -1.11 0.09 2.32c0.13,3.19 -0.01,5.97 -2.02,8.56 -0.51,0.66 -1.05,1.26 -1.48,1.99 -0.61,1.02 -0.97,2.17 -1.21,3.33 -1.33,6.17 -0.45,13.66 1.2,19.68 1.91,7 6.38,17.01 13.69,20.22zm117.35 475.06c-0.98,1.3 -1.96,2.83 -2.4,4.25 -0.12,0.38 -0.38,1.46 -0.03,1.8 0.45,0.44 1.84,0.06 2.32,-0.11 1.44,-0.51 2.86,-1.47 4.08,-2.52l-3.97 -3.43zm5.87 16.99c-1.19,0.27 -2.4,0.49 -3.62,0.6 -5.41,0.51 -10.26,-1 -13.33,-5.74 -1.94,-2.99 -2.7,-6.13 -1.58,-9.58 0.51,-1.58 1.35,-3.02 2.23,-4.41 0.57,-0.9 1.29,-1.91 1.91,-2.97 -1.53,0.84 -3.22,1.23 -4.93,0.57 -2.47,-0.95 -3.95,-3.76 -5.03,-6.02 -0.56,-1.17 -1.32,-3.04 -2.13,-4.3 -6.03,1.79 -11.9,5.06 -16.71,9.05 -5.54,4.59 -10.33,10.67 -12.27,17.69 -2.15,7.78 -0.38,15.19 4.02,21.84 7.17,10.84 17.54,16.61 30.6,14.35 5.02,-0.87 9.94,-2.87 14.26,-5.55 3.09,-1.92 6.37,-4.51 8.69,-7.43 -0.64,-0.75 -1.43,-1.51 -2.02,-2.19 -1.29,-1.48 -2.43,-3.1 -3.06,-4.98 -1.4,-4.16 0.32,-7.88 2.97,-10.94zm-683.16 -65.85c-1.37,0.72 -2.98,1.76 -3.12,2.76 -0.15,1.02 1.2,2.39 2.38,3.39 1.17,-2.47 1.39,-3.41 0.74,-6.15zm29.86 -24.82c-0.94,1.37 -1.97,3.26 -1.42,4.44 0.65,1.38 3.4,1.98 5.49,2.25 -0.65,-3.37 -1.63,-4.47 -4.07,-6.69zm442.23 18.77c-3.57,2.17 -10.13,5.59 -13.94,2.15 -3.84,-3.46 -2.02,-11.39 -0.58,-15.59 0.52,-1.51 1.14,-3.02 1.86,-4.47 -11.13,0.42 -22.05,4.7 -25.57,16.35 -1.67,5.53 -1.21,11.62 0.78,17.01 1.78,4.82 4.85,9.26 8.98,12.35 9.19,6.87 19.98,4.85 29.12,-0.98 5.5,-4.22 7.81,-9.76 8.01,-16.57 0.08,-2.67 -0.17,-5.29 -0.46,-7.94 -0.12,-1.16 -0.33,-2.69 -0.34,-4.07 -0.68,0.04 -1.36,0.07 -2.05,0.11 -0.73,0.03 -1.47,0.07 -2.19,0.2 -1.27,0.23 -2.5,0.85 -3.64,1.43zm202.6 -99.38c-5.5,-1.65 -11.35,-3.5 -17,-4.27 -5.77,-0.79 -11.69,-0.41 -17.46,0.07 -5,0.41 -9.59,-0.39 -13.95,-2.9 -3.41,-1.96 -6.14,-4.62 -9.19,-7.03 -1.79,-1.42 -3.63,-2.67 -5.72,-3.56 -2.22,5.13 -2.6,10.07 -0.73,15.51 1.45,4.21 3.96,8.1 6.17,11.94 1.17,2.03 2.28,4.09 3.2,6.24 2.7,6.31 3.13,12.23 0.94,18.79 -3.31,9.93 -12.14,19.38 -19.63,26.38 -0.99,0.93 -2.01,1.87 -2.96,2.84 -0.13,0.14 -0.37,0.37 -0.57,0.59 0.6,1.29 -0.07,2.73 -0.73,4.03 -1.59,3.1 -5.76,5.24 -8.66,6.99 -6.56,3.96 -13.91,6.14 -21.3,7.97 -5.32,1.31 -10.64,2.56 -16,3.68 -2.26,0.47 -4.64,0.9 -6.85,1.56 -2.16,0.64 -4.26,1.6 -6.31,2.53 -4.44,2.02 -8.86,4.09 -13.3,6.13 0.85,2.89 2.02,5.58 3.56,8.19 1.49,2.52 3.24,4.83 4.94,7.2 2.86,3.98 5.01,7.61 6.34,12.39 1.92,6.88 1.69,14.56 0.88,21.59 -1.28,11.14 -4.67,20.06 -10.65,29.45 -1.73,2.72 -3.64,5.38 -5.28,8.16 -1.2,2.03 -2.34,4.29 -2.64,6.65 -0.02,0.16 -0.04,0.32 -0.05,0.48 0.56,0.45 1.18,0.87 1.75,1.25 1.16,0.78 2.34,1.52 3.5,2.29 3.07,2.02 6.03,4.15 8.74,6.65 7.32,6.76 11.43,14.94 11.31,25.05 -0.03,2.96 -0.06,6.85 -1.96,9.31 -1.18,1.53 -3.27,2.84 -4.79,4.06l-0.89 0.71 -0.9 -0.7c-0.8,-0.63 -2.73,-1.87 -3.1,-2.83 -0.15,-0.39 -0.16,-0.83 -0.26,-1.24 -0.23,-0.96 -0.72,-2 -1.14,-2.88 -6.47,-13.51 -20.47,-18.95 -34.75,-19.29 -8.52,-0.2 -16.69,0.82 -25.1,1.99 -5.61,0.78 -11.21,1.56 -16.86,1.95 -5.11,0.35 -10.17,0.38 -15.26,0 0.91,0.91 1.85,1.79 2.8,2.65 2.83,2.55 5.78,4.99 8.77,7.35 2.65,2.1 5.36,4.15 8.11,6.12 1.97,1.41 4.09,2.9 6.21,4.08 3.08,1.71 6.21,2.58 9.63,1.35 1.73,-0.62 3.33,-1.67 4.83,-2.73 1.76,-1.24 3.46,-2.54 5.31,-3.66 5.02,-3.01 9.81,-3.69 15.5,-2.17l1.09 0.29 -0.02 1.13c-0.01,0.67 -0.09,1.34 -0.23,2 -0.89,4.2 -4.14,7.82 -5.77,11.83 -2.33,5.74 -0.74,10.89 2.33,16.03 4.33,7.25 16.9,12.38 25.4,14.65 1.94,-6.96 5.34,-13.39 11.24,-17.83 9.05,-6.8 21.3,-6.84 32,-5.21l1.55 0.24 -0.36 1.52c-0.67,2.81 -1.67,5.37 -4.16,7.02 -1.24,0.83 -2.68,1.36 -3.98,2.09 -1.82,1.02 -3.27,2.3 -4.62,3.88 -1.81,2.12 -3.1,4.6 -3.71,7.32 -1.3,5.82 0.78,11.47 4.54,15.92 5.69,6.74 14.8,10.62 23.16,12.74 16.96,4.29 34.56,3.92 51.47,-0.4 15.92,-4.07 31.11,-11.58 44.14,-21.57 11.56,-8.86 22.15,-20.26 28.94,-33.23 5.56,-10.62 8.88,-23.1 6.09,-35.03 -0.92,-3.94 -2.65,-7.96 -4.68,-11.45 -2.7,-4.64 -7.75,-11.23 -13.57,-12.02 -1.15,1.39 -2.21,2.83 -3.19,4.35 -0.77,1.2 -1.48,2.46 -2.3,3.63 -2.08,2.97 -4.83,4.85 -7.91,6.68 -10.57,6.28 -22.82,8.9 -34.8,5.43 -10.12,-2.93 -18.69,-9.88 -23.77,-19.1 -3.8,-6.89 -5.48,-14.8 -4.62,-22.64 0.99,-8.98 5.14,-16.98 11.23,-23.58 3.9,-4.23 8.06,-8.48 13.05,-11.42 7.27,-4.29 16.3,-5.56 24.63,-6.43 1.08,-6.35 2.74,-13.31 7.08,-18.19 3.26,-3.66 7.59,-5.78 12.17,-7.29 2.41,-0.8 4.99,-1.32 7.5,-1.75 2.86,-0.5 5.75,-0.88 8.63,-1.28 3.6,-0.49 7.23,-0.97 10.79,-1.7 2.41,-0.49 5.54,-1.22 7.67,-2.48 4.31,-2.55 7.06,-7.37 8.04,-12.18 1.11,-5.46 0.07,-11.16 -3.16,-15.72l-21.86 -16.69 0.44 12.64 -1.77 -0.33c-22.65,-4.24 -25.89,-43.94 -27.14,-62.77zm-26.97 -14.31c-0.45,-3.65 -0.42,-8.73 2.73,-10.26 3.18,-1.55 6.86,1.86 8.83,3.98 1.18,1.27 2.22,2.6 3.1,4.1 0.52,0.88 0.95,1.84 1.49,2.7 1.24,1.99 3.93,3.25 6.22,4.17l2.4 -4.91c0.27,-0.73 0.66,-1.79 1.16,-2.48 0.03,-0.22 0.05,-0.46 0.08,-0.67 0.08,-0.67 0.17,-1.33 0.26,-1.99 -5.73,-4.36 -11.08,-9.74 -16.21,-14.75 -3.71,-3.63 -7.44,-7.28 -11.37,-10.69 -2.86,-2.48 -5.69,-5.02 -8.39,-7.69 -1.3,-1.29 -2.55,-2.65 -3.88,-3.89 -1.57,-1.47 -3.31,-2.67 -5.11,-3.84 -4.26,-2.78 -8.7,-5.38 -13.07,-7.98 -3.04,-1.81 -6.23,-3.44 -9.4,-5 -3.67,-1.81 -7.38,-3.53 -11.09,-5.24 -5.3,-2.45 -10.64,-4.86 -15.87,-7.46 -6.99,-3.47 -13.89,-6.99 -20.32,-11.43 -1.74,-1.2 -3.45,-2.43 -5.19,-3.63 -2.21,-1.53 -4.45,-3.01 -6.72,-4.46 -3.16,2.14 -6.33,4.78 -9.1,7.32 -5.42,4.95 -10.44,10.7 -14.12,17.08 -3.1,5.37 -4.53,10.54 -3.76,16.73 0.45,3.64 1.56,7.21 2.61,10.71 1.19,3.96 2.29,7.83 2.96,11.91 0.79,0.39 1.58,0.73 2.4,1.04 0.74,0.28 1.5,0.53 2.18,0.94 1.77,1.08 2.86,3.4 3.73,5.2 1.5,3.09 2.69,6.3 4.11,9.43 2.92,6.41 6.05,12.53 8.15,19.28 2.73,8.77 2.73,17.65 -1.88,25.79 -9.48,16.7 -34.82,23.9 -52.64,26.64 -5.15,0.79 -10.5,1.34 -15.57,2.46 -3.43,0.76 -7.33,1.93 -9.89,4.48 -3.3,3.29 -3.71,8.4 -3.38,12.97 0.7,-0.71 1.2,-1.55 1.72,-2.64 0.66,-1.37 1.21,-2.63 2.17,-3.85 1.34,-1.7 3.09,-2.85 5.05,-3.72 1.09,-0.48 2.74,-0.83 3.9,-1.11 2.02,-0.47 4.06,-0.91 6.09,-1.32 3.19,-0.66 6.4,-1.29 9.61,-1.88l1.72 -0.32 -0.11 9.97 -0.79 0.39c-2.93,1.45 -5.89,1.8 -9.1,1.96 -2.22,0.11 -4.99,0.1 -7.05,0.98 -2.2,0.94 -3.36,2.84 -4.13,5.02 -1.53,4.32 -2.61,10.99 0.88,14.71 1.82,1.94 4.48,2.48 7.05,2.36 0.72,-1.76 1.37,-3.53 2.05,-5.31 0.52,-1.38 1.07,-2.76 1.87,-4.01 1.68,-2.61 4.71,-4.63 7.24,-6.34 5.66,-3.83 14.49,-6.72 20.39,-1.77l0.53 0.44 -0.01 0.69c-0.04,2.32 -0.11,6.28 -2.57,7.45 -1.14,0.54 -2.42,0.35 -3.61,0.15 -1.27,-0.22 -2.46,-0.45 -3.76,-0.46 -4.2,-0.01 -7.6,2.5 -10.37,5.43 -2.04,12 8.88,20.03 19.9,14.31 1.64,-0.85 3.13,-1.9 4.55,-3.07 2.98,-2.46 5.6,-5.34 8.54,-7.84 3.6,-3.06 7.32,-5.28 11.88,-6.62l0.03 -0.01 34.01 -8.16c3.28,-0.79 7.83,-1.91 10.78,-3.59 1.12,-0.64 2.05,-1.35 2.38,-2.64 0.18,-0.69 0.22,-1.45 0.32,-2.16 0.15,-1.09 0.39,-2.08 0.84,-3.09 1.49,-3.32 4.95,-5.91 7.93,-7.8 7.39,-4.68 14.54,-14.99 18.53,-22.74 0.2,-0.38 0.35,-0.77 0.47,-1.18 1.25,-4.46 -2.35,-10.89 -4.47,-14.67 -1.94,-3.45 -4.27,-7.11 -5.69,-10.79 -1.36,-3.51 -2.23,-7.46 -2.64,-11.2 -0.62,-5.64 -0.47,-14.11 4.41,-17.99 1.57,-1.25 3.43,-1.85 5.42,-1.93 0.95,-0.04 1.89,0.06 2.81,0.3 4,1.03 7.4,4.62 10.3,7.4 2.85,2.72 5.71,5.26 9.22,6.9 -0.19,-0.62 -0.43,-1.17 -0.74,-1.39 -0.56,-0.41 -0.98,-0.65 -1.48,-1.18 -0.87,-0.92 -1.52,-2.16 -2.02,-3.3 -0.9,-2.03 -1.3,-4.03 -0.59,-6.18 0.38,-1.13 1,-2.14 1.6,-3.16l0.43 -0.73 0.85 0.02c1.4,0.03 2.87,0.03 4.26,-0.12 0.84,-0.09 1.68,-0.4 2.34,0.42 0.36,0.46 0.34,0.81 0.28,1.32 -0.01,0.47 0.97,1.76 1.24,2.09 0.75,0.92 1.27,2.1 1.76,3.18 0.54,1.19 1.09,2.36 1.81,3.45 1.65,2.49 3.87,3.96 6.54,4.83zm-717.6 -54.07c0.22,-0.26 0.4,-0.52 0.52,-0.75 0.32,-0.62 0.4,-1.58 0.46,-2.26 0.2,-2.09 0.32,-4.19 0.5,-6.29 0.07,-0.79 0.22,-1.61 0.34,-2.4 0.2,-1.24 0.39,-2.48 0.57,-3.73 0.45,-3.23 0.79,-6.5 0.85,-9.76 0.07,-4.12 -0.27,-10.89 -3.71,-13.76 -1.51,-1.26 -3.4,-1.56 -5.32,-1.4 -0.38,0.03 -1.78,0.11 -2.24,0.25 -0.14,0.23 -0.33,0.65 -0.44,0.86 -0.14,0.26 -0.36,0.66 -0.58,1.06 0.89,0.34 1.61,0.97 2.19,1.71 3.28,4.19 5.37,8.27 5.48,13.67 0.07,3.42 -0.52,6.88 -0.54,10.34 -0.03,4.33 0.68,8.39 1.93,12.45zm895 -41.38c1.14,4.16 2.69,8.2 3.81,12.37 0.59,2.21 1.02,4.37 1.48,6.59 0.12,0.6 0.36,1.9 0.79,2.37 0.38,0.41 1.3,0.64 1.82,0.76 1.23,0.29 2.53,0.51 3.81,0.72 -0.46,-8.97 -3.7,-18.34 -11.71,-22.81zm-1035.21 -9.26c1.57,1.24 3.43,2.12 5.28,2.85 2.61,1.04 5.34,1.86 7.99,2.79 10.14,3.52 19.55,4.6 30.13,2.81 3.7,-0.63 7.3,-1.56 10.96,-2.38 3.3,-0.73 6.67,-1.35 10.07,-1.24 1.61,0.06 3.21,0.28 4.77,0.69l0.64 0.17 0.29 0.59c0.89,1.81 1.58,3.66 2.13,5.59 0.46,1.6 0.82,3.22 1.23,4.83 1.06,4.11 2.44,6.95 5.24,10.21 2.15,2.5 4.21,4.59 7.13,6.15 1.93,1.03 3.86,1.88 5.76,3 0.61,0.36 1.23,0.71 1.86,1.03 0.32,0.17 0.65,0.32 0.94,0.54 0.57,0.44 1.37,1.49 1.87,2.05l1.17 1.31 -1.5 0.9c-1.13,0.67 -2.35,1.16 -3.63,1.45 -3.07,0.68 -6.21,0.15 -9.09,-1.03 -3.3,-1.35 -6.32,-3.54 -8.91,-5.96 -6,-5.61 -10.62,-13.26 -13.49,-20.97 -12.99,2.54 -27.47,7.39 -40.61,4.62 -2.22,-0.47 -4.39,-1.14 -6.52,-1.92 -5.69,-2.11 -10.85,-5.05 -16.31,-7.64 -2.71,-1.29 -7.78,-3.68 -10.8,-2.48 -2.68,1.07 -3.68,4.91 -4.15,7.43 -0.44,2.37 -1.25,7.51 1.13,9.22 1.22,0.88 3.21,0.93 4.66,0.9 2.39,-0.06 4.79,-0.39 7.18,-0.5 1.72,-0.08 3.46,-0.07 5.16,0.2 8.14,1.27 16.84,4.64 18.86,13.55 0.71,3.15 0.46,6.45 -0.25,9.57 -0.82,3.61 -2.24,7.1 -3.85,10.42 -0.59,1.23 -1.22,2.43 -1.84,3.64 -0.08,0.15 -0.19,0.37 -0.31,0.6 10.85,3.19 12.83,-3.22 21.76,-8.09l1.88 -1.02 0.25 2.12c0.33,2.77 0.22,5.35 -1.23,7.8 -0.82,1.39 -1.96,2.61 -2.93,3.91 -0.88,1.18 -1.61,2.39 -2.24,3.67 5.56,-0.41 11.56,-0.77 16.61,-2.85 1.8,-0.74 3.38,-1.65 4.85,-2.93 0.97,-0.85 1.89,-1.9 3.01,-2.55 1.44,-0.84 2.98,-0.89 4.59,-0.65l0.45 0.06 0.33 0.31c1.76,1.64 3.02,3.48 3.5,5.87 0.41,2.04 0.19,4.17 -0.02,6.23 -0.26,2.5 -0.47,4.86 -0.35,7.38 0.21,4.12 0.43,8.4 -0.36,12.47 -1.37,7.12 -5.73,12.41 -10.93,17.22 -1.34,1.24 -2.81,2.34 -4.26,3.43 -1.76,1.33 -3.88,2.85 -5.38,4.54 1.07,9.81 6.96,9.01 11.81,15.95l0.49 0.69 -0.37 0.76c-1.76,3.66 -3.54,5.53 -7,7.52 -1.88,1.08 -3.17,1.9 -4.41,3.38 6.55,3.78 12.89,5.08 20.54,6.17l1.42 0.2 -0.2 1.43c-0.34,2.47 -0.75,5.84 -2.52,7.74 -0.5,0.53 -1.08,0.99 -1.62,1.49 -0.15,0.14 -0.29,0.28 -0.43,0.42 2.08,0.2 4.22,0.22 6.27,0.2 3.04,-0.03 6.09,-0.2 9.13,-0.23 2.04,-0.02 4.99,-0.04 6.9,0.68l0.89 0.34 0.22 5.55 -0.05 0.2c-0.3,1.26 -0.93,2.25 -1.57,3.34 -0.71,1.22 -1.59,2.19 -2.38,3.27 2.16,0.77 4.25,1.24 6.66,1.08 1.24,-0.08 2.48,-0.28 3.71,-0.43 1.74,-0.22 3.45,-0.35 5.2,-0.37 8.52,-0.1 6.86,1.61 12.74,6.28l1.52 0.98c3.94,-2.14 10.89,-3.23 14.97,-3.71 8,-0.95 16.41,-1.02 24.42,-0.23 8.78,0.86 18.6,2.93 26.27,7.46 4.06,2.4 8.28,5.6 7.99,10.82 -0.14,2.44 -1.2,4.83 -1.04,7.26 0.23,3.57 3.28,6.43 5.91,8.49 3.2,2.49 7.26,4.34 11.28,2.75 4.1,-1.62 6.67,-6.13 7.9,-10.22 -1.62,-2.46 -3.58,-4.16 -6.05,-5.82 -2.03,-1.36 -4.5,-2.72 -5.9,-4.77 -1.45,-2.13 -1.49,-4.57 -0.98,-7.02l0.15 -0.73 0.69 -0.3c2.85,-1.25 6.23,-2.14 9.05,-0.31 1.67,1.08 2.74,2.86 3.68,4.55 0.98,1.76 1.87,3.56 3.12,5.15 3.67,4.66 9.14,5.17 14.67,4.53 2.06,-1.93 3.77,-4.67 4.82,-7.24 2.15,-5.28 2.21,-11.26 -3.5,-14.16 -0.99,-0.5 -1.99,-0.71 -3.1,-0.65 -1.67,0.09 -3.44,0.76 -5.02,1.29 -2.13,0.71 -4.18,1.28 -6.45,1.27 -2.38,-0.02 -4.9,-0.62 -6.9,-1.95 -1.58,-1.05 -3.04,-2.78 -2.81,-4.8 0.36,-3.27 4.45,-4.2 7.12,-4.42 1.26,-0.11 2.5,-0.12 3.76,-0.16 2.88,-0.1 5.17,-0.7 7.9,-1.65 2.52,-0.88 4.69,-2.47 5.4,-5.16 1.06,-4 -1.46,-8.52 -4.44,-11.05 -3.24,-2.75 -7.4,-3.73 -11.37,-1.9 -0.69,0.38 -3.8,5.39 -4.4,6.27 -2.77,4.04 -5.93,7.74 -10.05,10.48 -14.84,9.86 -32.87,0.85 -45.67,-8.14 -5.09,-3.58 -10.23,-7.21 -15.12,-11.07 -2.82,-2.22 -5.47,-4.52 -8.02,-7.05 -1.82,-1.8 -3.58,-3.67 -5.36,-5.52 -2.6,-2.69 -5.25,-5.33 -7.95,-7.93 -3.5,-3.37 -7.4,-6.27 -10.8,-9.75l-0.19 -0.2 -0.11 -0.25c-1.67,-3.93 -0.38,-9.05 0.96,-12.9 1.83,-5.25 4.53,-10.44 7.15,-15.33 1.85,-3.45 3.76,-6.87 5.58,-10.33 1.5,-2.84 3.03,-5.81 4.18,-8.81 1.47,-3.86 2.63,-7.96 3.64,-11.97 1.28,-5.09 2.31,-10.27 3.07,-15.46 1.16,-7.94 2.18,-19.29 -0.22,-27.03 -0.24,-0.79 -0.47,-1.57 -0.69,-2.37 -0.03,-0.1 -0.06,-0.22 -0.08,-0.33 -1.01,-0.39 -1.89,-1.15 -2.67,-1.84 -14.03,-12.45 -30.05,-14.9 -48.13,-14.43 -7.43,0.19 -14.93,0.91 -22.35,0.8 -5.96,-0.09 -12.56,-0.77 -17.62,-4.21 -2.49,-1.69 -4.39,-3.88 -5.8,-6.48 -10.39,1.6 -20.65,6.39 -30.56,10.02zm880.66 -91.82c0.7,13.26 -0.7,33.46 -14.77,38.83l-1.55 0.59 -3.7 -15.83c-0.11,0.5 -0.2,0.96 -0.28,1.32 -0.74,3.5 -1.31,7.07 -1.8,10.61 -0.48,3.5 -0.88,7.05 -1.08,10.57 -0.09,1.56 -0.28,4.88 0.16,6.36 1.57,5.29 4.15,9.55 8.6,12.86 1.58,1.17 3.26,2.13 4.97,3.1 1.49,0.84 3.08,1.71 4.37,2.84 0.42,0.37 1.35,1.08 1.67,1.54 0.29,0.43 0.52,0.89 0.84,1.35l0.68 0.98 -0.83 0.85c-2.88,2.98 -6.22,4.99 -10.3,5.79 -3.84,0.75 -7.81,0.33 -11.63,-0.36 -4.18,-0.76 -8.3,-1.83 -12.49,-2.59 -4.35,-0.79 -9.4,-0.44 -13.8,-0.15 -5.53,0.37 -11.04,0.83 -16.59,0.6 -2.35,-0.1 -4.71,-0.32 -7.03,-0.73 -4.72,-0.83 -9.02,-3.44 -12.79,-6.28 -2.28,-1.72 -4.45,-3.58 -6.63,-5.43 -1.77,-1.5 -3.61,-3.08 -5.55,-4.38l-27.56 -9.8c0.29,1.22 0.68,2.43 1.32,3.42 0.38,0.61 0.78,1.17 1.13,1.8 0.61,1.08 1.11,2.23 1.55,3.39l0.5 1.32 -1.3 0.53c-1.61,0.66 -3.16,1.44 -4.77,2.11 -1.7,0.71 -3.38,1.13 -5.13,1.44 6.7,14.57 13.5,25.75 27.24,34.97 13.16,8.84 28.43,14.99 42.81,21.58 14.84,6.8 30.42,15.15 42.58,26.2 3.6,3.27 6.83,6.75 9.95,10.47 2.44,2.91 4.8,5.94 7.4,8.7 3.81,4.04 7.75,6.9 12.69,9.26 1.01,-1.38 2.35,-4.05 2.86,-5.05 1.81,-3.57 3.48,-7.25 5.11,-10.91 2.5,-5.65 4.94,-11.38 7.23,-17.12 2.9,-7.26 6.13,-17.2 4.59,-25.14 -0.4,-2.08 -1.1,-3.85 -2,-5.75 -0.73,-1.52 -1.56,-3.1 -1.79,-4.79 -0.25,-1.81 0.23,-3.44 1.13,-5.01l0.32 -0.57 0.64 -0.13c1.63,-0.34 3.29,-0.23 4.82,0.46 6.79,3.11 7.5,16.05 7.41,22.4 -0.07,5.26 -0.67,11.27 -2.13,16.33 -2.15,7.42 -5.27,14.42 -8.62,21.36 -4.14,8.59 -8.52,17.02 -11.56,26.09 -3.42,10.17 -4.79,20.15 -3.92,30.86 0.45,5.5 1.28,10.79 2.89,16.07 1.5,4.94 3.58,9.67 5.76,14.34 0.33,0.7 0.67,1.41 1.01,2.11 0.27,0.55 0.61,1.27 0.96,1.78 0.46,0.66 0.82,1.25 1.2,1.92 0.09,0.06 0.18,0.11 0.28,0.17 0.56,-1.69 1.13,-3.53 1.39,-5.27 0.1,-0.68 0.09,-1.6 0.4,-2.2 0.41,-0.79 1.74,-1.48 2.48,-1.98 1.18,-0.81 3.13,-2.48 4.65,-2 0.97,0.3 1.45,1.21 1.91,2.02 0.65,1.13 1.3,2.16 2.1,3.19 3.68,4.75 9.42,8.92 14.42,12.13 5.1,3.28 9.94,7.26 13.12,12.51 4.23,7.01 4.42,14.62 1.9,22.29 -1.85,5.62 -5.07,10.13 -10.12,13.28 -6.09,3.79 -13.72,4.89 -20.74,5.58 -4.97,0.49 -10.05,0.74 -14.97,1.6 -3.92,0.68 -8.18,1.84 -11.29,4.45 -3.37,2.82 -4.71,6.9 -5.08,11.1 3.8,-3.65 9.24,-7.01 13.62,-8.17l0.15 -0.04 4.27 -0.21c0.01,-0.01 0.02,-0.01 0.03,-0.02 0.87,-0.41 1.43,-0.01 2.17,0.31l0.54 0.2 0.25 0.53c1.3,2.76 2.91,7.02 0.56,9.69 -2.25,2.56 -7.4,2.34 -10.55,2.43 -1.17,0.04 -2.38,0.09 -3.56,0.24 -2.51,7.87 -3,14.8 2.37,21.38 0.99,-0.82 1.94,-1.79 2.79,-2.68 1.51,-1.57 2.98,-3.17 4.55,-4.69 5.27,-5.08 11.19,-8.47 18.34,-4.56l0.66 0.36 0.83 7.54 -0.97 0.43c-2.66,1.17 -5.23,1.82 -8.05,2.43 -1.6,0.35 -3.66,0.73 -5.05,1.65 -1.24,0.82 -1.91,2.06 -2.38,3.45 -0.82,2.43 -1.05,5.5 -1.16,8.13 4.52,3.88 10.09,6.88 16.19,5.19 8.25,-2.28 15,-12.45 20.06,-18.94 2.14,-2.75 4.64,-6.2 7.36,-8.39 1.21,-0.98 2.54,-1.79 3.88,-2.57 2.11,-1.24 4.23,-2.45 6.32,-3.71l28.68 -19.33c3.04,-2.4 5.56,-5.37 8.49,-7.91 5.69,-4.93 11.99,-8.93 17.48,-14.13 1.79,-1.69 3.33,-3.57 3.77,-6.05 0.36,-2.1 -0.02,-4.67 -0.2,-6.79 -0.34,-3.8 -0.36,-7.34 0.11,-11.15 0.43,-3.45 1.56,-7.03 2.5,-10.38 0.97,-3.46 2.91,-10 1.5,-13.55 -1.06,-1.12 -2.54,-2.52 -4,-2.98 -0.93,-0.3 -1.73,-0.16 -2.68,-0.16 -1.51,0 -2.65,-0.42 -3.83,-1.36 -1.84,-1.46 -3.48,-3.99 -4.69,-5.98 -3.19,-5.23 -6.99,-11.95 -8.44,-17.95 -0.82,-3.39 -0.99,-7.21 1.44,-10.01 5.35,-6.18 19.71,-3.39 27.9,-8.66 -1.18,-0.65 -2.42,-1.22 -3.62,-1.76 -3.66,-1.65 -8.75,-3.63 -10.74,-7.34 -1.28,-2.38 -1.08,-4.97 -0.2,-7.45l0.54 -1.53 1.46 0.72c5.89,2.91 13.07,6.23 19.77,4.39l3.43 -2.07c-2.14,-1.02 -4.29,-2.02 -6.37,-3.14 -2.45,-1.32 -4.81,-2.84 -6.68,-4.93 -4.41,-4.94 -4.66,-11.91 -4.17,-18.17l0.13 -1.65 1.62 0.35c2.64,0.57 4.84,1.61 6.92,3.34 1.26,1.05 2.47,2.46 3.8,3.36 1.08,0.73 2.17,0.99 3.48,0.95 1.82,-0.05 3.89,-0.67 5.73,-1.35 -1.99,-3.55 -4.05,-7.04 -6.11,-10.56 -1.36,-2.33 -2.75,-4.71 -3.7,-7.25 -1.24,-3.32 -1.67,-6.89 -2.02,-10.39 -0.7,-7.07 -1.11,-14.24 -1.67,-21.33 -2.11,-26.81 -12.17,-47.48 -30.28,-67.02 -15.6,-16.84 -34.42,-30.34 -50.77,-46.44 -0.02,0.1 -0.04,0.2 -0.06,0.31 -0.08,0.48 -0.07,0.94 -0.1,1.42 -0.12,1.96 -1.37,3.59 -2.54,5.07l-0.8 1.01 -1.1 -0.68c-7.93,-4.93 -15.75,-7.82 -24.89,-9.56 -5.99,-1.14 -12.09,-1.75 -18.14,-2.51 -6.55,-0.82 -12.97,-1.83 -19.39,-3.31zm-803.56 -8.79c2.33,10.62 6.35,21.76 11.46,30.8 1.7,3 3.7,6.33 6.07,8.85 1.46,1.55 3.07,2.8 5.13,3.42 2.9,0.87 6.61,0.41 9.57,0.08 4.97,-0.54 9.71,-1 14.67,-1.07 -3.4,-13.98 -10.69,-17.01 -22.78,-24.04 -3.57,-2.08 -7.18,-4.03 -10.78,-6.04 -2.34,-1.31 -4.68,-2.67 -6.75,-4.38 -2.48,-2.05 -4.65,-4.78 -6.59,-7.62zm59.02 45c1.97,-2.08 3.78,-4.35 4.94,-6.97 2.76,-6.23 1.46,-14.49 0.31,-20.95 -4.29,-24 -27.84,-22.68 -40.62,-38.4 -3.92,-4.83 -6.34,-9.76 -7.72,-15.81 -0.49,-2.13 -0.81,-4.28 -1.21,-6.43 -0.33,-1.79 -0.72,-3.6 -1.41,-5.29 -7.22,8.06 -8.59,17.92 -7.95,28.72 0.39,6.55 1.93,12.52 6.35,17.53 3.72,4.22 9.05,7.32 13.86,10.15 3.1,1.83 6.19,3.64 9.21,5.59 3.55,2.28 6.98,4.72 10.25,7.39 3.36,2.74 6.59,5.93 8.69,9.76 1.45,2.64 2.11,5.14 2.82,8.03 0.62,2.52 1.25,4.58 2.47,6.69zm-53.48 -2.47c-1.56,-3.11 -3.31,-5.97 -5.18,-8.97 -2.16,-3.46 -4.07,-6.78 -5.69,-10.54 -2.47,-5.72 -4.19,-11.85 -5.61,-17.9 -0.58,-2.49 -1.16,-5.12 -1.97,-7.54 -0.4,-1.21 -0.88,-2.39 -1.69,-3.39 -0.69,-0.85 -1.6,-1.57 -2.46,-2.25 -1.53,-1.21 -3.05,-2.4 -4.54,-3.67 -2.21,-1.89 -4.14,-4.04 -6.11,-6.17 -1.81,-1.95 -3.68,-3.91 -5.86,-5.44 -0.2,-0.15 -0.41,-0.29 -0.62,-0.42l1.55 19.83 -5.88 1.59c-0.37,0.11 -0.74,0.21 -1.11,0.33l-2.15 0.88c0.79,4.64 3.19,10.01 5.24,14.05 1.66,3.28 3.51,6.49 5.51,9.57 1.39,2.13 3.03,4.54 4.77,6.4 7.98,8.47 20.25,12.9 31.79,13.65zm121.88 27.79c0.09,-0.45 0.25,-0.95 0.43,-1.35l0.27 -0.6 0.63 -0.19c1.29,-0.39 3,0.51 4.13,1.09 1.78,0.92 3.51,1.94 5.29,2.87 4.35,2.26 9.2,4.24 14.16,4.28 3.15,0.02 6.3,-0.96 8.35,-3.45 1.5,-1.83 2.21,-4.33 1.56,-6.64 -0.7,-2.49 -2.72,-3.97 -5.15,-4.56l-0.11 -0.03 -0.1 -0.04c-1.07,-0.44 -2.73,-0.75 -3.87,-0.99 -2.17,-0.47 -4.35,-0.89 -6.53,-1.29 -3.57,-0.66 -7.14,-1.27 -10.7,-1.9l-1.41 -0.25 0.24 -1.41c0.61,-3.58 1.85,-8.33 5.81,-9.53 2.6,-0.78 5.64,0.22 8.25,0.65 2.79,0.46 5.15,0.35 7.41,-1.54 3.29,-2.74 5.13,-6.32 3.28,-10.47 -0.66,-1.48 -1.73,-2.84 -2.95,-3.9 -0.7,-0.61 -1.81,-1.4 -2.78,-1.66 -3.01,0.68 -5.45,2.08 -7.72,4.18 -2.87,2.65 -5.13,6.02 -7.72,8.95 -3.22,3.64 -6.64,6.35 -11.29,7.95 -10.21,3.51 -26.13,-12.73 -32.37,-19.28 -7.61,-7.99 -14.57,-16.58 -21.29,-25.32l-19.95 -25.94c-0.09,0.59 -0.1,1.2 -0.01,1.82 0.45,2.98 3.35,6.03 5.35,8.14 3.57,3.76 7.06,7.2 10.07,11.47 9.78,13.84 9.82,29.65 5.99,45.53 13.39,1.68 26.59,6.97 37.63,14.64 6.05,4.21 6.84,13.83 7.24,20.54 0.24,4.09 0.29,8.32 0.82,12.38 0.39,2.98 1.56,6.15 4.6,7.28 3.38,1.25 7.54,-0.46 10.23,-2.52 2.43,-1.87 4.66,-4.73 4.91,-7.88 0.32,-3.99 -2.69,-6.86 -5.89,-8.71 -2.94,-1.7 -6.86,-4.45 -7.61,-8.02 -0.35,-1.7 0.02,-2.84 0.79,-4.25zm493.11 -148.12c-0.99,-0.54 -2.03,-1 -3.08,-1.41 -2.15,-0.85 -4.37,-1.5 -6.56,-2.23 -2.46,-0.82 -4.83,-1.73 -7.12,-2.96 -3.41,-1.83 -6.35,-3.92 -9.5,-6.14 -1.91,-1.34 -3.8,-2.57 -5.82,-3.66 -0.81,2.1 -1.93,4.36 -3.53,5.73 -0.61,0.52 -1.25,0.89 -1.99,1.18 -0.4,0.16 -0.87,0.28 -1.25,0.47 -1.37,0.68 -1.58,4.98 -1.67,6.2 -0.29,3.89 -0.28,7.89 -0.25,11.79 0.05,6.7 0.26,13.4 0.5,20.1 5.39,2.97 10.82,6.18 15.23,10.52 3.18,3.12 5.9,6.81 8.52,10.44 0.31,-0.12 0.65,-0.15 1.05,-0.03 0.11,0.03 0.21,0.08 0.3,0.13 0.1,-0.45 0.32,-0.85 0.91,-1.09 2.31,-0.93 5.32,-1.94 7.85,-1.8 0.71,0.04 1.39,0.17 2.05,0.44 0.05,0.02 0.09,0.04 0.14,0.06 0.13,-0.27 0.26,-0.55 0.34,-0.72l0.36 -0.77 0.18 -0.01c-0.16,-0.65 -0.48,-1.57 -0.59,-1.89 -0.57,-1.75 -1.08,-3.47 -1.41,-5.29 -1.16,-6.35 -1.93,-8.65 1.43,-14.48 1.81,-3.13 4.29,-6.76 5.36,-10.21 1.47,-4.76 0.14,-9.8 -1.47,-14.36zm-596.82 -9.95c-1.22,0.57 -2.35,1.21 -3.5,2.09 -2.04,1.57 -3.78,2.54 -6.13,3.63 -2.49,1.14 -5.05,2.16 -7.6,3.13 -4.33,1.65 -8.72,3.19 -13.1,4.7 -5.78,1.98 -12.54,4.96 -16.44,9.9 -1.11,1.4 -1.9,2.86 -2.68,4.46 -0.69,1.41 -1.35,2.86 -2.35,4.09 -0.76,0.94 -1.66,1.67 -2.74,2.21l-0.53 0.27 -0.57 -0.18c-8.48,-2.72 -9.31,-15.21 -9.15,-23.19 -4.96,-0.07 -9.42,-0.91 -14.26,-2.27 -3.06,-0.86 -6.96,-2.21 -10.15,-1.98 -2.76,0.2 -4.94,1.55 -6.94,3.39 -1.85,1.7 -3.45,3.63 -4.8,5.74 -3.68,5.77 -5.37,12.69 -6.35,19.39 -1.11,7.67 -1.38,15.5 -1.91,23.23 -0.9,12.99 -2.46,26.96 -10.01,37.99 -2.01,2.93 -3.67,4.72 -6.65,6.62 -1.4,0.89 -2.44,1.65 -3.42,2.61 10.97,0.64 21.96,-2.26 31.68,-7.3 7.64,-3.96 16.06,-10.14 21.37,-17.16l-7.72 -7.37c-1.67,-1.3 -3.64,-2.73 -5.05,-4.29 -0.57,-0.63 -1.08,-1.32 -1.59,-2.01 -0.78,-1.07 -1.55,-2.15 -2.35,-3.22 -0.92,-1.24 -1.83,-2.49 -2.7,-3.77 -4.49,-6.66 -7.16,-13.54 -3.93,-21.44l0.41 -1.01 1.08 0.12c2.4,0.27 4.57,1.08 6.25,2.87 1.93,2.05 2.83,5.01 3.68,7.63 1.04,3.24 2.07,6.21 3.92,9.11 4.92,7.71 7.66,11.08 15.58,14.64 0.36,-2.79 0.29,-5.64 0.04,-8.43 -0.41,-4.53 -1.31,-8.98 -1.87,-13.49 -0.47,-3.8 -0.78,-8.2 0.64,-11.84l0.5 -1.27 1.3 0.43c3.37,1.12 6.2,4.07 8.42,6.73 2.89,3.45 5.47,7.22 8.24,10.78 5.99,7.71 12.66,14.55 22.09,17.51 -0.12,-4.76 -0.29,-9.56 -0.17,-14.3 0.11,-3.96 0.46,-7.9 1.66,-11.7 1.8,-5.69 5.33,-10.39 9.23,-14.82 2.14,-2.43 4.45,-4.44 7.05,-6.37 1.85,-1.37 3.86,-2.68 5.55,-4.25 2.24,-2.09 3.5,-4.38 4.36,-7.32 1.27,-4.33 1.56,-9.58 1.6,-14.27zm18.23 70.15c-0.12,-9.72 1.92,-18.3 6.56,-26.99 1.74,-3.25 3.74,-6.31 5.69,-9.43 1.54,-2.46 3.14,-5.11 4.09,-7.86 2.1,-6.13 1.81,-11.04 7.09,-15.69l0.91 -0.8 0.95 0.76c2.05,1.64 3.56,3.69 4.33,6.21 2.16,7 -2.05,15.55 -5.43,21.52 -1.81,3.21 -3.79,6.31 -5.72,9.44 -1.21,1.97 -2.62,4.19 -3.61,6.35 2.31,1.9 4.6,3.86 6.58,6.08 2.71,3.04 4.97,6.7 7.16,10.12 4.01,6.27 6.86,13.83 15.68,10.41 0.05,-0.07 0.09,-0.13 0.14,-0.2 -0.08,-0.3 -0.14,-0.6 -0.19,-0.88 -0.21,-1.14 -0.96,-2.44 -1.52,-3.45 -1,-1.81 -1.96,-3.56 -2.75,-5.47 -2.76,-6.63 -3.16,-13.79 -2.57,-20.88 0.29,-3.54 0.8,-7.01 1.32,-10.52 0.4,-2.73 0.8,-5.51 0.84,-8.27 0.08,-6.01 -1.8,-11.01 -4.64,-16.23 -3.94,-7.23 -12.19,-16.15 -18.57,-21.3 -6.99,-5.63 -13.48,-11.99 -20.61,-17.45 -0.54,3.13 -1.24,6.5 -2.34,9.28 -0.32,0.81 -0.69,1.58 -1.16,2.32 -0.23,0.36 -0.51,0.73 -0.72,1.1 -0.35,0.64 -0.3,1.72 -0.27,2.41 0.11,3.09 0.58,6.4 0.95,9.47 1.28,10.49 -2.23,17.88 -5.54,27.35 -2.41,6.89 -3.54,14.56 -2.56,21.83 0.81,6.03 3.14,12.07 7.71,16.26 2.37,2.18 5.15,3.66 8.21,4.5zm-293.07 -63.84l-0.75 0.17c1.34,0.65 2.67,1.3 4,1.99 5.8,2.99 11.37,6.38 16.77,10.05 7.31,4.97 14.24,11.21 22.23,15.06 10.15,4.89 21.05,7.85 31.53,2.26 3.47,-1.85 6.46,-4.32 9.53,-6.75 2.9,-2.3 5.97,-4.64 9.5,-5.86 1.28,-0.44 2.59,-0.73 3.94,-0.84l1.1 -0.09 0.37 1.03c1.6,4.39 2.46,8.97 2.63,13.63 0.32,9.19 -2.1,18.3 -6.06,26.53 -4.17,8.66 -10.12,16.6 -16.94,23.36 -6.2,6.15 -13.34,11.55 -21.03,15.71 -3.26,1.76 -6.73,2.69 -10.1,4.13 -1.49,0.64 -2.91,1.38 -4.22,2.34 -1.99,1.46 -3.52,3.47 -5.51,4.85 -2.99,2.07 -6.31,1.94 -9.72,1.16l-1.61 -0.37 0.58 -1.55c1.1,-2.92 2.44,-5.36 3.87,-8.09 1.9,-3.64 2.83,-6.81 3.4,-10.6 -0.19,0.08 -0.39,0.16 -0.56,0.26 -0.58,0.33 -1.3,0.95 -1.86,1.35 -1.61,1.16 -2.3,2.15 -3.62,3.59 -2.57,2.81 -5.48,5.13 -8.46,7.49 -2.54,2.02 -5.18,4.11 -7.22,6.64 -2.12,2.62 -3.36,5.44 -3.83,8.78 -0.3,2.11 -0.51,4.44 -0.23,6.55 0.15,1.14 0.53,2.17 0.7,3.28 0.25,1.55 -0.09,2.89 -0.65,4.32 -1.05,2.66 -2.75,5.46 -4.22,7.91 -1.65,2.75 -3.38,5.45 -4.98,8.23 -1.88,3.27 -3.43,6.53 -4.72,10.08 -8.83,24.32 6.43,43.87 29.92,50.01 4.9,1.28 9.52,1.99 14.52,2.59 2.61,0.31 6.05,0.6 8.14,2.34 2.14,1.79 2.71,4.83 3.01,7.46 0.25,2.16 0.34,4.38 0.4,6.55 0.09,3.11 0.11,6.23 0.13,9.35l0.01 1.18 -1.15 0.25c-3.43,0.74 -6.87,1.68 -10.32,2.28 -3.99,0.69 -7.81,0.7 -11.78,0.44 0.15,2.74 1.01,5.2 3.16,7.16 1.95,1.78 4.6,2.94 6.99,4.02 4.3,1.94 8.5,3.92 10.56,8.47l0.83 1.84 -13.71 1.35c0.12,2.41 0.78,4.8 2.66,6.46 4.08,3.6 13.36,2.89 18.46,2.67 3.86,-0.17 7.9,-0.38 11.74,0.05 3.39,0.38 6.95,1.31 9.39,3.85 4.12,4.29 5.89,9.21 6.13,15.11l0.02 0.58 -0.38 0.43c-5.32,5.99 -13.51,10.62 -21.01,13.28 -5.92,2.1 -12.25,2.18 -18.46,1.98 -2.6,-0.08 -5.24,-0.23 -7.84,-0.18 -1.68,0.03 -3.74,0.16 -5.34,0.77 -4.44,3.51 -5.27,7.86 -4.81,13.27 0.21,2.43 0.65,4.83 0.85,7.25 0.18,2.2 0.16,4.6 -0.94,6.59 -2.24,4.08 -8.07,4.52 -12.67,4.33 0.85,1.47 1.85,2.84 3,4.16 1.47,1.68 3.1,3.18 4.65,4.78 1.97,2.05 3.57,4.12 4.76,6.73l0.48 1.05 -0.92 0.7c-1.73,1.31 -3.55,2.52 -5.3,3.8 3.45,3.92 7.6,6.37 11.5,9.83 1.01,0.9 1.97,1.84 2.84,2.87l0.43 0.5 -0.1 0.65c-0.31,2.09 -1.2,3.74 -2.32,5.49 -0.45,0.7 -1.47,2.1 -1.5,2.94 -0.08,1.72 4.35,3.94 5.53,4.53 3.05,1.54 6.13,2.43 9.41,3.32 2.84,0.76 5.79,1.53 8.32,3.09 0.76,0.47 1.47,1 2.12,1.6l0.69 0.64 -0.3 0.88c-0.37,1.09 -0.76,2.31 -1.26,3.34 -0.36,0.74 -0.82,1.38 -1.61,1.71 -0.61,0.25 -1.23,0.21 -1.86,0.35 -0.38,0.08 -0.76,0.22 -1.14,0.38 6.32,4.48 16.81,6.28 23.93,7.7 6.36,1.28 13.28,2.61 19.23,5.24 5.4,2.39 12.86,6.27 13.53,12.92 0.44,4.33 -2.11,9.17 -3.82,13.05 -2.26,5.13 -3.92,9.95 -3.64,15.64 0.56,2.25 4.14,4.3 6.14,4.96 3.45,1.14 7.01,0.68 9.49,-2.15 2.79,-3.67 2.51,-7.23 0.93,-11.34 -0.7,-1.82 -1.6,-3.57 -2.3,-5.39 -0.65,-1.66 -1.19,-3.54 -0.68,-5.31 0.76,-2.62 3.45,-3.81 5.86,-4.48l0.64 -0.18 0.55 0.38c1.43,0.98 2.6,2.21 3.55,3.66 1.32,2.01 2.14,4.28 2.88,6.55 2.07,6.31 3.3,11.26 11,11.86 5.2,0.41 11.13,-2.05 13.42,-6.98 1.39,-3 1,-6.18 -0.5,-9.05 -2.35,-2.31 -4.88,-3.67 -7.96,-4.82 -2.53,-0.94 -5.38,-1.71 -7.55,-3.37 -2.29,-1.76 -3.36,-4.18 -3.84,-6.96l-0.26 -1.48 1.49 -0.2c4.73,-0.64 9.02,0.48 13.48,1.89 3.04,0.96 7.07,2.45 10.28,1.96 1.83,-0.28 3.3,-1.15 4.6,-2.45 2.43,-2.44 4.09,-5.83 3.04,-9.3 -0.79,-2.61 -2.89,-4.51 -5.33,-5.58 -3.45,-1.52 -7.47,-1.42 -11.08,-0.55 -2.86,0.69 -5.14,1.86 -7.49,3.6 -1.84,1.36 -3.64,3.02 -5.75,3.95 -5.24,2.32 -11.16,-1.02 -15.54,-3.77 -3.94,-2.48 -7.11,-5.29 -10.14,-8.8 -1.72,-1.98 -3.31,-4.07 -4.94,-6.12 -1.85,-2.33 -3.74,-4.6 -5.78,-6.78 -1.21,-1.29 -2.33,-2.77 -3.36,-4.21 -1.44,-2 -2.79,-4.07 -4.08,-6.17 -3.16,-5.15 -6.02,-10.59 -8.41,-16.14 -3.86,-8.95 -9.22,-24.63 -2.78,-33.5 9.31,-12.82 51.05,-17.52 66.59,-19.25l1.77 -0.2 -0.18 1.77c-0.13,1.29 -0.32,2.55 -0.53,3.83 -0.1,0.58 -0.23,1.29 -0.19,1.88 0.03,0.45 0.21,0.94 0.44,1.41 3.05,-1.59 6.51,-2.47 9.85,-3.19 4.67,-1 12.08,-1.96 15.59,-5.39 1.36,-1.33 2.13,-2.95 2.48,-4.81 0.41,-2.14 -0.67,-5.26 -1.29,-7.31 -1.17,-3.87 -2.08,-7.44 -2.15,-11.52 -0.06,-3.8 -0.11,-7.61 -0.17,-11.41 -0.04,-2.41 -0.08,-4.83 -0.2,-7.23 -0.11,-2.17 -0.24,-4.76 -1.15,-6.77 -0.42,-0.92 -0.99,-1.79 -1.54,-2.64 -0.91,-1.39 -1.83,-2.77 -2.69,-4.19 -3.65,-6.01 -6.7,-12.57 -9.5,-19.02 -2.57,-5.94 -5.06,-11.93 -6.99,-18.13 -2.79,-8.96 -5.27,-20.98 -0.54,-29.69 1.18,-2.19 2.77,-4.06 4.72,-5.61 1.94,-1.54 4,-2.98 5.87,-4.59 1,-0.86 1.89,-1.91 2.9,-2.72 1.48,-1.19 3.31,-1.66 5.14,-2.05 6.2,-1.31 12.16,-2.98 18.16,-5.01 5.43,-1.84 10.79,-3.86 16.2,-5.76 8.94,-3.14 17.98,-5.94 26.89,-9.2 8.53,-3.12 26.02,-9.74 32.44,-17.87 -7.99,-0.48 -16.15,-1.43 -23.5,-4.67 -5.49,-2.42 -10.37,-5.97 -15.06,-9.66 -5.2,-4.09 -9.78,-8.62 -13.66,-14 -1.86,-2.58 -3.07,-5.6 -4.18,-8.56 -0.99,-2.64 -1.99,-5.63 -3.44,-8.16 -4.64,5.25 -16.55,11.36 -21.87,13.73 -4.69,2.09 -9.32,3.52 -14.38,4.38 -5.96,1.02 -12.14,1.34 -18.18,1.99 -19.54,30.15 -48.17,61.76 -81.07,77.13 -14.26,6.66 -33.95,10.92 -48.34,2.34 -4.02,-2.39 -7.29,-5.63 -9.8,-9.58 -2.98,-4.69 -4.48,-9.85 -4.23,-15.42 0.86,-18.94 21.55,-36.79 35.72,-47.17 1.46,-1.07 2.74,-2.24 4.02,-3.52 2.04,-2.04 3.89,-3.92 6.2,-5.69l0.03 -0.03 33.92 -24.68c13.87,-11.85 27.66,-27.92 25.11,-47.46 -0.79,-6.11 -3.01,-11.72 -5.68,-17.22 -1.19,-2.44 -2.45,-4.84 -3.66,-7.28 -1.03,-2.1 -2.06,-4.29 -2.75,-6.52 -1.06,-3.45 -1.77,-6.92 -2.51,-10.44 -0.61,-2.91 -1.27,-5.88 -2.44,-8.62 -2.61,-6.1 -7.4,-9.54 -13.3,-12.24 -4.96,-2.27 -10.42,-3.86 -15.71,-5.15 -7.02,-1.71 -14.21,-2.98 -21.37,-4.06 8.36,10.17 24.01,8.47 30.51,19.61l1.02 1.75 -1.99 0.39c-4.83,0.95 -9.62,0.82 -14.39,-0.37 -11.81,-2.95 -22.05,-12.05 -30.77,-20.13 -4.12,-3.82 -8.17,-7.72 -12.44,-11.36 -3.01,-2.57 -6.2,-5.09 -9.6,-7.2 0.44,1.65 0.98,3.29 1.49,4.88 1.03,3.17 2.12,6.33 3.05,9.53 0.57,1.95 1.08,3.93 1.48,5.92 0.59,2.95 1.05,5.91 1.59,8.87 0.44,2.43 0.96,4.87 1.8,7.2 1.36,3.77 3.43,6.73 6.29,9.52 4.39,4.29 10.21,7.85 15.53,10.82 2.89,1.61 6.17,2.86 9.22,4.14 3.85,1.62 9.09,3.83 11.94,6.94l1.67 1.82 -2.41 0.56c-5.56,1.29 -11.42,1.83 -17.02,0.47 -4.29,-1.04 -7.83,-3.04 -11.35,-5.64 -3.32,-2.45 -6.38,-5.23 -9.85,-7.48 -3.93,-2.56 -7.9,-4.12 -12.56,-4.72 -1.16,-0.13 -2.4,-0.2 -3.58,-0.28zm125 284.29c-0.97,-0.18 -1.93,-0.33 -2.9,-0.51 -0.58,-0.11 -1.13,-0.22 -1.63,-0.54 -0.41,-0.25 -0.72,-0.6 -1.05,-0.93 -0.55,-0.55 -1.12,-1.06 -1.71,-1.55 -13.37,-11.08 -23.62,-20.98 -31.68,-36.74 -6.12,-11.96 -7.15,-25.57 -2.94,-38.31 1.55,-4.69 3.86,-9.37 6.87,-13.3 1.93,-2.52 4.9,-5.65 8,-6.64l2.7 -0.85 -0.89 2.69c-1.6,4.81 -4.18,9.45 -6.35,14.03 -2.38,5.01 -4.41,10.09 -5.17,15.63 -2.35,17.17 9.12,32.29 20.49,43.79 0.91,0.92 1.84,1.83 2.78,2.73 3.15,3.01 6.44,5.96 9.36,9.18 2.44,2.69 4.96,5.99 5.8,9.59l0.5 2.16 -2.17 -0.41zm897.36 -360.81c12.9,3.01 26.34,1.54 38.49,7.93 6.37,3.35 14.02,4.58 20.84,1.83 2.1,-0.85 4.29,-2.17 5.76,-3.92 0.2,-0.24 0.42,-0.53 0.62,-0.85 -3.93,2.81 -9.63,2.19 -14.08,1.26 -6.27,-1.31 -12.62,-3.72 -18.66,-5.88 -5.61,-2 -11.55,-4.15 -17.4,-5.27 -3.82,-0.73 -8.98,-1.26 -12.42,0.99 -1.48,0.97 -2.48,2.34 -3.15,3.91zm-824.57 -8.93l-2.29 6.37c1.93,-0.75 4.01,-1.92 4.23,-3.41 0.16,-1.07 -0.89,-2.15 -1.94,-2.95zm-65.49 2.75c1.95,3.28 4.72,5.71 8.6,6.87 3.2,0.96 6.68,0.91 9.95,0.41 4.32,-0.66 8.62,-2.14 12.62,-3.89 1.47,-0.64 2.92,-1.34 4.36,-2.05 0.65,-0.32 1.7,-0.93 2.38,-1.12 2.11,-0.61 4.28,-0.94 6.47,-0.65 1.53,0.2 2.79,0.69 4.23,1.2 2.66,0.93 4.46,0.83 7,-0.07 0.66,-1.8 1.33,-4.44 0.03,-5.93 -2.34,-2.7 -9.93,-1.34 -12.93,-0.69 -3.68,0.8 -7.48,1.96 -10.99,3.34 -5.92,2.33 -12.04,4.45 -18.47,4.33 -2.38,-0.05 -4.74,-0.36 -7.1,-0.73 -2.06,-0.33 -4.11,-0.68 -6.17,-1.01zm203.3 -7.33c-0.76,-0.55 -1.56,-1.04 -2.43,-1.5 -1.33,-0.72 -2.7,-1.35 -4.04,-2.04 -1.74,-0.89 -3.39,-1.86 -5,-2.97 -5.35,-3.71 -10.1,-8.8 -14.26,-13.77 -3.63,-4.35 -7.55,-8.45 -11.4,-12.6 -1.4,-1.51 -2.77,-3.09 -4.3,-4.47 -3.25,-2.92 -6.58,-4.08 -10.79,-4.27 -3.63,9.05 -4.62,18.4 -5.45,28.05 -0.76,8.76 -1.41,18.41 -5.27,26.44 -1.97,4.1 -4.68,7.56 -8.17,10.44l-9.82 8.4 -0.13 0.07c-4.56,2.51 -10.78,2.98 -15.9,3.46 -3.96,0.37 -8.61,0.75 -12.4,2.17 -0.25,1.95 -0.1,4.04 -0.07,5.97 0.05,2.99 -0.12,5.76 -0.98,8.66 -2.92,9.8 -13.01,17.27 -21.26,22.41 -2.01,1.25 -4.09,2.19 -6.24,3.17 -1.96,0.9 -3.74,1.79 -5.44,2.97 6.05,3.92 12.77,6 20.05,4.27 8.59,-2.05 16.02,-8.91 21.83,-15.24 2.13,-2.32 4.84,-4.15 6.82,-6.56 1.77,-2.14 2.85,-4.29 3.46,-6.99 0.42,-1.83 0.58,-4.03 1.58,-5.64 1.77,-2.84 5.82,-3.21 8.85,-3.34l1.71 -0.08 -0.22 1.7c-1.34,10.56 -5.23,17.53 -12.28,25.26 -1.58,1.73 -3.22,3.42 -4.82,5.14 -2.14,2.3 -4.43,4.43 -6.81,6.49 -2,1.73 -4.06,3.39 -6.07,5.11 -2.14,1.83 -5.77,4.9 -6.21,7.85 -0.09,0.63 -0.05,1.24 0.09,1.83 1.59,-1.34 3,-2.74 4.55,-4.23 3.22,-3.1 6.21,-4.97 10.3,-6.81 2.99,-1.35 6.23,-2.44 9.33,-3.53 3.92,-1.39 7.83,-2.77 11.68,-4.34 5.84,-2.37 14.8,-6.41 18.44,-11.76 0.89,-1.3 1.48,-2.57 1.87,-4.1 0.25,-1 0.41,-2.03 0.57,-3.05 0.21,-1.34 0.44,-2.66 0.75,-3.98 0.63,-2.71 1.54,-5.98 3.01,-8.38 0.38,-0.62 0.81,-1.2 1.33,-1.7 0.06,-0.06 0.12,-0.12 0.19,-0.17 -0.04,-0.06 -0.08,-0.12 -0.11,-0.17 -0.39,-0.61 -0.78,-1.21 -1.16,-1.83 -1.63,-2.62 -3.14,-5.33 -4.59,-8.05 -2.76,-5.19 -3.8,-9.63 -0.85,-14.93l0.6 -1.08 1.16 0.43c2.32,0.86 4.53,1.94 5.98,4.02 0.74,1.06 1.22,2.26 1.69,3.46 0.6,1.52 1.19,2.99 1.92,4.46 2.82,5.65 7.22,10.88 11.5,15.41l23.17 23.34c5.92,5.15 12.26,11.25 16.4,17.98 2.84,4.61 4.43,9.2 4.84,14.6 0.41,5.42 -0.33,11.08 -0.52,16.52 -0.25,6.95 0.29,13.42 1.73,20.14 1.49,-1.3 2.93,-2.94 4.08,-4.29 2.38,-2.81 4.59,-5.79 6.76,-8.76 1.91,-2.62 3.8,-5.27 5.72,-7.88 1.58,-2.14 3.21,-4.34 4.97,-6.32 9.01,-10.14 19.79,-13.98 25.76,-27.09 -2.59,-4.39 -4.36,-9.24 -6.99,-13.56 -0.63,-0.06 -1.26,-0.07 -1.89,-0.03 -5.26,0.34 -10.58,4.3 -14.62,7.43 -3.03,2.35 -6.03,4.88 -9.27,6.94 -2.81,1.79 -6.1,3.39 -9.52,3.19 -2.21,-0.13 -4.14,-1 -5.83,-2.34l-0.8 1.92 -4.01 -16.51 -0.01 -0.09c-0.65,-5.76 -1.45,-12.25 -3.21,-17.8 -1,-3.17 -2.3,-5.88 -4.57,-8.33 -1.23,-1.32 -2.63,-2.48 -4.04,-3.6 -1.82,-1.45 -3.66,-2.86 -5.44,-4.36l-1.27 -1.07 1.23 -1.11c1.89,-1.7 4.16,-3.02 6.79,-2.63 2.54,0.38 4.86,2.32 6.95,3.7 2.11,1.4 4.12,2.39 6.48,2.8 -0.26,-1 -0.6,-2.03 -0.86,-2.89 -0.77,-2.5 -1.62,-4.99 -2.49,-7.45 -0.87,-2.46 -1.76,-4.91 -2.71,-7.34 -0.57,-1.45 -1.21,-3.18 -1.95,-4.55 -2.27,-4.2 -5.17,-7.64 -8.71,-10.8 -1.35,-1.2 -2.76,-2.33 -4.16,-3.47 -1.13,-0.92 -2.32,-1.88 -3.29,-2.96l-1.25 -1.38 1.65 -0.86c0.97,-0.51 2.01,-0.8 3.1,-0.93 2.73,-0.32 4.96,0.41 7.58,0.6 1.64,0.12 3.53,0.27 5.15,-0.09 0.72,-0.16 1.47,-0.4 2.22,-0.66zm-65.75 -66.03c-0.22,3.16 -0.54,6.5 -1.32,9.51 -0.65,2.53 -1.68,4.94 -3.63,6.75 -2.21,2.05 -5.16,2.89 -8.06,3.38 -4.19,0.7 -8.77,0.83 -13.02,1.02 -4.11,0.18 -8.23,0.13 -12.34,0.27 -5.31,0.18 -16.07,0.61 -19.47,5.42 -0.53,0.75 -0.87,1.58 -1.04,2.46 0.4,0.32 0.84,0.6 1.3,0.84 2.74,1.42 6.68,1.52 9.72,1.79 4.41,0.4 8.43,1.11 12.24,3.55l0.94 0.6 -0.34 1.06c-0.81,2.56 -1.91,5.32 -4.06,7.05 -3.01,2.42 -7.19,2.05 -10.72,1.29 -4.55,-0.97 -7.22,-2.86 -10.54,-5.95 -1.1,-1.03 -2.19,-2.06 -3.4,-2.96 -6.78,-0.98 -14.33,-0.42 -20.7,2.17 -3.5,1.42 -8.83,4.52 -9.17,8.79 -0.51,6.37 10.58,10.51 15.26,11.99 9.94,1.04 18.88,2.47 17.61,14.82 -0.13,1.32 -0.18,3.26 -1.17,4.24 -0.85,0.82 -2.72,1.08 -3.86,1.42 -6.44,1.91 -12.74,3.35 -18.77,6.42 -1.07,0.55 -1.84,1.46 -2.2,2.6 -0.52,1.65 -0.11,3.51 1.02,4.82 1.6,1.85 4.14,2.17 6.43,1.84 3.95,-0.57 7.86,-1.41 11.82,-1.98 1.18,-0.17 2.36,-0.32 3.54,-0.44l0.1 -0.01 0.1 0c4.13,0.14 8.2,0.01 12.33,-0.28 3.89,-0.27 7.78,-0.64 11.67,-0.91 11.79,-0.81 24.65,-3.69 30.85,-14.83 2.65,-4.76 3.8,-10.31 4.52,-15.66 0.82,-6.08 1.14,-12.22 1.95,-18.31 0.59,-4.45 1.44,-8.88 2.87,-13.14 0.61,-1.8 1.41,-3.59 2.18,-5.32 0.89,-1.99 1.8,-3.97 2.63,-5.98 1.55,-3.72 3.99,-10.12 2.13,-14.05 -1.29,-2.75 -4.49,-3.81 -7.39,-4.24zm-108.44 377.08c-1.43,4.74 1.34,8.89 3.53,12.98 1.25,2.33 2.68,4.53 4.12,6.75 1.08,1.66 2.16,3.34 3.09,5.1 4.31,-1.86 8.01,-4.97 9.77,-9.44 1.48,-3.74 1.36,-8.06 -0.7,-11.56 -1.63,-2.77 -4.23,-4.61 -7.34,-5.37 -4.13,-1.01 -8.59,-0.05 -12.46,1.55zm436.71 -557.6l-11.28 4.75 -0.01 -9.21 11.3 4.46zm23.07 -0.09l11.28 4.74 0.01 -9.21 -11.29 4.46zm-11.23 27.64c10.77,0 19.51,8.74 19.51,19.51 0,10.78 -8.74,19.51 -19.51,19.51 -10.78,0 -19.51,-8.73 -19.51,-19.51 0,-10.78 8.74,-19.51 19.51,-19.51zm-119.73 25.96l45.19 0.14c5.24,5.41 30.76,53.38 37.31,64.94 6.12,10.8 35.03,65.21 39.46,69.92 17.52,-34.61 40.69,-71.55 57.74,-104.84 6.47,-12.63 10.95,-19.89 18.24,-31.81l45.75 -0.35c-1.06,5.26 -63.15,117.94 -71.53,134.4 -4.76,9.36 -22.5,38.81 -23.75,45.69 42.38,1.43 87.66,0.06 131.81,0.37l-13.76 37.48 -289.48 0.16 -14.59 -37.35 132 -0.46c-0.68,-5.86 -41.9,-79.58 -48.22,-91.96 -10.53,-20.65 -40.85,-71.56 -46.17,-86.31zm119.54 -64.65l-4.3 -10.84 8.45 0 -3.97 11.29 -0.18 -0.45z"/>
   <path class="fil0" d="M1914.26 779.38l0 124.26 25.21 0 0 -103.84 49.17 0 0 103.84 25.21 0 0 -124.26 -99.59 0zm180.89 -1.42c-30.71,0 -60.89,18.46 -60.89,63.55 0,45.09 30.18,63.55 60.89,63.55 30.71,0 60.89,-18.46 60.89,-63.55 0,-45.09 -30.18,-63.55 -60.89,-63.55zm0 17.75c9.41,0 34.26,3.73 34.26,45.8 0,42.07 -24.85,45.8 -34.26,45.8 -9.41,0 -34.26,-3.73 -34.26,-45.8 0,-42.07 24.85,-45.8 34.26,-45.8zm88.93 -16.33l0 40.47c0,29.47 2.66,64.97 -16.86,64.97 -1.95,0 -5.15,-0.53 -6.74,-0.89l-1.07 19.71c3.37,0.71 7.99,1.42 12.07,1.42 36.92,0 36.21,-37.1 36.21,-78.82l0 -24.85 32.84 0 0 102.25 25.21 0 0 -124.26 -81.66 0zm106.51 0l0 124.26 30.18 0 43.84 -75.27 8.52 -18.82 0.53 0 -0.53 30 0 64.08 25.21 0 0 -124.26 -30.18 0 -43.49 75.97 -8.88 18.1 -0.53 0 0.53 -30.18 0 -63.9 -25.21 0zm132.6 0l0 124.26 25.21 0 0 -102.25 51.13 0 0 -22.01 -76.33 0zm90.53 0l0 124.26 25.21 0 0 -46.69 16.15 0c31.78,0 43.13,-22.36 43.13,-38.69 0,-7.81 -2.66,-38.88 -47.75,-38.88l-36.75 0zm25.21 58.05l0 -38.52 11.54 0c14.56,0 21.12,8.34 21.12,18.64 0,9.41 -5.86,19.88 -21.12,19.88l-11.54 0zm103.31 -58.05l-49.53 124.26 26.98 0 10.47 -28.05 51.3 0 10.47 28.05 28.4 0 -49.35 -124.26 -28.75 0zm-4.09 75.8l17.22 -50.77 0.36 0 18.28 50.77 -35.86 0zm170.24 -82.9l-25.21 0 0 15.98 -7.46 0c-28.4,0 -55.21,18.46 -55.21,53.25 0,34.79 26.8,53.25 55.21,53.25l7.46 0 0 15.97 25.21 0 0 -15.97 7.46 0c28.4,0 55.21,-18.46 55.21,-53.25 0,-34.79 -26.8,-53.25 -55.21,-53.25l-7.46 0 0 -15.98zm5.32 35.5c16.87,0 30.71,10.47 30.71,33.73 0,23.25 -13.85,33.73 -30.71,33.73l-5.32 0 0 -67.46 5.32 0zm-35.85 67.46c-16.86,0 -30.71,-10.47 -30.71,-33.73 0,-23.25 13.85,-33.73 30.71,-33.73l5.32 0 0 67.46 -5.32 0zm115.38 -95.86l0 124.26 30.18 0 43.85 -75.27 8.52 -18.82 0.54 0 -0.54 30 0 64.08 25.21 0 0 -124.26 -30.18 0 -43.49 75.97 -8.88 18.1 -0.53 0 0.53 -30.18 0 -63.9 -25.21 0zm221 0l-40.3 0c-8.7,0 -49.17,-0.53 -49.17,38.34 0,23.08 14.73,31.77 24.5,34.79l-29.65 51.13 30.18 0 24.14 -46.16 15.09 0 0 46.16 25.21 0 0 -124.26zm-25.21 58.58l-14.2 0c-3.19,0 -23.43,-0.18 -23.43,-19.53 0,-6.74 2.66,-19.53 23.26,-19.53l14.38 0 0 39.05zm91.42 -58.58l0 124.26 30.18 0 43.85 -75.27 8.52 -18.82 0.54 0 -0.54 30 0 64.08 25.21 0 0 -124.26 -30.18 0 -43.49 75.97 -8.88 18.1 -0.53 0 0.53 -30.18 0 -63.9 -25.21 0zm173.96 0l0 124.26 25.21 0 0 -46.69 16.16 0c31.78,0 43.13,-22.36 43.13,-38.69 0,-7.81 -2.66,-38.88 -47.75,-38.88l-36.75 0zm25.21 58.05l0 -38.52 11.54 0c14.55,0 21.12,8.34 21.12,18.64 0,9.41 -5.86,19.88 -21.12,19.88l-11.54 0zm78.82 -58.05l0 124.26 74.2 0 0 -22.01 -49 0 0 -31.78 44.56 0 0 -20.41 -44.56 0 0 -28.05 49 0 0 -22.01 -74.2 0zm95.51 0l0 124.26 25.21 0 0 -61.78 0.53 0 46.15 61.78 31.95 0 -55.03 -67.99 51.83 -56.27 -30 0 -44.91 53.08 -0.53 0 0 -53.08 -25.21 0zm128.52 0l0 40.47c0,29.47 2.66,64.97 -16.86,64.97 -1.95,0 -5.15,-0.53 -6.74,-0.89l-1.07 19.71c3.37,0.71 7.99,1.42 12.07,1.42 36.92,0 36.21,-37.1 36.21,-78.82l0 -24.85 32.84 0 0 102.25 25.21 0 0 -124.26 -81.66 0zm146.27 0l-49.53 124.26 26.98 0 10.47 -28.05 51.3 0 10.47 28.05 28.4 0 -49.35 -124.26 -28.75 0zm-4.09 75.8l17.22 -50.77 0.36 0 18.28 50.77 -35.86 0zm182.49 48.46l30.18 -88.76 5.68 -17.75 0.53 0 -0.35 19.17 0 87.34 25.21 0 0 -124.26 -42.61 0 -24.85 72.25 -5.5 22.01 -0.53 0 -5.5 -22.01 -24.85 -72.25 -42.6 0 0 124.26 25.21 0 0 -87.34 -0.35 -19.17 0.53 0 5.68 17.75 30.18 88.76 23.96 0zm125.86 -124.26l-49.53 124.26 26.98 0 10.47 -28.05 51.3 0 10.47 28.05 28.4 0 -49.35 -124.26 -28.76 0zm-4.09 75.8l17.22 -50.77 0.36 0 18.28 50.77 -35.86 0z"/>
  </g>
 </g>
</svg>
